<?xml version="1.0" encoding="UTF-8"?>
<svg version="1.1" xmlns="http://www.w3.org/2000/svg" width="1360" height="1304">
<path d="M0 0 C448.8 0 897.6 0 1360 0 C1360 430.32 1360 860.64 1360 1304 C911.2 1304 462.4 1304 0 1304 C0 873.68 0 443.36 0 0 Z " fill="#FEFEFE" transform="translate(0,0)"/>
<path d="M0 0 C13.86 0 27.72 0 42 0 C42 0.66 42 1.32 42 2 C43.98 2 45.96 2 48 2 C48 2.66 48 3.32 48 4 C52.62 4 57.24 4 62 4 C62 4.66 62 5.32 62 6 C63.32 6 64.64 6 66 6 C66 6.66 66 7.32 66 8 C68.64 8 71.28 8 74 8 C74 8.66 74 9.32 74 10 C75.32 10 76.64 10 78 10 C78 10.66 78 11.32 78 12 C79.98 12 81.96 12 84 12 C84 12.66 84 13.32 84 14 C85.98 14 87.96 14 90 14 C90 14.66 90 15.32 90 16 C91.32 16 92.64 16 94 16 C94 16.66 94 17.32 94 18 C95.32 18 96.64 18 98 18 C98 18.66 98 19.32 98 20 C99.32 20 100.64 20 102 20 C102 20.66 102 21.32 102 22 C103.32 22 104.64 22 106 22 C106 22.66 106 23.32 106 24 C106.66 24 107.32 24 108 24 C108 24.66 108 25.32 108 26 C109.32 26 110.64 26 112 26 C112 26.66 112 27.32 112 28 C112.66 28 113.32 28 114 28 C114 28.66 114 29.32 114 30 C115.32 30 116.64 30 118 30 C118 30.66 118 31.32 118 32 C118.66 32 119.32 32 120 32 C120 32.66 120 33.32 120 34 C121.32 34 122.64 34 124 34 C124 34.66 124 35.32 124 36 C124.66 36 125.32 36 126 36 C126 36.66 126 37.32 126 38 C126.66 38 127.32 38 128 38 C128 38.66 128 39.32 128 40 C128.66 40 129.32 40 130 40 C130 40.66 130 41.32 130 42 C131.32 42 132.64 42 134 42 C134 42.66 134 43.32 134 44 C134.66 44 135.32 44 136 44 C136 44.66 136 45.32 136 46 C136.66 46 137.32 46 138 46 C138 46.66 138 47.32 138 48 C138.66 48 139.32 48 140 48 C140 48.66 140 49.32 140 50 C140.66 50 141.32 50 142 50 C142 50.66 142 51.32 142 52 C142.66 52 143.32 52 144 52 C144 52.66 144 53.32 144 54 C144.66 54 145.32 54 146 54 C146 54.66 146 55.32 146 56 C146.66 56 147.32 56 148 56 C148 56.66 148 57.32 148 58 C148.66 58 149.32 58 150 58 C150 58.66 150 59.32 150 60 C150.66 60 151.32 60 152 60 C152 61.32 152 62.64 152 64 C152.66 64 153.32 64 154 64 C154 64.66 154 65.32 154 66 C154.66 66 155.32 66 156 66 C156 66.66 156 67.32 156 68 C156.66 68 157.32 68 158 68 C158 68.66 158 69.32 158 70 C158.66 70 159.32 70 160 70 C160 71.32 160 72.64 160 74 C160.66 74 161.32 74 162 74 C162 74.66 162 75.32 162 76 C162.66 76 163.32 76 164 76 C164 77.32 164 78.64 164 80 C164.66 80 165.32 80 166 80 C166 80.66 166 81.32 166 82 C166.66 82 167.32 82 168 82 C168 83.32 168 84.64 168 86 C168.66 86 169.32 86 170 86 C170 86.66 170 87.32 170 88 C170.66 88 171.32 88 172 88 C172 89.32 172 90.64 172 92 C172.66 92 173.32 92 174 92 C174 93.32 174 94.64 174 96 C174.66 96 175.32 96 176 96 C176 97.32 176 98.64 176 100 C176.66 100 177.32 100 178 100 C178 101.32 178 102.64 178 104 C178.66 104 179.32 104 180 104 C180 105.32 180 106.64 180 108 C180.66 108 181.32 108 182 108 C182 109.98 182 111.96 182 114 C182.66 114 183.32 114 184 114 C184 115.32 184 116.64 184 118 C184.66 118 185.32 118 186 118 C186 119.98 186 121.96 186 124 C186.66 124 187.32 124 188 124 C188 125.98 188 127.96 188 130 C188.66 130 189.32 130 190 130 C190 131.98 190 133.96 190 136 C190.66 136 191.32 136 192 136 C192 139.96 192 143.92 192 148 C192.66 148 193.32 148 194 148 C194 152.62 194 157.24 194 162 C194.66 162 195.32 162 196 162 C196 177.18 196 192.36 196 208 C195.34 208 194.68 208 194 208 C194 213.28 194 218.56 194 224 C193.34 224 192.68 224 192 224 C192 227.3 192 230.6 192 234 C191.34 234 190.68 234 190 234 C190 235.32 190 236.64 190 238 C189.34 238 188.68 238 188 238 C188 239.98 188 241.96 188 244 C187.34 244 186.68 244 186 244 C186 245.98 186 247.96 186 250 C185.34 250 184.68 250 184 250 C184 251.98 184 253.96 184 256 C183.34 256 182.68 256 182 256 C182 257.32 182 258.64 182 260 C181.34 260 180.68 260 180 260 C180 261.98 180 263.96 180 266 C179.34 266 178.68 266 178 266 C178 267.32 178 268.64 178 270 C177.34 270 176.68 270 176 270 C176 271.32 176 272.64 176 274 C175.34 274 174.68 274 174 274 C174 275.32 174 276.64 174 278 C173.34 278 172.68 278 172 278 C172 279.32 172 280.64 172 282 C171.34 282 170.68 282 170 282 C170 282.66 170 283.32 170 284 C169.34 284 168.68 284 168 284 C168 285.32 168 286.64 168 288 C167.34 288 166.68 288 166 288 C166 288.66 166 289.32 166 290 C165.34 290 164.68 290 164 290 C164 291.32 164 292.64 164 294 C163.34 294 162.68 294 162 294 C162 294.66 162 295.32 162 296 C161.34 296 160.68 296 160 296 C160 297.32 160 298.64 160 300 C159.34 300 158.68 300 158 300 C158 300.66 158 301.32 158 302 C157.34 302 156.68 302 156 302 C156 302.66 156 303.32 156 304 C155.34 304 154.68 304 154 304 C154 304.66 154 305.32 154 306 C153.34 306 152.68 306 152 306 C152 307.32 152 308.64 152 310 C151.34 310 150.68 310 150 310 C150 310.66 150 311.32 150 312 C149.34 312 148.68 312 148 312 C148 312.66 148 313.32 148 314 C147.34 314 146.68 314 146 314 C146 314.66 146 315.32 146 316 C145.34 316 144.68 316 144 316 C144 316.66 144 317.32 144 318 C143.34 318 142.68 318 142 318 C142 318.66 142 319.32 142 320 C141.34 320 140.68 320 140 320 C140 320.66 140 321.32 140 322 C139.34 322 138.68 322 138 322 C138 322.66 138 323.32 138 324 C137.34 324 136.68 324 136 324 C136 324.66 136 325.32 136 326 C135.34 326 134.68 326 134 326 C134 326.66 134 327.32 134 328 C132.68 328 131.36 328 130 328 C130 328.66 130 329.32 130 330 C129.34 330 128.68 330 128 330 C128 330.66 128 331.32 128 332 C127.34 332 126.68 332 126 332 C126 332.66 126 333.32 126 334 C125.34 334 124.68 334 124 334 C124 334.66 124 335.32 124 336 C122.68 336 121.36 336 120 336 C120 336.66 120 337.32 120 338 C119.34 338 118.68 338 118 338 C118 338.66 118 339.32 118 340 C116.68 340 115.36 340 114 340 C114 340.66 114 341.32 114 342 C113.34 342 112.68 342 112 342 C112 342.66 112 343.32 112 344 C110.68 344 109.36 344 108 344 C108 344.66 108 345.32 108 346 C107.34 346 106.68 346 106 346 C106 346.66 106 347.32 106 348 C104.68 348 103.36 348 102 348 C102 348.66 102 349.32 102 350 C101.34 350 100.68 350 100 350 C100 350.66 100 351.32 100 352 C98.68 352 97.36 352 96 352 C96 352.66 96 353.32 96 354 C95.34 354 94.68 354 94 354 C94 354.66 94 355.32 94 356 C92.68 356 91.36 356 90 356 C90 356.66 90 357.32 90 358 C89.34 358 88.68 358 88 358 C88 358.66 88 359.32 88 360 C86.68 360 85.36 360 84 360 C84 360.66 84 361.32 84 362 C83.34 362 82.68 362 82 362 C82 362.66 82 363.32 82 364 C80.68 364 79.36 364 78 364 C78 364.66 78 365.32 78 366 C77.34 366 76.68 366 76 366 C76 366.66 76 367.32 76 368 C74.68 368 73.36 368 72 368 C72 368.66 72 369.32 72 370 C70.68 370 69.36 370 68 370 C68 370.66 68 371.32 68 372 C67.34 372 66.68 372 66 372 C66 372.66 66 373.32 66 374 C64.68 374 63.36 374 62 374 C62 374.66 62 375.32 62 376 C61.34 376 60.68 376 60 376 C60 376.66 60 377.32 60 378 C58.68 378 57.36 378 56 378 C56 378.66 56 379.32 56 380 C55.34 380 54.68 380 54 380 C54 380.66 54 381.32 54 382 C52.68 382 51.36 382 50 382 C50 382.66 50 383.32 50 384 C49.34 384 48.68 384 48 384 C48 384.66 48 385.32 48 386 C46.68 386 45.36 386 44 386 C44 386.66 44 387.32 44 388 C43.34 388 42.68 388 42 388 C42 388.66 42 389.32 42 390 C40.68 390 39.36 390 38 390 C38 390.66 38 391.32 38 392 C37.34 392 36.68 392 36 392 C36 392.66 36 393.32 36 394 C34.68 394 33.36 394 32 394 C32 394.66 32 395.32 32 396 C31.34 396 30.68 396 30 396 C30 396.66 30 397.32 30 398 C28.68 398 27.36 398 26 398 C26 398.66 26 399.32 26 400 C24.68 400 23.36 400 22 400 C22 400.66 22 401.32 22 402 C21.34 402 20.68 402 20 402 C20 402.66 20 403.32 20 404 C18.68 404 17.36 404 16 404 C16 404.66 16 405.32 16 406 C15.34 406 14.68 406 14 406 C14 406.66 14 407.32 14 408 C12.68 408 11.36 408 10 408 C10 408.66 10 409.32 10 410 C9.34 410 8.68 410 8 410 C8 410.66 8 411.32 8 412 C6.68 412 5.36 412 4 412 C4 412.66 4 413.32 4 414 C3.34 414 2.68 414 2 414 C2 414.66 2 415.32 2 416 C0.68 416 -0.64 416 -2 416 C-2 416.66 -2 417.32 -2 418 C-2.66 418 -3.32 418 -4 418 C-4 418.66 -4 419.32 -4 420 C-5.32 420 -6.64 420 -8 420 C-8 420.66 -8 421.32 -8 422 C-8.66 422 -9.32 422 -10 422 C-10 422.66 -10 423.32 -10 424 C-11.32 424 -12.64 424 -14 424 C-14 424.66 -14 425.32 -14 426 C-14.66 426 -15.32 426 -16 426 C-16 426.66 -16 427.32 -16 428 C-17.32 428 -18.64 428 -20 428 C-20 428.66 -20 429.32 -20 430 C-20.66 430 -21.32 430 -22 430 C-22 430.66 -22 431.32 -22 432 C-23.32 432 -24.64 432 -26 432 C-26 432.66 -26 433.32 -26 434 C-27.32 434 -28.64 434 -30 434 C-30 434.66 -30 435.32 -30 436 C-30.66 436 -31.32 436 -32 436 C-32 436.66 -32 437.32 -32 438 C-33.32 438 -34.64 438 -36 438 C-36 438.66 -36 439.32 -36 440 C-36.66 440 -37.32 440 -38 440 C-38 440.66 -38 441.32 -38 442 C-39.32 442 -40.64 442 -42 442 C-42 442.66 -42 443.32 -42 444 C-42.66 444 -43.32 444 -44 444 C-44 444.66 -44 445.32 -44 446 C-45.32 446 -46.64 446 -48 446 C-48 446.66 -48 447.32 -48 448 C-48.66 448 -49.32 448 -50 448 C-50 448.66 -50 449.32 -50 450 C-51.32 450 -52.64 450 -54 450 C-54 450.66 -54 451.32 -54 452 C-54.66 452 -55.32 452 -56 452 C-56 452.66 -56 453.32 -56 454 C-57.32 454 -58.64 454 -60 454 C-60 454.66 -60 455.32 -60 456 C-60.66 456 -61.32 456 -62 456 C-62 456.66 -62 457.32 -62 458 C-63.32 458 -64.64 458 -66 458 C-66 458.66 -66 459.32 -66 460 C-66.66 460 -67.32 460 -68 460 C-68 460.66 -68 461.32 -68 462 C-69.32 462 -70.64 462 -72 462 C-72 462.66 -72 463.32 -72 464 C-72.66 464 -73.32 464 -74 464 C-74 464.66 -74 465.32 -74 466 C-75.32 466 -76.64 466 -78 466 C-78 466.66 -78 467.32 -78 468 C-79.32 468 -80.64 468 -82 468 C-82 468.66 -82 469.32 -82 470 C-82.66 470 -83.32 470 -84 470 C-84 470.66 -84 471.32 -84 472 C-85.32 472 -86.64 472 -88 472 C-88 472.66 -88 473.32 -88 474 C-88.66 474 -89.32 474 -90 474 C-90 474.66 -90 475.32 -90 476 C-91.32 476 -92.64 476 -94 476 C-94 476.66 -94 477.32 -94 478 C-94.66 478 -95.32 478 -96 478 C-96 478.66 -96 479.32 -96 480 C-97.32 480 -98.64 480 -100 480 C-100 480.66 -100 481.32 -100 482 C-100.66 482 -101.32 482 -102 482 C-102 482.66 -102 483.32 -102 484 C-103.32 484 -104.64 484 -106 484 C-106 484.66 -106 485.32 -106 486 C-106.66 486 -107.32 486 -108 486 C-108 486.66 -108 487.32 -108 488 C-109.32 488 -110.64 488 -112 488 C-112 488.66 -112 489.32 -112 490 C-112.66 490 -113.32 490 -114 490 C-114 490.66 -114 491.32 -114 492 C-115.32 492 -116.64 492 -118 492 C-118 492.66 -118 493.32 -118 494 C-118.66 494 -119.32 494 -120 494 C-120 494.66 -120 495.32 -120 496 C-121.32 496 -122.64 496 -124 496 C-124 496.66 -124 497.32 -124 498 C-124.66 498 -125.32 498 -126 498 C-126 498.66 -126 499.32 -126 500 C-127.32 500 -128.64 500 -130 500 C-130 500.66 -130 501.32 -130 502 C-131.32 502 -132.64 502 -134 502 C-134 502.66 -134 503.32 -134 504 C-134.66 504 -135.32 504 -136 504 C-136 504.66 -136 505.32 -136 506 C-137.32 506 -138.64 506 -140 506 C-140 506.66 -140 507.32 -140 508 C-140.66 508 -141.32 508 -142 508 C-142 508.66 -142 509.32 -142 510 C-143.32 510 -144.64 510 -146 510 C-146 510.66 -146 511.32 -146 512 C-146.66 512 -147.32 512 -148 512 C-148 512.66 -148 513.32 -148 514 C-149.32 514 -150.64 514 -152 514 C-152 514.66 -152 515.32 -152 516 C-152.66 516 -153.32 516 -154 516 C-154 516.66 -154 517.32 -154 518 C-155.32 518 -156.64 518 -158 518 C-158 518.66 -158 519.32 -158 520 C-158.66 520 -159.32 520 -160 520 C-160 520.66 -160 521.32 -160 522 C-161.32 522 -162.64 522 -164 522 C-164 522.66 -164 523.32 -164 524 C-164.66 524 -165.32 524 -166 524 C-166 524.66 -166 525.32 -166 526 C-167.32 526 -168.64 526 -170 526 C-170 526.66 -170 527.32 -170 528 C-170.66 528 -171.32 528 -172 528 C-172 528.66 -172 529.32 -172 530 C-173.32 530 -174.64 530 -176 530 C-176 530.66 -176 531.32 -176 532 C-177.32 532 -178.64 532 -180 532 C-180 532.66 -180 533.32 -180 534 C-180.66 534 -181.32 534 -182 534 C-182 534.66 -182 535.32 -182 536 C-183.32 536 -184.64 536 -186 536 C-186 536.66 -186 537.32 -186 538 C-186.66 538 -187.32 538 -188 538 C-188 538.66 -188 539.32 -188 540 C-189.32 540 -190.64 540 -192 540 C-192 540.66 -192 541.32 -192 542 C-192.66 542 -193.32 542 -194 542 C-194 542.66 -194 543.32 -194 544 C-195.32 544 -196.64 544 -198 544 C-198 544.66 -198 545.32 -198 546 C-198.66 546 -199.32 546 -200 546 C-200 546.66 -200 547.32 -200 548 C-201.32 548 -202.64 548 -204 548 C-204 548.66 -204 549.32 -204 550 C-204.66 550 -205.32 550 -206 550 C-206 550.66 -206 551.32 -206 552 C-207.32 552 -208.64 552 -210 552 C-210 552.66 -210 553.32 -210 554 C-210.66 554 -211.32 554 -212 554 C-212 554.66 -212 555.32 -212 556 C-213.32 556 -214.64 556 -216 556 C-216 556.66 -216 557.32 -216 558 C-216.66 558 -217.32 558 -218 558 C-218 558.66 -218 559.32 -218 560 C-219.32 560 -220.64 560 -222 560 C-222 560.66 -222 561.32 -222 562 C-222.66 562 -223.32 562 -224 562 C-224 562.66 -224 563.32 -224 564 C-225.32 564 -226.64 564 -228 564 C-228 564.66 -228 565.32 -228 566 C-229.32 566 -230.64 566 -232 566 C-232 566.66 -232 567.32 -232 568 C-232.66 568 -233.32 568 -234 568 C-234 568.66 -234 569.32 -234 570 C-235.32 570 -236.64 570 -238 570 C-238 570.66 -238 571.32 -238 572 C-238.66 572 -239.32 572 -240 572 C-240 572.66 -240 573.32 -240 574 C-241.32 574 -242.64 574 -244 574 C-244 574.66 -244 575.32 -244 576 C-244.66 576 -245.32 576 -246 576 C-246 576.66 -246 577.32 -246 578 C-247.32 578 -248.64 578 -250 578 C-250 578.66 -250 579.32 -250 580 C-250.66 580 -251.32 580 -252 580 C-252 580.66 -252 581.32 -252 582 C-253.32 582 -254.64 582 -256 582 C-256 582.66 -256 583.32 -256 584 C-256.66 584 -257.32 584 -258 584 C-258 584.66 -258 585.32 -258 586 C-259.32 586 -260.64 586 -262 586 C-262 586.66 -262 587.32 -262 588 C-262.66 588 -263.32 588 -264 588 C-264 588.66 -264 589.32 -264 590 C-265.32 590 -266.64 590 -268 590 C-268 590.66 -268 591.32 -268 592 C-268.66 592 -269.32 592 -270 592 C-270 592.66 -270 593.32 -270 594 C-271.32 594 -272.64 594 -274 594 C-274 594.66 -274 595.32 -274 596 C-274.66 596 -275.32 596 -276 596 C-276 596.66 -276 597.32 -276 598 C-277.32 598 -278.64 598 -280 598 C-280 598.66 -280 599.32 -280 600 C-281.32 600 -282.64 600 -284 600 C-284 600.66 -284 601.32 -284 602 C-284.66 602 -285.32 602 -286 602 C-286 602.66 -286 603.32 -286 604 C-287.32 604 -288.64 604 -290 604 C-290 604.66 -290 605.32 -290 606 C-290.66 606 -291.32 606 -292 606 C-292 606.66 -292 607.32 -292 608 C-293.32 608 -294.64 608 -296 608 C-296 608.66 -296 609.32 -296 610 C-296.66 610 -297.32 610 -298 610 C-298 610.66 -298 611.32 -298 612 C-299.32 612 -300.64 612 -302 612 C-302 612.66 -302 613.32 -302 614 C-302.66 614 -303.32 614 -304 614 C-304 614.66 -304 615.32 -304 616 C-305.32 616 -306.64 616 -308 616 C-308 616.66 -308 617.32 -308 618 C-308.66 618 -309.32 618 -310 618 C-310 618.66 -310 619.32 -310 620 C-311.32 620 -312.64 620 -314 620 C-314 620.66 -314 621.32 -314 622 C-314.66 622 -315.32 622 -316 622 C-316 622.66 -316 623.32 -316 624 C-317.32 624 -318.64 624 -320 624 C-320 624.66 -320 625.32 -320 626 C-320.66 626 -321.32 626 -322 626 C-322 626.66 -322 627.32 -322 628 C-323.32 628 -324.64 628 -326 628 C-326 628.66 -326 629.32 -326 630 C-327.32 630 -328.64 630 -330 630 C-330 630.66 -330 631.32 -330 632 C-330.66 632 -331.32 632 -332 632 C-332 632.66 -332 633.32 -332 634 C-333.32 634 -334.64 634 -336 634 C-336 634.66 -336 635.32 -336 636 C-336.66 636 -337.32 636 -338 636 C-338 636.66 -338 637.32 -338 638 C-339.32 638 -340.64 638 -342 638 C-342 638.66 -342 639.32 -342 640 C-342.66 640 -343.32 640 -344 640 C-344 640.66 -344 641.32 -344 642 C-345.32 642 -346.64 642 -348 642 C-348 642.66 -348 643.32 -348 644 C-348.66 644 -349.32 644 -350 644 C-350 644.66 -350 645.32 -350 646 C-351.32 646 -352.64 646 -354 646 C-354 646.66 -354 647.32 -354 648 C-354.66 648 -355.32 648 -356 648 C-356 648.66 -356 649.32 -356 650 C-357.32 650 -358.64 650 -360 650 C-360 650.66 -360 651.32 -360 652 C-360.66 652 -361.32 652 -362 652 C-362 652.66 -362 653.32 -362 654 C-363.32 654 -364.64 654 -366 654 C-366 654.66 -366 655.32 -366 656 C-366.66 656 -367.32 656 -368 656 C-368 656.66 -368 657.32 -368 658 C-369.32 658 -370.64 658 -372 658 C-372 658.66 -372 659.32 -372 660 C-372.66 660 -373.32 660 -374 660 C-374 660.66 -374 661.32 -374 662 C-375.32 662 -376.64 662 -378 662 C-378 662.66 -378 663.32 -378 664 C-379.32 664 -380.64 664 -382 664 C-382 664.66 -382 665.32 -382 666 C-382.66 666 -383.32 666 -384 666 C-384 666.66 -384 667.32 -384 668 C-385.32 668 -386.64 668 -388 668 C-388 668.66 -388 669.32 -388 670 C-388.66 670 -389.32 670 -390 670 C-390 670.66 -390 671.32 -390 672 C-391.32 672 -392.64 672 -394 672 C-394 672.66 -394 673.32 -394 674 C-394.66 674 -395.32 674 -396 674 C-396 674.66 -396 675.32 -396 676 C-397.32 676 -398.64 676 -400 676 C-400 676.66 -400 677.32 -400 678 C-400.66 678 -401.32 678 -402 678 C-402 678.66 -402 679.32 -402 680 C-403.32 680 -404.64 680 -406 680 C-406 680.66 -406 681.32 -406 682 C-407.32 682 -408.64 682 -410 682 C-410 682.66 -410 683.32 -410 684 C-410.66 684 -411.32 684 -412 684 C-412 684.66 -412 685.32 -412 686 C-413.98 686 -415.96 686 -418 686 C-418 686.66 -418 687.32 -418 688 C-419.32 688 -420.64 688 -422 688 C-422 688.66 -422 689.32 -422 690 C-423.32 690 -424.64 690 -426 690 C-426 690.66 -426 691.32 -426 692 C-427.32 692 -428.64 692 -430 692 C-430 692.66 -430 693.32 -430 694 C-431.98 694 -433.96 694 -436 694 C-436 694.66 -436 695.32 -436 696 C-437.98 696 -439.96 696 -442 696 C-442 696.66 -442 697.32 -442 698 C-443.98 698 -445.96 698 -448 698 C-448 698.66 -448 699.32 -448 700 C-450.64 700 -453.28 700 -456 700 C-456 700.66 -456 701.32 -456 702 C-460.62 702 -465.24 702 -470 702 C-470 702.66 -470 703.32 -470 704 C-486.5 704 -503 704 -520 704 C-520 703.34 -520 702.68 -520 702 C-522.64 702 -525.28 702 -528 702 C-528 701.34 -528 700.68 -528 700 C-531.3 700 -534.6 700 -538 700 C-538 699.34 -538 698.68 -538 698 C-539.98 698 -541.96 698 -544 698 C-544 697.34 -544 696.68 -544 696 C-545.98 696 -547.96 696 -550 696 C-550 695.34 -550 694.68 -550 694 C-551.98 694 -553.96 694 -556 694 C-556 693.34 -556 692.68 -556 692 C-557.32 692 -558.64 692 -560 692 C-560 691.34 -560 690.68 -560 690 C-561.98 690 -563.96 690 -566 690 C-566 689.34 -566 688.68 -566 688 C-567.32 688 -568.64 688 -570 688 C-570 687.34 -570 686.68 -570 686 C-570.66 686 -571.32 686 -572 686 C-572 685.34 -572 684.68 -572 684 C-573.32 684 -574.64 684 -576 684 C-576 683.34 -576 682.68 -576 682 C-577.32 682 -578.64 682 -580 682 C-580 681.34 -580 680.68 -580 680 C-581.32 680 -582.64 680 -584 680 C-584 679.34 -584 678.68 -584 678 C-584.66 678 -585.32 678 -586 678 C-586 677.34 -586 676.68 -586 676 C-587.32 676 -588.64 676 -590 676 C-590 675.34 -590 674.68 -590 674 C-590.66 674 -591.32 674 -592 674 C-592 673.34 -592 672.68 -592 672 C-592.66 672 -593.32 672 -594 672 C-594 671.34 -594 670.68 -594 670 C-595.32 670 -596.64 670 -598 670 C-598 669.34 -598 668.68 -598 668 C-598.66 668 -599.32 668 -600 668 C-600 667.34 -600 666.68 -600 666 C-600.66 666 -601.32 666 -602 666 C-602 665.34 -602 664.68 -602 664 C-603.32 664 -604.64 664 -606 664 C-606 663.34 -606 662.68 -606 662 C-606.66 662 -607.32 662 -608 662 C-608 661.34 -608 660.68 -608 660 C-608.66 660 -609.32 660 -610 660 C-610 659.34 -610 658.68 -610 658 C-610.66 658 -611.32 658 -612 658 C-612 657.34 -612 656.68 -612 656 C-612.66 656 -613.32 656 -614 656 C-614 655.34 -614 654.68 -614 654 C-614.66 654 -615.32 654 -616 654 C-616 653.34 -616 652.68 -616 652 C-616.66 652 -617.32 652 -618 652 C-618 651.34 -618 650.68 -618 650 C-618.66 650 -619.32 650 -620 650 C-620 649.34 -620 648.68 -620 648 C-620.66 648 -621.32 648 -622 648 C-622 647.34 -622 646.68 -622 646 C-622.66 646 -623.32 646 -624 646 C-624 645.34 -624 644.68 -624 644 C-624.66 644 -625.32 644 -626 644 C-626 642.68 -626 641.36 -626 640 C-626.66 640 -627.32 640 -628 640 C-628 639.34 -628 638.68 -628 638 C-628.66 638 -629.32 638 -630 638 C-630 637.34 -630 636.68 -630 636 C-630.66 636 -631.32 636 -632 636 C-632 635.34 -632 634.68 -632 634 C-632.66 634 -633.32 634 -634 634 C-634 632.68 -634 631.36 -634 630 C-634.66 630 -635.32 630 -636 630 C-636 629.34 -636 628.68 -636 628 C-636.66 628 -637.32 628 -638 628 C-638 626.68 -638 625.36 -638 624 C-638.66 624 -639.32 624 -640 624 C-640 623.34 -640 622.68 -640 622 C-640.66 622 -641.32 622 -642 622 C-642 620.68 -642 619.36 -642 618 C-642.66 618 -643.32 618 -644 618 C-644 616.68 -644 615.36 -644 614 C-644.66 614 -645.32 614 -646 614 C-646 613.34 -646 612.68 -646 612 C-646.66 612 -647.32 612 -648 612 C-648 610.68 -648 609.36 -648 608 C-648.66 608 -649.32 608 -650 608 C-650 606.68 -650 605.36 -650 604 C-650.66 604 -651.32 604 -652 604 C-652 602.02 -652 600.04 -652 598 C-652.66 598 -653.32 598 -654 598 C-654 596.68 -654 595.36 -654 594 C-654.66 594 -655.32 594 -656 594 C-656 592.68 -656 591.36 -656 590 C-656.66 590 -657.32 590 -658 590 C-658 587.36 -658 584.72 -658 582 C-658.66 582 -659.32 582 -660 582 C-660 580.02 -660 578.04 -660 576 C-660.66 576 -661.32 576 -662 576 C-662 574.68 -662 573.36 -662 572 C-662.66 572 -663.32 572 -664 572 C-664 569.36 -664 566.72 -664 564 C-664.66 564 -665.32 564 -666 564 C-666 560.7 -666 557.4 -666 554 C-666.66 554 -667.32 554 -668 554 C-668 549.38 -668 544.76 -668 540 C-668.66 540 -669.32 540 -670 540 C-670 525.48 -670 510.96 -670 496 C-669.34 496 -668.68 496 -668 496 C-668 492.04 -668 488.08 -668 484 C-667.34 484 -666.68 484 -666 484 C-666 481.36 -666 478.72 -666 476 C-665.34 476 -664.68 476 -664 476 C-664 473.36 -664 470.72 -664 468 C-663.34 468 -662.68 468 -662 468 C-662 466.02 -662 464.04 -662 462 C-661.34 462 -660.68 462 -660 462 C-660 460.02 -660 458.04 -660 456 C-659.34 456 -658.68 456 -658 456 C-658 454.02 -658 452.04 -658 450 C-657.34 450 -656.68 450 -656 450 C-656 448.68 -656 447.36 -656 446 C-655.34 446 -654.68 446 -654 446 C-654 444.02 -654 442.04 -654 440 C-653.34 440 -652.68 440 -652 440 C-652 438.68 -652 437.36 -652 436 C-651.34 436 -650.68 436 -650 436 C-650 434.68 -650 433.36 -650 432 C-649.34 432 -648.68 432 -648 432 C-648 430.68 -648 429.36 -648 428 C-647.34 428 -646.68 428 -646 428 C-646 427.34 -646 426.68 -646 426 C-645.34 426 -644.68 426 -644 426 C-644 424.68 -644 423.36 -644 422 C-643.34 422 -642.68 422 -642 422 C-642 420.68 -642 419.36 -642 418 C-641.34 418 -640.68 418 -640 418 C-640 417.34 -640 416.68 -640 416 C-639.34 416 -638.68 416 -638 416 C-638 414.68 -638 413.36 -638 412 C-637.34 412 -636.68 412 -636 412 C-636 411.34 -636 410.68 -636 410 C-635.34 410 -634.68 410 -634 410 C-634 409.34 -634 408.68 -634 408 C-633.34 408 -632.68 408 -632 408 C-632 406.68 -632 405.36 -632 404 C-631.34 404 -630.68 404 -630 404 C-630 403.34 -630 402.68 -630 402 C-629.34 402 -628.68 402 -628 402 C-628 401.34 -628 400.68 -628 400 C-627.34 400 -626.68 400 -626 400 C-626 398.68 -626 397.36 -626 396 C-625.34 396 -624.68 396 -624 396 C-624 395.34 -624 394.68 -624 394 C-623.34 394 -622.68 394 -622 394 C-622 393.34 -622 392.68 -622 392 C-621.34 392 -620.68 392 -620 392 C-620 391.34 -620 390.68 -620 390 C-619.34 390 -618.68 390 -618 390 C-618 389.34 -618 388.68 -618 388 C-617.34 388 -616.68 388 -616 388 C-616 387.34 -616 386.68 -616 386 C-615.34 386 -614.68 386 -614 386 C-614 385.34 -614 384.68 -614 384 C-613.34 384 -612.68 384 -612 384 C-612 383.34 -612 382.68 -612 382 C-611.34 382 -610.68 382 -610 382 C-610 381.34 -610 380.68 -610 380 C-609.34 380 -608.68 380 -608 380 C-608 379.34 -608 378.68 -608 378 C-607.34 378 -606.68 378 -606 378 C-606 377.34 -606 376.68 -606 376 C-604.68 376 -603.36 376 -602 376 C-602 375.34 -602 374.68 -602 374 C-601.34 374 -600.68 374 -600 374 C-600 373.34 -600 372.68 -600 372 C-599.34 372 -598.68 372 -598 372 C-598 371.34 -598 370.68 -598 370 C-597.34 370 -596.68 370 -596 370 C-596 369.34 -596 368.68 -596 368 C-594.68 368 -593.36 368 -592 368 C-592 367.34 -592 366.68 -592 366 C-591.34 366 -590.68 366 -590 366 C-590 365.34 -590 364.68 -590 364 C-588.68 364 -587.36 364 -586 364 C-586 363.34 -586 362.68 -586 362 C-585.34 362 -584.68 362 -584 362 C-584 361.34 -584 360.68 -584 360 C-582.68 360 -581.36 360 -580 360 C-580 359.34 -580 358.68 -580 358 C-579.34 358 -578.68 358 -578 358 C-578 357.34 -578 356.68 -578 356 C-576.68 356 -575.36 356 -574 356 C-574 355.34 -574 354.68 -574 354 C-572.68 354 -571.36 354 -570 354 C-570 353.34 -570 352.68 -570 352 C-569.34 352 -568.68 352 -568 352 C-568 351.34 -568 350.68 -568 350 C-566.68 350 -565.36 350 -564 350 C-564 349.34 -564 348.68 -564 348 C-563.34 348 -562.68 348 -562 348 C-562 347.34 -562 346.68 -562 346 C-560.68 346 -559.36 346 -558 346 C-558 345.34 -558 344.68 -558 344 C-557.34 344 -556.68 344 -556 344 C-556 343.34 -556 342.68 -556 342 C-554.68 342 -553.36 342 -552 342 C-552 341.34 -552 340.68 -552 340 C-551.34 340 -550.68 340 -550 340 C-550 339.34 -550 338.68 -550 338 C-548.68 338 -547.36 338 -546 338 C-546 337.34 -546 336.68 -546 336 C-545.34 336 -544.68 336 -544 336 C-544 335.34 -544 334.68 -544 334 C-542.68 334 -541.36 334 -540 334 C-540 333.34 -540 332.68 -540 332 C-539.34 332 -538.68 332 -538 332 C-538 331.34 -538 330.68 -538 330 C-536.68 330 -535.36 330 -534 330 C-534 329.34 -534 328.68 -534 328 C-533.34 328 -532.68 328 -532 328 C-532 327.34 -532 326.68 -532 326 C-530.68 326 -529.36 326 -528 326 C-528 325.34 -528 324.68 -528 324 C-527.34 324 -526.68 324 -526 324 C-526 323.34 -526 322.68 -526 322 C-524.68 322 -523.36 322 -522 322 C-522 321.34 -522 320.68 -522 320 C-520.68 320 -519.36 320 -518 320 C-518 319.34 -518 318.68 -518 318 C-517.34 318 -516.68 318 -516 318 C-516 317.34 -516 316.68 -516 316 C-514.68 316 -513.36 316 -512 316 C-512 315.34 -512 314.68 -512 314 C-511.34 314 -510.68 314 -510 314 C-510 313.34 -510 312.68 -510 312 C-508.68 312 -507.36 312 -506 312 C-506 311.34 -506 310.68 -506 310 C-505.34 310 -504.68 310 -504 310 C-504 309.34 -504 308.68 -504 308 C-502.68 308 -501.36 308 -500 308 C-500 307.34 -500 306.68 -500 306 C-499.34 306 -498.68 306 -498 306 C-498 305.34 -498 304.68 -498 304 C-496.68 304 -495.36 304 -494 304 C-494 303.34 -494 302.68 -494 302 C-493.34 302 -492.68 302 -492 302 C-492 301.34 -492 300.68 -492 300 C-490.68 300 -489.36 300 -488 300 C-488 299.34 -488 298.68 -488 298 C-487.34 298 -486.68 298 -486 298 C-486 297.34 -486 296.68 -486 296 C-484.68 296 -483.36 296 -482 296 C-482 295.34 -482 294.68 -482 294 C-481.34 294 -480.68 294 -480 294 C-480 293.34 -480 292.68 -480 292 C-478.68 292 -477.36 292 -476 292 C-476 291.34 -476 290.68 -476 290 C-475.34 290 -474.68 290 -474 290 C-474 289.34 -474 288.68 -474 288 C-472.68 288 -471.36 288 -470 288 C-470 287.34 -470 286.68 -470 286 C-468.68 286 -467.36 286 -466 286 C-466 285.34 -466 284.68 -466 284 C-465.34 284 -464.68 284 -464 284 C-464 283.34 -464 282.68 -464 282 C-462.68 282 -461.36 282 -460 282 C-460 281.34 -460 280.68 -460 280 C-459.34 280 -458.68 280 -458 280 C-458 279.34 -458 278.68 -458 278 C-456.68 278 -455.36 278 -454 278 C-454 277.34 -454 276.68 -454 276 C-453.34 276 -452.68 276 -452 276 C-452 275.34 -452 274.68 -452 274 C-450.68 274 -449.36 274 -448 274 C-448 273.34 -448 272.68 -448 272 C-447.34 272 -446.68 272 -446 272 C-446 271.34 -446 270.68 -446 270 C-444.68 270 -443.36 270 -442 270 C-442 269.34 -442 268.68 -442 268 C-441.34 268 -440.68 268 -440 268 C-440 267.34 -440 266.68 -440 266 C-438.68 266 -437.36 266 -436 266 C-436 265.34 -436 264.68 -436 264 C-435.34 264 -434.68 264 -434 264 C-434 263.34 -434 262.68 -434 262 C-432.68 262 -431.36 262 -430 262 C-430 261.34 -430 260.68 -430 260 C-429.34 260 -428.68 260 -428 260 C-428 259.34 -428 258.68 -428 258 C-426.68 258 -425.36 258 -424 258 C-424 257.34 -424 256.68 -424 256 C-423.34 256 -422.68 256 -422 256 C-422 255.34 -422 254.68 -422 254 C-420.68 254 -419.36 254 -418 254 C-418 253.34 -418 252.68 -418 252 C-416.68 252 -415.36 252 -414 252 C-414 251.34 -414 250.68 -414 250 C-413.34 250 -412.68 250 -412 250 C-412 249.34 -412 248.68 -412 248 C-410.68 248 -409.36 248 -408 248 C-408 247.34 -408 246.68 -408 246 C-407.34 246 -406.68 246 -406 246 C-406 245.34 -406 244.68 -406 244 C-404.68 244 -403.36 244 -402 244 C-402 243.34 -402 242.68 -402 242 C-401.34 242 -400.68 242 -400 242 C-400 241.34 -400 240.68 -400 240 C-398.68 240 -397.36 240 -396 240 C-396 239.34 -396 238.68 -396 238 C-395.34 238 -394.68 238 -394 238 C-394 237.34 -394 236.68 -394 236 C-392.68 236 -391.36 236 -390 236 C-390 235.34 -390 234.68 -390 234 C-389.34 234 -388.68 234 -388 234 C-388 233.34 -388 232.68 -388 232 C-386.68 232 -385.36 232 -384 232 C-384 231.34 -384 230.68 -384 230 C-383.34 230 -382.68 230 -382 230 C-382 229.34 -382 228.68 -382 228 C-380.68 228 -379.36 228 -378 228 C-378 227.34 -378 226.68 -378 226 C-377.34 226 -376.68 226 -376 226 C-376 225.34 -376 224.68 -376 224 C-374.68 224 -373.36 224 -372 224 C-372 223.34 -372 222.68 -372 222 C-371.34 222 -370.68 222 -370 222 C-370 221.34 -370 220.68 -370 220 C-368.68 220 -367.36 220 -366 220 C-366 219.34 -366 218.68 -366 218 C-364.68 218 -363.36 218 -362 218 C-362 217.34 -362 216.68 -362 216 C-361.34 216 -360.68 216 -360 216 C-360 215.34 -360 214.68 -360 214 C-358.68 214 -357.36 214 -356 214 C-356 213.34 -356 212.68 -356 212 C-355.34 212 -354.68 212 -354 212 C-354 211.34 -354 210.68 -354 210 C-352.68 210 -351.36 210 -350 210 C-350 209.34 -350 208.68 -350 208 C-349.34 208 -348.68 208 -348 208 C-348 207.34 -348 206.68 -348 206 C-346.68 206 -345.36 206 -344 206 C-344 205.34 -344 204.68 -344 204 C-343.34 204 -342.68 204 -342 204 C-342 203.34 -342 202.68 -342 202 C-340.68 202 -339.36 202 -338 202 C-338 201.34 -338 200.68 -338 200 C-337.34 200 -336.68 200 -336 200 C-336 199.34 -336 198.68 -336 198 C-334.68 198 -333.36 198 -332 198 C-332 197.34 -332 196.68 -332 196 C-331.34 196 -330.68 196 -330 196 C-330 195.34 -330 194.68 -330 194 C-328.68 194 -327.36 194 -326 194 C-326 193.34 -326 192.68 -326 192 C-325.34 192 -324.68 192 -324 192 C-324 191.34 -324 190.68 -324 190 C-322.68 190 -321.36 190 -320 190 C-320 189.34 -320 188.68 -320 188 C-319.34 188 -318.68 188 -318 188 C-318 187.34 -318 186.68 -318 186 C-316.68 186 -315.36 186 -314 186 C-314 185.34 -314 184.68 -314 184 C-312.68 184 -311.36 184 -310 184 C-310 183.34 -310 182.68 -310 182 C-309.34 182 -308.68 182 -308 182 C-308 181.34 -308 180.68 -308 180 C-306.68 180 -305.36 180 -304 180 C-304 179.34 -304 178.68 -304 178 C-303.34 178 -302.68 178 -302 178 C-302 177.34 -302 176.68 -302 176 C-300.68 176 -299.36 176 -298 176 C-298 175.34 -298 174.68 -298 174 C-297.34 174 -296.68 174 -296 174 C-296 173.34 -296 172.68 -296 172 C-294.68 172 -293.36 172 -292 172 C-292 171.34 -292 170.68 -292 170 C-291.34 170 -290.68 170 -290 170 C-290 169.34 -290 168.68 -290 168 C-288.68 168 -287.36 168 -286 168 C-286 167.34 -286 166.68 -286 166 C-285.34 166 -284.68 166 -284 166 C-284 165.34 -284 164.68 -284 164 C-282.68 164 -281.36 164 -280 164 C-280 163.34 -280 162.68 -280 162 C-279.34 162 -278.68 162 -278 162 C-278 161.34 -278 160.68 -278 160 C-276.68 160 -275.36 160 -274 160 C-274 159.34 -274 158.68 -274 158 C-273.34 158 -272.68 158 -272 158 C-272 157.34 -272 156.68 -272 156 C-270.68 156 -269.36 156 -268 156 C-268 155.34 -268 154.68 -268 154 C-267.34 154 -266.68 154 -266 154 C-266 153.34 -266 152.68 -266 152 C-264.68 152 -263.36 152 -262 152 C-262 151.34 -262 150.68 -262 150 C-260.68 150 -259.36 150 -258 150 C-258 149.34 -258 148.68 -258 148 C-257.34 148 -256.68 148 -256 148 C-256 147.34 -256 146.68 -256 146 C-254.68 146 -253.36 146 -252 146 C-252 145.34 -252 144.68 -252 144 C-251.34 144 -250.68 144 -250 144 C-250 143.34 -250 142.68 -250 142 C-248.68 142 -247.36 142 -246 142 C-246 141.34 -246 140.68 -246 140 C-245.34 140 -244.68 140 -244 140 C-244 139.34 -244 138.68 -244 138 C-242.68 138 -241.36 138 -240 138 C-240 137.34 -240 136.68 -240 136 C-239.34 136 -238.68 136 -238 136 C-238 135.34 -238 134.68 -238 134 C-236.68 134 -235.36 134 -234 134 C-234 133.34 -234 132.68 -234 132 C-233.34 132 -232.68 132 -232 132 C-232 131.34 -232 130.68 -232 130 C-230.68 130 -229.36 130 -228 130 C-228 129.34 -228 128.68 -228 128 C-227.34 128 -226.68 128 -226 128 C-226 127.34 -226 126.68 -226 126 C-224.68 126 -223.36 126 -222 126 C-222 125.34 -222 124.68 -222 124 C-221.34 124 -220.68 124 -220 124 C-220 123.34 -220 122.68 -220 122 C-218.68 122 -217.36 122 -216 122 C-216 121.34 -216 120.68 -216 120 C-215.34 120 -214.68 120 -214 120 C-214 119.34 -214 118.68 -214 118 C-212.68 118 -211.36 118 -210 118 C-210 117.34 -210 116.68 -210 116 C-208.68 116 -207.36 116 -206 116 C-206 115.34 -206 114.68 -206 114 C-205.34 114 -204.68 114 -204 114 C-204 113.34 -204 112.68 -204 112 C-202.68 112 -201.36 112 -200 112 C-200 111.34 -200 110.68 -200 110 C-199.34 110 -198.68 110 -198 110 C-198 109.34 -198 108.68 -198 108 C-196.68 108 -195.36 108 -194 108 C-194 107.34 -194 106.68 -194 106 C-193.34 106 -192.68 106 -192 106 C-192 105.34 -192 104.68 -192 104 C-190.68 104 -189.36 104 -188 104 C-188 103.34 -188 102.68 -188 102 C-187.34 102 -186.68 102 -186 102 C-186 101.34 -186 100.68 -186 100 C-184.68 100 -183.36 100 -182 100 C-182 99.34 -182 98.68 -182 98 C-181.34 98 -180.68 98 -180 98 C-180 97.34 -180 96.68 -180 96 C-178.68 96 -177.36 96 -176 96 C-176 95.34 -176 94.68 -176 94 C-175.34 94 -174.68 94 -174 94 C-174 93.34 -174 92.68 -174 92 C-172.68 92 -171.36 92 -170 92 C-170 91.34 -170 90.68 -170 90 C-169.34 90 -168.68 90 -168 90 C-168 89.34 -168 88.68 -168 88 C-166.68 88 -165.36 88 -164 88 C-164 87.34 -164 86.68 -164 86 C-163.34 86 -162.68 86 -162 86 C-162 85.34 -162 84.68 -162 84 C-160.68 84 -159.36 84 -158 84 C-158 83.34 -158 82.68 -158 82 C-156.68 82 -155.36 82 -154 82 C-154 81.34 -154 80.68 -154 80 C-153.34 80 -152.68 80 -152 80 C-152 79.34 -152 78.68 -152 78 C-150.68 78 -149.36 78 -148 78 C-148 77.34 -148 76.68 -148 76 C-147.34 76 -146.68 76 -146 76 C-146 75.34 -146 74.68 -146 74 C-144.68 74 -143.36 74 -142 74 C-142 73.34 -142 72.68 -142 72 C-141.34 72 -140.68 72 -140 72 C-140 71.34 -140 70.68 -140 70 C-138.68 70 -137.36 70 -136 70 C-136 69.34 -136 68.68 -136 68 C-135.34 68 -134.68 68 -134 68 C-134 67.34 -134 66.68 -134 66 C-132.68 66 -131.36 66 -130 66 C-130 65.34 -130 64.68 -130 64 C-129.34 64 -128.68 64 -128 64 C-128 63.34 -128 62.68 -128 62 C-126.68 62 -125.36 62 -124 62 C-124 61.34 -124 60.68 -124 60 C-123.34 60 -122.68 60 -122 60 C-122 59.34 -122 58.68 -122 58 C-120.68 58 -119.36 58 -118 58 C-118 57.34 -118 56.68 -118 56 C-117.34 56 -116.68 56 -116 56 C-116 55.34 -116 54.68 -116 54 C-114.68 54 -113.36 54 -112 54 C-112 53.34 -112 52.68 -112 52 C-111.34 52 -110.68 52 -110 52 C-110 51.34 -110 50.68 -110 50 C-108.68 50 -107.36 50 -106 50 C-106 49.34 -106 48.68 -106 48 C-104.68 48 -103.36 48 -102 48 C-102 47.34 -102 46.68 -102 46 C-101.34 46 -100.68 46 -100 46 C-100 45.34 -100 44.68 -100 44 C-98.68 44 -97.36 44 -96 44 C-96 43.34 -96 42.68 -96 42 C-95.34 42 -94.68 42 -94 42 C-94 41.34 -94 40.68 -94 40 C-92.68 40 -91.36 40 -90 40 C-90 39.34 -90 38.68 -90 38 C-89.34 38 -88.68 38 -88 38 C-88 37.34 -88 36.68 -88 36 C-86.68 36 -85.36 36 -84 36 C-84 35.34 -84 34.68 -84 34 C-83.34 34 -82.68 34 -82 34 C-82 33.34 -82 32.68 -82 32 C-80.68 32 -79.36 32 -78 32 C-78 31.34 -78 30.68 -78 30 C-77.34 30 -76.68 30 -76 30 C-76 29.34 -76 28.68 -76 28 C-74.68 28 -73.36 28 -72 28 C-72 27.34 -72 26.68 -72 26 C-71.34 26 -70.68 26 -70 26 C-70 25.34 -70 24.68 -70 24 C-68.68 24 -67.36 24 -66 24 C-66 23.34 -66 22.68 -66 22 C-64.68 22 -63.36 22 -62 22 C-62 21.34 -62 20.68 -62 20 C-60.68 20 -59.36 20 -58 20 C-58 19.34 -58 18.68 -58 18 C-56.68 18 -55.36 18 -54 18 C-54 17.34 -54 16.68 -54 16 C-52.68 16 -51.36 16 -50 16 C-50 15.34 -50 14.68 -50 14 C-48.68 14 -47.36 14 -46 14 C-46 13.34 -46 12.68 -46 12 C-43.36 12 -40.72 12 -38 12 C-38 11.34 -38 10.68 -38 10 C-37.34 10 -36.68 10 -36 10 C-36 9.34 -36 8.68 -36 8 C-32.7 8 -29.4 8 -26 8 C-26 7.34 -26 6.68 -26 6 C-24.68 6 -23.36 6 -22 6 C-22 5.34 -22 4.68 -22 4 C-19.36 4 -16.72 4 -14 4 C-14 3.34 -14 2.68 -14 2 C-9.38 2 -4.76 2 0 2 C0 1.34 0 0.68 0 0 Z " fill="#E74060" transform="translate(704,20)"/>
<path d="M0 0 C17.82 0 35.64 0 54 0 C54 0.66 54 1.32 54 2 C57.3 2 60.6 2 64 2 C64 2.66 64 3.32 64 4 C66.64 4 69.28 4 72 4 C72 4.66 72 5.32 72 6 C73.32 6 74.64 6 76 6 C76 6.66 76 7.32 76 8 C78.64 8 81.28 8 84 8 C84 8.66 84 9.32 84 10 C85.32 10 86.64 10 88 10 C88 10.66 88 11.32 88 12 C89.98 12 91.96 12 94 12 C94 12.66 94 13.32 94 14 C95.32 14 96.64 14 98 14 C98 14.66 98 15.32 98 16 C99.32 16 100.64 16 102 16 C102 16.66 102 17.32 102 18 C103.32 18 104.64 18 106 18 C106 18.66 106 19.32 106 20 C107.32 20 108.64 20 110 20 C110 20.66 110 21.32 110 22 C111.32 22 112.64 22 114 22 C114 22.66 114 23.32 114 24 C114.66 24 115.32 24 116 24 C116 24.66 116 25.32 116 26 C117.32 26 118.64 26 120 26 C120 26.66 120 27.32 120 28 C120.66 28 121.32 28 122 28 C122 28.66 122 29.32 122 30 C123.32 30 124.64 30 126 30 C126 30.66 126 31.32 126 32 C126.66 32 127.32 32 128 32 C128 32.66 128 33.32 128 34 C129.32 34 130.64 34 132 34 C132 34.66 132 35.32 132 36 C132.66 36 133.32 36 134 36 C134 36.66 134 37.32 134 38 C134.66 38 135.32 38 136 38 C136 38.66 136 39.32 136 40 C136.66 40 137.32 40 138 40 C138 40.66 138 41.32 138 42 C138.66 42 139.32 42 140 42 C140 42.66 140 43.32 140 44 C140.66 44 141.32 44 142 44 C142 44.66 142 45.32 142 46 C143.32 46 144.64 46 146 46 C146 46.66 146 47.32 146 48 C146.66 48 147.32 48 148 48 C148 48.66 148 49.32 148 50 C148.66 50 149.32 50 150 50 C150 50.66 150 51.32 150 52 C150.66 52 151.32 52 152 52 C152 52.66 152 53.32 152 54 C152.66 54 153.32 54 154 54 C154 55.32 154 56.64 154 58 C154.66 58 155.32 58 156 58 C156 58.66 156 59.32 156 60 C156.66 60 157.32 60 158 60 C158 60.66 158 61.32 158 62 C158.66 62 159.32 62 160 62 C160 62.66 160 63.32 160 64 C160.66 64 161.32 64 162 64 C162 64.66 162 65.32 162 66 C162.66 66 163.32 66 164 66 C164 67.32 164 68.64 164 70 C164.66 70 165.32 70 166 70 C166 70.66 166 71.32 166 72 C166.66 72 167.32 72 168 72 C168 72.66 168 73.32 168 74 C168.66 74 169.32 74 170 74 C170 75.32 170 76.64 170 78 C170.66 78 171.32 78 172 78 C172 78.66 172 79.32 172 80 C172.66 80 173.32 80 174 80 C174 81.32 174 82.64 174 84 C174.66 84 175.32 84 176 84 C176 85.32 176 86.64 176 88 C176.66 88 177.32 88 178 88 C178 88.66 178 89.32 178 90 C178.66 90 179.32 90 180 90 C180 91.32 180 92.64 180 94 C180.66 94 181.32 94 182 94 C182 95.32 182 96.64 182 98 C182.66 98 183.32 98 184 98 C184 99.32 184 100.64 184 102 C184.66 102 185.32 102 186 102 C186 103.98 186 105.96 186 108 C186.66 108 187.32 108 188 108 C188 109.32 188 110.64 188 112 C188.66 112 189.32 112 190 112 C190 113.98 190 115.96 190 118 C190.66 118 191.32 118 192 118 C192 119.32 192 120.64 192 122 C192.66 122 193.32 122 194 122 C194 123.98 194 125.96 194 128 C194.66 128 195.32 128 196 128 C196 130.64 196 133.28 196 136 C196.66 136 197.32 136 198 136 C198 139.3 198 142.6 198 146 C198.66 146 199.32 146 200 146 C200 149.3 200 152.6 200 156 C200.66 156 201.32 156 202 156 C202 173.82 202 191.64 202 210 C201.34 210 200.68 210 200 210 C200 214.62 200 219.24 200 224 C199.34 224 198.68 224 198 224 C198 226.64 198 229.28 198 232 C197.34 232 196.68 232 196 232 C196 233.98 196 235.96 196 238 C195.34 238 194.68 238 194 238 C194 239.98 194 241.96 194 244 C193.34 244 192.68 244 192 244 C192 245.98 192 247.96 192 250 C191.34 250 190.68 250 190 250 C190 251.98 190 253.96 190 256 C189.34 256 188.68 256 188 256 C188 257.32 188 258.64 188 260 C187.34 260 186.68 260 186 260 C186 261.32 186 262.64 186 264 C185.34 264 184.68 264 184 264 C184 265.32 184 266.64 184 268 C183.34 268 182.68 268 182 268 C182 269.32 182 270.64 182 272 C181.34 272 180.68 272 180 272 C180 273.32 180 274.64 180 276 C179.34 276 178.68 276 178 276 C178 277.32 178 278.64 178 280 C177.34 280 176.68 280 176 280 C176 281.32 176 282.64 176 284 C175.34 284 174.68 284 174 284 C174 284.66 174 285.32 174 286 C173.34 286 172.68 286 172 286 C172 287.32 172 288.64 172 290 C171.34 290 170.68 290 170 290 C170 290.66 170 291.32 170 292 C169.34 292 168.68 292 168 292 C168 293.32 168 294.64 168 296 C167.34 296 166.68 296 166 296 C166 296.66 166 297.32 166 298 C165.34 298 164.68 298 164 298 C164 298.66 164 299.32 164 300 C163.34 300 162.68 300 162 300 C162 300.66 162 301.32 162 302 C161.34 302 160.68 302 160 302 C160 303.32 160 304.64 160 306 C159.34 306 158.68 306 158 306 C158 306.66 158 307.32 158 308 C157.34 308 156.68 308 156 308 C156 308.66 156 309.32 156 310 C155.34 310 154.68 310 154 310 C154 310.66 154 311.32 154 312 C153.34 312 152.68 312 152 312 C152 312.66 152 313.32 152 314 C151.34 314 150.68 314 150 314 C150 314.66 150 315.32 150 316 C149.34 316 148.68 316 148 316 C148 316.66 148 317.32 148 318 C147.34 318 146.68 318 146 318 C146 318.66 146 319.32 146 320 C145.34 320 144.68 320 144 320 C144 320.66 144 321.32 144 322 C143.34 322 142.68 322 142 322 C142 322.66 142 323.32 142 324 C141.34 324 140.68 324 140 324 C140 324.66 140 325.32 140 326 C139.34 326 138.68 326 138 326 C138 326.66 138 327.32 138 328 C136.68 328 135.36 328 134 328 C134 328.66 134 329.32 134 330 C133.34 330 132.68 330 132 330 C132 330.66 132 331.32 132 332 C131.34 332 130.68 332 130 332 C130 332.66 130 333.32 130 334 C129.34 334 128.68 334 128 334 C128 334.66 128 335.32 128 336 C126.68 336 125.36 336 124 336 C124 336.66 124 337.32 124 338 C123.34 338 122.68 338 122 338 C122 338.66 122 339.32 122 340 C120.68 340 119.36 340 118 340 C118 340.66 118 341.32 118 342 C117.34 342 116.68 342 116 342 C116 342.66 116 343.32 116 344 C114.68 344 113.36 344 112 344 C112 344.66 112 345.32 112 346 C110.68 346 109.36 346 108 346 C108 346.66 108 347.32 108 348 C107.34 348 106.68 348 106 348 C106 348.66 106 349.32 106 350 C104.68 350 103.36 350 102 350 C102 350.66 102 351.32 102 352 C101.34 352 100.68 352 100 352 C100 352.66 100 353.32 100 354 C98.68 354 97.36 354 96 354 C96 354.66 96 355.32 96 356 C95.34 356 94.68 356 94 356 C94 356.66 94 357.32 94 358 C92.68 358 91.36 358 90 358 C90 358.66 90 359.32 90 360 C89.34 360 88.68 360 88 360 C88 360.66 88 361.32 88 362 C86.68 362 85.36 362 84 362 C84 362.66 84 363.32 84 364 C83.34 364 82.68 364 82 364 C82 364.66 82 365.32 82 366 C80.68 366 79.36 366 78 366 C78 366.66 78 367.32 78 368 C77.34 368 76.68 368 76 368 C76 368.66 76 369.32 76 370 C74.68 370 73.36 370 72 370 C72 370.66 72 371.32 72 372 C71.34 372 70.68 372 70 372 C70 372.66 70 373.32 70 374 C68.68 374 67.36 374 66 374 C66 374.66 66 375.32 66 376 C65.34 376 64.68 376 64 376 C64 376.66 64 377.32 64 378 C62.68 378 61.36 378 60 378 C60 378.66 60 379.32 60 380 C59.34 380 58.68 380 58 380 C58 380.66 58 381.32 58 382 C56.68 382 55.36 382 54 382 C54 382.66 54 383.32 54 384 C52.68 384 51.36 384 50 384 C50 384.66 50 385.32 50 386 C49.34 386 48.68 386 48 386 C48 386.66 48 387.32 48 388 C46.68 388 45.36 388 44 388 C44 388.66 44 389.32 44 390 C43.34 390 42.68 390 42 390 C42 390.66 42 391.32 42 392 C40.68 392 39.36 392 38 392 C38 392.66 38 393.32 38 394 C37.34 394 36.68 394 36 394 C36 394.66 36 395.32 36 396 C34.68 396 33.36 396 32 396 C32 396.66 32 397.32 32 398 C31.34 398 30.68 398 30 398 C30 398.66 30 399.32 30 400 C28.68 400 27.36 400 26 400 C26 400.66 26 401.32 26 402 C25.34 402 24.68 402 24 402 C24 402.66 24 403.32 24 404 C22.68 404 21.36 404 20 404 C20 404.66 20 405.32 20 406 C19.34 406 18.68 406 18 406 C18 406.66 18 407.32 18 408 C16.68 408 15.36 408 14 408 C14 408.66 14 409.32 14 410 C13.34 410 12.68 410 12 410 C12 410.66 12 411.32 12 412 C10.68 412 9.36 412 8 412 C8 412.66 8 413.32 8 414 C7.34 414 6.68 414 6 414 C6 414.66 6 415.32 6 416 C4.68 416 3.36 416 2 416 C2 416.66 2 417.32 2 418 C0.68 418 -0.64 418 -2 418 C-2 418.66 -2 419.32 -2 420 C-2.66 420 -3.32 420 -4 420 C-4 420.66 -4 421.32 -4 422 C-5.32 422 -6.64 422 -8 422 C-8 422.66 -8 423.32 -8 424 C-8.66 424 -9.32 424 -10 424 C-10 424.66 -10 425.32 -10 426 C-11.32 426 -12.64 426 -14 426 C-14 426.66 -14 427.32 -14 428 C-14.66 428 -15.32 428 -16 428 C-16 428.66 -16 429.32 -16 430 C-17.32 430 -18.64 430 -20 430 C-20 430.66 -20 431.32 -20 432 C-20.66 432 -21.32 432 -22 432 C-22 432.66 -22 433.32 -22 434 C-23.32 434 -24.64 434 -26 434 C-26 434.66 -26 435.32 -26 436 C-26.66 436 -27.32 436 -28 436 C-28 436.66 -28 437.32 -28 438 C-29.32 438 -30.64 438 -32 438 C-32 438.66 -32 439.32 -32 440 C-32.66 440 -33.32 440 -34 440 C-34 440.66 -34 441.32 -34 442 C-35.32 442 -36.64 442 -38 442 C-38 442.66 -38 443.32 -38 444 C-38.66 444 -39.32 444 -40 444 C-40 444.66 -40 445.32 -40 446 C-41.32 446 -42.64 446 -44 446 C-44 446.66 -44 447.32 -44 448 C-44.66 448 -45.32 448 -46 448 C-46 448.66 -46 449.32 -46 450 C-47.32 450 -48.64 450 -50 450 C-50 450.66 -50 451.32 -50 452 C-51.32 452 -52.64 452 -54 452 C-54 452.66 -54 453.32 -54 454 C-54.66 454 -55.32 454 -56 454 C-56 454.66 -56 455.32 -56 456 C-57.32 456 -58.64 456 -60 456 C-60 456.66 -60 457.32 -60 458 C-60.66 458 -61.32 458 -62 458 C-62 458.66 -62 459.32 -62 460 C-63.32 460 -64.64 460 -66 460 C-66 460.66 -66 461.32 -66 462 C-66.66 462 -67.32 462 -68 462 C-68 462.66 -68 463.32 -68 464 C-69.32 464 -70.64 464 -72 464 C-72 464.66 -72 465.32 -72 466 C-72.66 466 -73.32 466 -74 466 C-74 466.66 -74 467.32 -74 468 C-75.32 468 -76.64 468 -78 468 C-78 468.66 -78 469.32 -78 470 C-78.66 470 -79.32 470 -80 470 C-80 470.66 -80 471.32 -80 472 C-81.32 472 -82.64 472 -84 472 C-84 472.66 -84 473.32 -84 474 C-84.66 474 -85.32 474 -86 474 C-86 474.66 -86 475.32 -86 476 C-87.32 476 -88.64 476 -90 476 C-90 476.66 -90 477.32 -90 478 C-90.66 478 -91.32 478 -92 478 C-92 478.66 -92 479.32 -92 480 C-93.32 480 -94.64 480 -96 480 C-96 480.66 -96 481.32 -96 482 C-96.66 482 -97.32 482 -98 482 C-98 482.66 -98 483.32 -98 484 C-99.32 484 -100.64 484 -102 484 C-102 484.66 -102 485.32 -102 486 C-103.32 486 -104.64 486 -106 486 C-106 486.66 -106 487.32 -106 488 C-106.66 488 -107.32 488 -108 488 C-108 488.66 -108 489.32 -108 490 C-109.32 490 -110.64 490 -112 490 C-112 490.66 -112 491.32 -112 492 C-112.66 492 -113.32 492 -114 492 C-114 492.66 -114 493.32 -114 494 C-115.32 494 -116.64 494 -118 494 C-118 494.66 -118 495.32 -118 496 C-118.66 496 -119.32 496 -120 496 C-120 496.66 -120 497.32 -120 498 C-121.32 498 -122.64 498 -124 498 C-124 498.66 -124 499.32 -124 500 C-124.66 500 -125.32 500 -126 500 C-126 500.66 -126 501.32 -126 502 C-127.32 502 -128.64 502 -130 502 C-130 502.66 -130 503.32 -130 504 C-130.66 504 -131.32 504 -132 504 C-132 504.66 -132 505.32 -132 506 C-133.32 506 -134.64 506 -136 506 C-136 506.66 -136 507.32 -136 508 C-136.66 508 -137.32 508 -138 508 C-138 508.66 -138 509.32 -138 510 C-139.32 510 -140.64 510 -142 510 C-142 510.66 -142 511.32 -142 512 C-142.66 512 -143.32 512 -144 512 C-144 512.66 -144 513.32 -144 514 C-145.32 514 -146.64 514 -148 514 C-148 514.66 -148 515.32 -148 516 C-148.66 516 -149.32 516 -150 516 C-150 516.66 -150 517.32 -150 518 C-151.32 518 -152.64 518 -154 518 C-154 518.66 -154 519.32 -154 520 C-155.32 520 -156.64 520 -158 520 C-158 520.66 -158 521.32 -158 522 C-158.66 522 -159.32 522 -160 522 C-160 522.66 -160 523.32 -160 524 C-161.32 524 -162.64 524 -164 524 C-164 524.66 -164 525.32 -164 526 C-164.66 526 -165.32 526 -166 526 C-166 526.66 -166 527.32 -166 528 C-167.32 528 -168.64 528 -170 528 C-170 528.66 -170 529.32 -170 530 C-170.66 530 -171.32 530 -172 530 C-172 530.66 -172 531.32 -172 532 C-173.32 532 -174.64 532 -176 532 C-176 532.66 -176 533.32 -176 534 C-176.66 534 -177.32 534 -178 534 C-178 534.66 -178 535.32 -178 536 C-179.32 536 -180.64 536 -182 536 C-182 536.66 -182 537.32 -182 538 C-182.66 538 -183.32 538 -184 538 C-184 538.66 -184 539.32 -184 540 C-185.32 540 -186.64 540 -188 540 C-188 540.66 -188 541.32 -188 542 C-188.66 542 -189.32 542 -190 542 C-190 542.66 -190 543.32 -190 544 C-191.32 544 -192.64 544 -194 544 C-194 544.66 -194 545.32 -194 546 C-194.66 546 -195.32 546 -196 546 C-196 546.66 -196 547.32 -196 548 C-197.32 548 -198.64 548 -200 548 C-200 548.66 -200 549.32 -200 550 C-200.66 550 -201.32 550 -202 550 C-202 550.66 -202 551.32 -202 552 C-203.32 552 -204.64 552 -206 552 C-206 552.66 -206 553.32 -206 554 C-207.32 554 -208.64 554 -210 554 C-210 554.66 -210 555.32 -210 556 C-210.66 556 -211.32 556 -212 556 C-212 556.66 -212 557.32 -212 558 C-213.32 558 -214.64 558 -216 558 C-216 558.66 -216 559.32 -216 560 C-216.66 560 -217.32 560 -218 560 C-218 560.66 -218 561.32 -218 562 C-219.32 562 -220.64 562 -222 562 C-222 562.66 -222 563.32 -222 564 C-222.66 564 -223.32 564 -224 564 C-224 564.66 -224 565.32 -224 566 C-225.32 566 -226.64 566 -228 566 C-228 566.66 -228 567.32 -228 568 C-228.66 568 -229.32 568 -230 568 C-230 568.66 -230 569.32 -230 570 C-231.32 570 -232.64 570 -234 570 C-234 570.66 -234 571.32 -234 572 C-234.66 572 -235.32 572 -236 572 C-236 572.66 -236 573.32 -236 574 C-237.32 574 -238.64 574 -240 574 C-240 574.66 -240 575.32 -240 576 C-240.66 576 -241.32 576 -242 576 C-242 576.66 -242 577.32 -242 578 C-243.32 578 -244.64 578 -246 578 C-246 578.66 -246 579.32 -246 580 C-246.66 580 -247.32 580 -248 580 C-248 580.66 -248 581.32 -248 582 C-249.32 582 -250.64 582 -252 582 C-252 582.66 -252 583.32 -252 584 C-252.66 584 -253.32 584 -254 584 C-254 584.66 -254 585.32 -254 586 C-255.32 586 -256.64 586 -258 586 C-258 586.66 -258 587.32 -258 588 C-259.32 588 -260.64 588 -262 588 C-262 588.66 -262 589.32 -262 590 C-262.66 590 -263.32 590 -264 590 C-264 590.66 -264 591.32 -264 592 C-265.32 592 -266.64 592 -268 592 C-268 592.66 -268 593.32 -268 594 C-268.66 594 -269.32 594 -270 594 C-270 594.66 -270 595.32 -270 596 C-271.32 596 -272.64 596 -274 596 C-274 596.66 -274 597.32 -274 598 C-274.66 598 -275.32 598 -276 598 C-276 598.66 -276 599.32 -276 600 C-277.32 600 -278.64 600 -280 600 C-280 600.66 -280 601.32 -280 602 C-280.66 602 -281.32 602 -282 602 C-282 602.66 -282 603.32 -282 604 C-283.32 604 -284.64 604 -286 604 C-286 604.66 -286 605.32 -286 606 C-286.66 606 -287.32 606 -288 606 C-288 606.66 -288 607.32 -288 608 C-289.32 608 -290.64 608 -292 608 C-292 608.66 -292 609.32 -292 610 C-292.66 610 -293.32 610 -294 610 C-294 610.66 -294 611.32 -294 612 C-295.32 612 -296.64 612 -298 612 C-298 612.66 -298 613.32 -298 614 C-298.66 614 -299.32 614 -300 614 C-300 614.66 -300 615.32 -300 616 C-301.32 616 -302.64 616 -304 616 C-304 616.66 -304 617.32 -304 618 C-304.66 618 -305.32 618 -306 618 C-306 618.66 -306 619.32 -306 620 C-307.32 620 -308.64 620 -310 620 C-310 620.66 -310 621.32 -310 622 C-310.66 622 -311.32 622 -312 622 C-312 622.66 -312 623.32 -312 624 C-313.32 624 -314.64 624 -316 624 C-316 624.66 -316 625.32 -316 626 C-317.32 626 -318.64 626 -320 626 C-320 626.66 -320 627.32 -320 628 C-320.66 628 -321.32 628 -322 628 C-322 628.66 -322 629.32 -322 630 C-323.32 630 -324.64 630 -326 630 C-326 630.66 -326 631.32 -326 632 C-326.66 632 -327.32 632 -328 632 C-328 632.66 -328 633.32 -328 634 C-329.32 634 -330.64 634 -332 634 C-332 634.66 -332 635.32 -332 636 C-332.66 636 -333.32 636 -334 636 C-334 636.66 -334 637.32 -334 638 C-335.32 638 -336.64 638 -338 638 C-338 638.66 -338 639.32 -338 640 C-338.66 640 -339.32 640 -340 640 C-340 640.66 -340 641.32 -340 642 C-341.32 642 -342.64 642 -344 642 C-344 642.66 -344 643.32 -344 644 C-344.66 644 -345.32 644 -346 644 C-346 644.66 -346 645.32 -346 646 C-347.32 646 -348.64 646 -350 646 C-350 646.66 -350 647.32 -350 648 C-350.66 648 -351.32 648 -352 648 C-352 648.66 -352 649.32 -352 650 C-353.32 650 -354.64 650 -356 650 C-356 650.66 -356 651.32 -356 652 C-356.66 652 -357.32 652 -358 652 C-358 652.66 -358 653.32 -358 654 C-359.32 654 -360.64 654 -362 654 C-362 654.66 -362 655.32 -362 656 C-362.66 656 -363.32 656 -364 656 C-364 656.66 -364 657.32 -364 658 C-365.32 658 -366.64 658 -368 658 C-368 658.66 -368 659.32 -368 660 C-369.32 660 -370.64 660 -372 660 C-372 660.66 -372 661.32 -372 662 C-372.66 662 -373.32 662 -374 662 C-374 662.66 -374 663.32 -374 664 C-375.32 664 -376.64 664 -378 664 C-378 664.66 -378 665.32 -378 666 C-378.66 666 -379.32 666 -380 666 C-380 666.66 -380 667.32 -380 668 C-381.32 668 -382.64 668 -384 668 C-384 668.66 -384 669.32 -384 670 C-384.66 670 -385.32 670 -386 670 C-386 670.66 -386 671.32 -386 672 C-387.32 672 -388.64 672 -390 672 C-390 672.66 -390 673.32 -390 674 C-390.66 674 -391.32 674 -392 674 C-392 674.66 -392 675.32 -392 676 C-393.32 676 -394.64 676 -396 676 C-396 676.66 -396 677.32 -396 678 C-396.66 678 -397.32 678 -398 678 C-398 678.66 -398 679.32 -398 680 C-399.32 680 -400.64 680 -402 680 C-402 680.66 -402 681.32 -402 682 C-403.32 682 -404.64 682 -406 682 C-406 682.66 -406 683.32 -406 684 C-407.32 684 -408.64 684 -410 684 C-410 684.66 -410 685.32 -410 686 C-411.32 686 -412.64 686 -414 686 C-414 686.66 -414 687.32 -414 688 C-415.32 688 -416.64 688 -418 688 C-418 688.66 -418 689.32 -418 690 C-419.32 690 -420.64 690 -422 690 C-422 690.66 -422 691.32 -422 692 C-423.98 692 -425.96 692 -428 692 C-428 692.66 -428 693.32 -428 694 C-429.98 694 -431.96 694 -434 694 C-434 694.66 -434 695.32 -434 696 C-435.98 696 -437.96 696 -440 696 C-440 696.66 -440 697.32 -440 698 C-442.64 698 -445.28 698 -448 698 C-448 698.66 -448 699.32 -448 700 C-450.64 700 -453.28 700 -456 700 C-456 700.66 -456 701.32 -456 702 C-459.96 702 -463.92 702 -468 702 C-468 702.66 -468 703.32 -468 704 C-481.86 704 -495.72 704 -510 704 C-510 703.34 -510 702.68 -510 702 C-513.3 702 -516.6 702 -520 702 C-520 701.34 -520 700.68 -520 700 C-523.3 700 -526.6 700 -530 700 C-530 699.34 -530 698.68 -530 698 C-531.98 698 -533.96 698 -536 698 C-536 697.34 -536 696.68 -536 696 C-537.98 696 -539.96 696 -542 696 C-542 695.34 -542 694.68 -542 694 C-543.98 694 -545.96 694 -548 694 C-548 693.34 -548 692.68 -548 692 C-549.32 692 -550.64 692 -552 692 C-552 691.34 -552 690.68 -552 690 C-553.98 690 -555.96 690 -558 690 C-558 689.34 -558 688.68 -558 688 C-559.32 688 -560.64 688 -562 688 C-562 687.34 -562 686.68 -562 686 C-563.32 686 -564.64 686 -566 686 C-566 685.34 -566 684.68 -566 684 C-567.32 684 -568.64 684 -570 684 C-570 683.34 -570 682.68 -570 682 C-570.66 682 -571.32 682 -572 682 C-572 681.34 -572 680.68 -572 680 C-573.32 680 -574.64 680 -576 680 C-576 679.34 -576 678.68 -576 678 C-577.32 678 -578.64 678 -580 678 C-580 677.34 -580 676.68 -580 676 C-580.66 676 -581.32 676 -582 676 C-582 675.34 -582 674.68 -582 674 C-583.32 674 -584.64 674 -586 674 C-586 673.34 -586 672.68 -586 672 C-586.66 672 -587.32 672 -588 672 C-588 671.34 -588 670.68 -588 670 C-588.66 670 -589.32 670 -590 670 C-590 669.34 -590 668.68 -590 668 C-591.32 668 -592.64 668 -594 668 C-594 667.34 -594 666.68 -594 666 C-594.66 666 -595.32 666 -596 666 C-596 665.34 -596 664.68 -596 664 C-596.66 664 -597.32 664 -598 664 C-598 663.34 -598 662.68 -598 662 C-598.66 662 -599.32 662 -600 662 C-600 661.34 -600 660.68 -600 660 C-600.66 660 -601.32 660 -602 660 C-602 659.34 -602 658.68 -602 658 C-603.32 658 -604.64 658 -606 658 C-606 657.34 -606 656.68 -606 656 C-606.66 656 -607.32 656 -608 656 C-608 655.34 -608 654.68 -608 654 C-608.66 654 -609.32 654 -610 654 C-610 653.34 -610 652.68 -610 652 C-610.66 652 -611.32 652 -612 652 C-612 651.34 -612 650.68 -612 650 C-612.66 650 -613.32 650 -614 650 C-614 649.34 -614 648.68 -614 648 C-614.66 648 -615.32 648 -616 648 C-616 646.68 -616 645.36 -616 644 C-616.66 644 -617.32 644 -618 644 C-618 643.34 -618 642.68 -618 642 C-618.66 642 -619.32 642 -620 642 C-620 641.34 -620 640.68 -620 640 C-620.66 640 -621.32 640 -622 640 C-622 639.34 -622 638.68 -622 638 C-622.66 638 -623.32 638 -624 638 C-624 637.34 -624 636.68 -624 636 C-624.66 636 -625.32 636 -626 636 C-626 634.68 -626 633.36 -626 632 C-626.66 632 -627.32 632 -628 632 C-628 631.34 -628 630.68 -628 630 C-628.66 630 -629.32 630 -630 630 C-630 628.68 -630 627.36 -630 626 C-630.66 626 -631.32 626 -632 626 C-632 625.34 -632 624.68 -632 624 C-632.66 624 -633.32 624 -634 624 C-634 622.68 -634 621.36 -634 620 C-634.66 620 -635.32 620 -636 620 C-636 619.34 -636 618.68 -636 618 C-636.66 618 -637.32 618 -638 618 C-638 616.68 -638 615.36 -638 614 C-638.66 614 -639.32 614 -640 614 C-640 612.68 -640 611.36 -640 610 C-640.66 610 -641.32 610 -642 610 C-642 608.68 -642 607.36 -642 606 C-642.66 606 -643.32 606 -644 606 C-644 604.68 -644 603.36 -644 602 C-644.66 602 -645.32 602 -646 602 C-646 600.68 -646 599.36 -646 598 C-646.66 598 -647.32 598 -648 598 C-648 596.68 -648 595.36 -648 594 C-648.66 594 -649.32 594 -650 594 C-650 592.02 -650 590.04 -650 588 C-650.66 588 -651.32 588 -652 588 C-652 586.68 -652 585.36 -652 584 C-652.66 584 -653.32 584 -654 584 C-654 582.02 -654 580.04 -654 578 C-654.66 578 -655.32 578 -656 578 C-656 575.36 -656 572.72 -656 570 C-656.66 570 -657.32 570 -658 570 C-658 567.36 -658 564.72 -658 562 C-658.66 562 -659.32 562 -660 562 C-660 559.36 -660 556.72 -660 554 C-660.66 554 -661.32 554 -662 554 C-662 548.72 -662 543.44 -662 538 C-662.66 538 -663.32 538 -664 538 C-664 526.12 -664 514.24 -664 502 C-663.34 502 -662.68 502 -662 502 C-662 496.06 -662 490.12 -662 484 C-661.34 484 -660.68 484 -660 484 C-660 480.7 -660 477.4 -660 474 C-659.34 474 -658.68 474 -658 474 C-658 471.36 -658 468.72 -658 466 C-657.34 466 -656.68 466 -656 466 C-656 464.02 -656 462.04 -656 460 C-655.34 460 -654.68 460 -654 460 C-654 458.02 -654 456.04 -654 454 C-653.34 454 -652.68 454 -652 454 C-652 452.68 -652 451.36 -652 450 C-651.34 450 -650.68 450 -650 450 C-650 448.02 -650 446.04 -650 444 C-649.34 444 -648.68 444 -648 444 C-648 442.68 -648 441.36 -648 440 C-647.34 440 -646.68 440 -646 440 C-646 438.68 -646 437.36 -646 436 C-645.34 436 -644.68 436 -644 436 C-644 434.68 -644 433.36 -644 432 C-643.34 432 -642.68 432 -642 432 C-642 430.68 -642 429.36 -642 428 C-641.34 428 -640.68 428 -640 428 C-640 426.68 -640 425.36 -640 424 C-639.34 424 -638.68 424 -638 424 C-638 423.34 -638 422.68 -638 422 C-637.34 422 -636.68 422 -636 422 C-636 420.68 -636 419.36 -636 418 C-635.34 418 -634.68 418 -634 418 C-634 416.68 -634 415.36 -634 414 C-633.34 414 -632.68 414 -632 414 C-632 413.34 -632 412.68 -632 412 C-631.34 412 -630.68 412 -630 412 C-630 410.68 -630 409.36 -630 408 C-629.34 408 -628.68 408 -628 408 C-628 407.34 -628 406.68 -628 406 C-627.34 406 -626.68 406 -626 406 C-626 405.34 -626 404.68 -626 404 C-625.34 404 -624.68 404 -624 404 C-624 402.68 -624 401.36 -624 400 C-623.34 400 -622.68 400 -622 400 C-622 399.34 -622 398.68 -622 398 C-621.34 398 -620.68 398 -620 398 C-620 397.34 -620 396.68 -620 396 C-619.34 396 -618.68 396 -618 396 C-618 395.34 -618 394.68 -618 394 C-617.34 394 -616.68 394 -616 394 C-616 393.34 -616 392.68 -616 392 C-615.34 392 -614.68 392 -614 392 C-614 391.34 -614 390.68 -614 390 C-613.34 390 -612.68 390 -612 390 C-612 389.34 -612 388.68 -612 388 C-611.34 388 -610.68 388 -610 388 C-610 387.34 -610 386.68 -610 386 C-609.34 386 -608.68 386 -608 386 C-608 385.34 -608 384.68 -608 384 C-607.34 384 -606.68 384 -606 384 C-606 383.34 -606 382.68 -606 382 C-605.34 382 -604.68 382 -604 382 C-604 381.34 -604 380.68 -604 380 C-603.34 380 -602.68 380 -602 380 C-602 379.34 -602 378.68 -602 378 C-601.34 378 -600.68 378 -600 378 C-600 377.34 -600 376.68 -600 376 C-599.34 376 -598.68 376 -598 376 C-598 375.34 -598 374.68 -598 374 C-597.34 374 -596.68 374 -596 374 C-596 373.34 -596 372.68 -596 372 C-594.68 372 -593.36 372 -592 372 C-592 371.34 -592 370.68 -592 370 C-591.34 370 -590.68 370 -590 370 C-590 369.34 -590 368.68 -590 368 C-589.34 368 -588.68 368 -588 368 C-588 367.34 -588 366.68 -588 366 C-586.68 366 -585.36 366 -584 366 C-584 365.34 -584 364.68 -584 364 C-583.34 364 -582.68 364 -582 364 C-582 363.34 -582 362.68 -582 362 C-580.68 362 -579.36 362 -578 362 C-578 361.34 -578 360.68 -578 360 C-576.68 360 -575.36 360 -574 360 C-574 359.34 -574 358.68 -574 358 C-573.34 358 -572.68 358 -572 358 C-572 357.34 -572 356.68 -572 356 C-570.68 356 -569.36 356 -568 356 C-568 355.34 -568 354.68 -568 354 C-567.34 354 -566.68 354 -566 354 C-566 353.34 -566 352.68 -566 352 C-564.68 352 -563.36 352 -562 352 C-562 351.34 -562 350.68 -562 350 C-561.34 350 -560.68 350 -560 350 C-560 349.34 -560 348.68 -560 348 C-558.68 348 -557.36 348 -556 348 C-556 347.34 -556 346.68 -556 346 C-555.34 346 -554.68 346 -554 346 C-554 345.34 -554 344.68 -554 344 C-552.68 344 -551.36 344 -550 344 C-550 343.34 -550 342.68 -550 342 C-549.34 342 -548.68 342 -548 342 C-548 341.34 -548 340.68 -548 340 C-546.68 340 -545.36 340 -544 340 C-544 339.34 -544 338.68 -544 338 C-543.34 338 -542.68 338 -542 338 C-542 337.34 -542 336.68 -542 336 C-540.68 336 -539.36 336 -538 336 C-538 335.34 -538 334.68 -538 334 C-537.34 334 -536.68 334 -536 334 C-536 333.34 -536 332.68 -536 332 C-534.68 332 -533.36 332 -532 332 C-532 331.34 -532 330.68 -532 330 C-531.34 330 -530.68 330 -530 330 C-530 329.34 -530 328.68 -530 328 C-528.68 328 -527.36 328 -526 328 C-526 327.34 -526 326.68 -526 326 C-524.68 326 -523.36 326 -522 326 C-522 325.34 -522 324.68 -522 324 C-521.34 324 -520.68 324 -520 324 C-520 323.34 -520 322.68 -520 322 C-518.68 322 -517.36 322 -516 322 C-516 321.34 -516 320.68 -516 320 C-515.34 320 -514.68 320 -514 320 C-514 319.34 -514 318.68 -514 318 C-512.68 318 -511.36 318 -510 318 C-510 317.34 -510 316.68 -510 316 C-509.34 316 -508.68 316 -508 316 C-508 315.34 -508 314.68 -508 314 C-506.68 314 -505.36 314 -504 314 C-504 313.34 -504 312.68 -504 312 C-503.34 312 -502.68 312 -502 312 C-502 311.34 -502 310.68 -502 310 C-500.68 310 -499.36 310 -498 310 C-498 309.34 -498 308.68 -498 308 C-497.34 308 -496.68 308 -496 308 C-496 307.34 -496 306.68 -496 306 C-494.68 306 -493.36 306 -492 306 C-492 305.34 -492 304.68 -492 304 C-491.34 304 -490.68 304 -490 304 C-490 303.34 -490 302.68 -490 302 C-488.68 302 -487.36 302 -486 302 C-486 301.34 -486 300.68 -486 300 C-485.34 300 -484.68 300 -484 300 C-484 299.34 -484 298.68 -484 298 C-482.68 298 -481.36 298 -480 298 C-480 297.34 -480 296.68 -480 296 C-479.34 296 -478.68 296 -478 296 C-478 295.34 -478 294.68 -478 294 C-476.68 294 -475.36 294 -474 294 C-474 293.34 -474 292.68 -474 292 C-473.34 292 -472.68 292 -472 292 C-472 291.34 -472 290.68 -472 290 C-470.68 290 -469.36 290 -468 290 C-468 289.34 -468 288.68 -468 288 C-466.68 288 -465.36 288 -464 288 C-464 287.34 -464 286.68 -464 286 C-463.34 286 -462.68 286 -462 286 C-462 285.34 -462 284.68 -462 284 C-460.68 284 -459.36 284 -458 284 C-458 283.34 -458 282.68 -458 282 C-457.34 282 -456.68 282 -456 282 C-456 281.34 -456 280.68 -456 280 C-454.68 280 -453.36 280 -452 280 C-452 279.34 -452 278.68 -452 278 C-451.34 278 -450.68 278 -450 278 C-450 277.34 -450 276.68 -450 276 C-448.68 276 -447.36 276 -446 276 C-446 275.34 -446 274.68 -446 274 C-445.34 274 -444.68 274 -444 274 C-444 273.34 -444 272.68 -444 272 C-442.68 272 -441.36 272 -440 272 C-440 271.34 -440 270.68 -440 270 C-439.34 270 -438.68 270 -438 270 C-438 269.34 -438 268.68 -438 268 C-436.68 268 -435.36 268 -434 268 C-434 267.34 -434 266.68 -434 266 C-433.34 266 -432.68 266 -432 266 C-432 265.34 -432 264.68 -432 264 C-430.68 264 -429.36 264 -428 264 C-428 263.34 -428 262.68 -428 262 C-427.34 262 -426.68 262 -426 262 C-426 261.34 -426 260.68 -426 260 C-424.68 260 -423.36 260 -422 260 C-422 259.34 -422 258.68 -422 258 C-421.34 258 -420.68 258 -420 258 C-420 257.34 -420 256.68 -420 256 C-418.68 256 -417.36 256 -416 256 C-416 255.34 -416 254.68 -416 254 C-414.68 254 -413.36 254 -412 254 C-412 253.34 -412 252.68 -412 252 C-411.34 252 -410.68 252 -410 252 C-410 251.34 -410 250.68 -410 250 C-408.68 250 -407.36 250 -406 250 C-406 249.34 -406 248.68 -406 248 C-405.34 248 -404.68 248 -404 248 C-404 247.34 -404 246.68 -404 246 C-402.68 246 -401.36 246 -400 246 C-400 245.34 -400 244.68 -400 244 C-399.34 244 -398.68 244 -398 244 C-398 243.34 -398 242.68 -398 242 C-396.68 242 -395.36 242 -394 242 C-394 241.34 -394 240.68 -394 240 C-393.34 240 -392.68 240 -392 240 C-392 239.34 -392 238.68 -392 238 C-390.68 238 -389.36 238 -388 238 C-388 237.34 -388 236.68 -388 236 C-387.34 236 -386.68 236 -386 236 C-386 235.34 -386 234.68 -386 234 C-384.68 234 -383.36 234 -382 234 C-382 233.34 -382 232.68 -382 232 C-381.34 232 -380.68 232 -380 232 C-380 231.34 -380 230.68 -380 230 C-378.68 230 -377.36 230 -376 230 C-376 229.34 -376 228.68 -376 228 C-375.34 228 -374.68 228 -374 228 C-374 227.34 -374 226.68 -374 226 C-372.68 226 -371.36 226 -370 226 C-370 225.34 -370 224.68 -370 224 C-369.34 224 -368.68 224 -368 224 C-368 223.34 -368 222.68 -368 222 C-366.68 222 -365.36 222 -364 222 C-364 221.34 -364 220.68 -364 220 C-362.68 220 -361.36 220 -360 220 C-360 219.34 -360 218.68 -360 218 C-359.34 218 -358.68 218 -358 218 C-358 217.34 -358 216.68 -358 216 C-356.68 216 -355.36 216 -354 216 C-354 215.34 -354 214.68 -354 214 C-353.34 214 -352.68 214 -352 214 C-352 213.34 -352 212.68 -352 212 C-350.68 212 -349.36 212 -348 212 C-348 211.34 -348 210.68 -348 210 C-347.34 210 -346.68 210 -346 210 C-346 209.34 -346 208.68 -346 208 C-344.68 208 -343.36 208 -342 208 C-342 207.34 -342 206.68 -342 206 C-341.34 206 -340.68 206 -340 206 C-340 205.34 -340 204.68 -340 204 C-338.68 204 -337.36 204 -336 204 C-336 203.34 -336 202.68 -336 202 C-335.34 202 -334.68 202 -334 202 C-334 201.34 -334 200.68 -334 200 C-332.68 200 -331.36 200 -330 200 C-330 199.34 -330 198.68 -330 198 C-329.34 198 -328.68 198 -328 198 C-328 197.34 -328 196.68 -328 196 C-326.68 196 -325.36 196 -324 196 C-324 195.34 -324 194.68 -324 194 C-323.34 194 -322.68 194 -322 194 C-322 193.34 -322 192.68 -322 192 C-320.68 192 -319.36 192 -318 192 C-318 191.34 -318 190.68 -318 190 C-317.34 190 -316.68 190 -316 190 C-316 189.34 -316 188.68 -316 188 C-314.68 188 -313.36 188 -312 188 C-312 187.34 -312 186.68 -312 186 C-310.68 186 -309.36 186 -308 186 C-308 185.34 -308 184.68 -308 184 C-307.34 184 -306.68 184 -306 184 C-306 183.34 -306 182.68 -306 182 C-304.68 182 -303.36 182 -302 182 C-302 181.34 -302 180.68 -302 180 C-301.34 180 -300.68 180 -300 180 C-300 179.34 -300 178.68 -300 178 C-298.68 178 -297.36 178 -296 178 C-296 177.34 -296 176.68 -296 176 C-295.34 176 -294.68 176 -294 176 C-294 175.34 -294 174.68 -294 174 C-292.68 174 -291.36 174 -290 174 C-290 173.34 -290 172.68 -290 172 C-289.34 172 -288.68 172 -288 172 C-288 171.34 -288 170.68 -288 170 C-286.68 170 -285.36 170 -284 170 C-284 169.34 -284 168.68 -284 168 C-283.34 168 -282.68 168 -282 168 C-282 167.34 -282 166.68 -282 166 C-280.68 166 -279.36 166 -278 166 C-278 165.34 -278 164.68 -278 164 C-277.34 164 -276.68 164 -276 164 C-276 163.34 -276 162.68 -276 162 C-274.68 162 -273.36 162 -272 162 C-272 161.34 -272 160.68 -272 160 C-271.34 160 -270.68 160 -270 160 C-270 159.34 -270 158.68 -270 158 C-268.68 158 -267.36 158 -266 158 C-266 157.34 -266 156.68 -266 156 C-265.34 156 -264.68 156 -264 156 C-264 155.34 -264 154.68 -264 154 C-262.68 154 -261.36 154 -260 154 C-260 153.34 -260 152.68 -260 152 C-258.68 152 -257.36 152 -256 152 C-256 151.34 -256 150.68 -256 150 C-255.34 150 -254.68 150 -254 150 C-254 149.34 -254 148.68 -254 148 C-252.68 148 -251.36 148 -250 148 C-250 147.34 -250 146.68 -250 146 C-249.34 146 -248.68 146 -248 146 C-248 145.34 -248 144.68 -248 144 C-246.68 144 -245.36 144 -244 144 C-244 143.34 -244 142.68 -244 142 C-243.34 142 -242.68 142 -242 142 C-242 141.34 -242 140.68 -242 140 C-240.68 140 -239.36 140 -238 140 C-238 139.34 -238 138.68 -238 138 C-237.34 138 -236.68 138 -236 138 C-236 137.34 -236 136.68 -236 136 C-234.68 136 -233.36 136 -232 136 C-232 135.34 -232 134.68 -232 134 C-231.34 134 -230.68 134 -230 134 C-230 133.34 -230 132.68 -230 132 C-228.68 132 -227.36 132 -226 132 C-226 131.34 -226 130.68 -226 130 C-225.34 130 -224.68 130 -224 130 C-224 129.34 -224 128.68 -224 128 C-222.68 128 -221.36 128 -220 128 C-220 127.34 -220 126.68 -220 126 C-219.34 126 -218.68 126 -218 126 C-218 125.34 -218 124.68 -218 124 C-216.68 124 -215.36 124 -214 124 C-214 123.34 -214 122.68 -214 122 C-213.34 122 -212.68 122 -212 122 C-212 121.34 -212 120.68 -212 120 C-210.68 120 -209.36 120 -208 120 C-208 119.34 -208 118.68 -208 118 C-206.68 118 -205.36 118 -204 118 C-204 117.34 -204 116.68 -204 116 C-203.34 116 -202.68 116 -202 116 C-202 115.34 -202 114.68 -202 114 C-200.68 114 -199.36 114 -198 114 C-198 113.34 -198 112.68 -198 112 C-197.34 112 -196.68 112 -196 112 C-196 111.34 -196 110.68 -196 110 C-194.68 110 -193.36 110 -192 110 C-192 109.34 -192 108.68 -192 108 C-191.34 108 -190.68 108 -190 108 C-190 107.34 -190 106.68 -190 106 C-188.68 106 -187.36 106 -186 106 C-186 105.34 -186 104.68 -186 104 C-185.34 104 -184.68 104 -184 104 C-184 103.34 -184 102.68 -184 102 C-182.68 102 -181.36 102 -180 102 C-180 101.34 -180 100.68 -180 100 C-179.34 100 -178.68 100 -178 100 C-178 99.34 -178 98.68 -178 98 C-176.68 98 -175.36 98 -174 98 C-174 97.34 -174 96.68 -174 96 C-173.34 96 -172.68 96 -172 96 C-172 95.34 -172 94.68 -172 94 C-170.68 94 -169.36 94 -168 94 C-168 93.34 -168 92.68 -168 92 C-167.34 92 -166.68 92 -166 92 C-166 91.34 -166 90.68 -166 90 C-164.68 90 -163.36 90 -162 90 C-162 89.34 -162 88.68 -162 88 C-161.34 88 -160.68 88 -160 88 C-160 87.34 -160 86.68 -160 86 C-158.68 86 -157.36 86 -156 86 C-156 85.34 -156 84.68 -156 84 C-154.68 84 -153.36 84 -152 84 C-152 83.34 -152 82.68 -152 82 C-151.34 82 -150.68 82 -150 82 C-150 81.34 -150 80.68 -150 80 C-148.68 80 -147.36 80 -146 80 C-146 79.34 -146 78.68 -146 78 C-145.34 78 -144.68 78 -144 78 C-144 77.34 -144 76.68 -144 76 C-142.68 76 -141.36 76 -140 76 C-140 75.34 -140 74.68 -140 74 C-139.34 74 -138.68 74 -138 74 C-138 73.34 -138 72.68 -138 72 C-136.68 72 -135.36 72 -134 72 C-134 71.34 -134 70.68 -134 70 C-133.34 70 -132.68 70 -132 70 C-132 69.34 -132 68.68 -132 68 C-130.68 68 -129.36 68 -128 68 C-128 67.34 -128 66.68 -128 66 C-127.34 66 -126.68 66 -126 66 C-126 65.34 -126 64.68 -126 64 C-124.68 64 -123.36 64 -122 64 C-122 63.34 -122 62.68 -122 62 C-121.34 62 -120.68 62 -120 62 C-120 61.34 -120 60.68 -120 60 C-118.68 60 -117.36 60 -116 60 C-116 59.34 -116 58.68 -116 58 C-115.34 58 -114.68 58 -114 58 C-114 57.34 -114 56.68 -114 56 C-112.68 56 -111.36 56 -110 56 C-110 55.34 -110 54.68 -110 54 C-109.34 54 -108.68 54 -108 54 C-108 53.34 -108 52.68 -108 52 C-106.68 52 -105.36 52 -104 52 C-104 51.34 -104 50.68 -104 50 C-103.34 50 -102.68 50 -102 50 C-102 49.34 -102 48.68 -102 48 C-100.68 48 -99.36 48 -98 48 C-98 47.34 -98 46.68 -98 46 C-96.68 46 -95.36 46 -94 46 C-94 45.34 -94 44.68 -94 44 C-93.34 44 -92.68 44 -92 44 C-92 43.34 -92 42.68 -92 42 C-90.68 42 -89.36 42 -88 42 C-88 41.34 -88 40.68 -88 40 C-87.34 40 -86.68 40 -86 40 C-86 39.34 -86 38.68 -86 38 C-84.68 38 -83.36 38 -82 38 C-82 37.34 -82 36.68 -82 36 C-81.34 36 -80.68 36 -80 36 C-80 35.34 -80 34.68 -80 34 C-78.68 34 -77.36 34 -76 34 C-76 33.34 -76 32.68 -76 32 C-75.34 32 -74.68 32 -74 32 C-74 31.34 -74 30.68 -74 30 C-72.68 30 -71.36 30 -70 30 C-70 29.34 -70 28.68 -70 28 C-69.34 28 -68.68 28 -68 28 C-68 27.34 -68 26.68 -68 26 C-66.68 26 -65.36 26 -64 26 C-64 25.34 -64 24.68 -64 24 C-62.68 24 -61.36 24 -60 24 C-60 23.34 -60 22.68 -60 22 C-59.34 22 -58.68 22 -58 22 C-58 21.34 -58 20.68 -58 20 C-56.68 20 -55.36 20 -54 20 C-54 19.34 -54 18.68 -54 18 C-52.68 18 -51.36 18 -50 18 C-50 17.34 -50 16.68 -50 16 C-48.68 16 -47.36 16 -46 16 C-46 15.34 -46 14.68 -46 14 C-44.02 14 -42.04 14 -40 14 C-40 13.34 -40 12.68 -40 12 C-38.68 12 -37.36 12 -36 12 C-36 11.34 -36 10.68 -36 10 C-34.02 10 -32.04 10 -30 10 C-30 9.34 -30 8.68 -30 8 C-28.68 8 -27.36 8 -26 8 C-26 7.34 -26 6.68 -26 6 C-24.02 6 -22.04 6 -20 6 C-20 5.34 -20 4.68 -20 4 C-17.36 4 -14.72 4 -12 4 C-12 3.34 -12 2.68 -12 2 C-8.04 2 -4.08 2 0 2 C0 1.34 0 0.68 0 0 Z " fill="#F7CE46" transform="translate(698,588)"/>
<path d="M0 0 C13.86 0 27.72 0 42 0 C42 0.66 42 1.32 42 2 C47.94 2 53.88 2 60 2 C60 2.66 60 3.32 60 4 C61.98 4 63.96 4 66 4 C66 4.66 66 5.32 66 6 C68.64 6 71.28 6 74 6 C74 6.66 74 7.32 74 8 C75.98 8 77.96 8 80 8 C80 8.66 80 9.32 80 10 C82.64 10 85.28 10 88 10 C88 10.66 88 11.32 88 12 C89.32 12 90.64 12 92 12 C92 12.66 92 13.32 92 14 C93.98 14 95.96 14 98 14 C98 14.66 98 15.32 98 16 C98.66 16 99.32 16 100 16 C100 16.66 100 17.32 100 18 C101.98 18 103.96 18 106 18 C106 18.66 106 19.32 106 20 C107.32 20 108.64 20 110 20 C110 20.66 110 21.32 110 22 C111.32 22 112.64 22 114 22 C114 22.66 114 23.32 114 24 C114.66 24 115.32 24 116 24 C116 24.66 116 25.32 116 26 C117.32 26 118.64 26 120 26 C120 26.66 120 27.32 120 28 C121.32 28 122.64 28 124 28 C124 28.66 124 29.32 124 30 C124.66 30 125.32 30 126 30 C126 30.66 126 31.32 126 32 C127.32 32 128.64 32 130 32 C130 32.66 130 33.32 130 34 C130.66 34 131.32 34 132 34 C132 34.66 132 35.32 132 36 C132.66 36 133.32 36 134 36 C134 36.66 134 37.32 134 38 C135.32 38 136.64 38 138 38 C138 38.66 138 39.32 138 40 C138.66 40 139.32 40 140 40 C140 40.66 140 41.32 140 42 C140.66 42 141.32 42 142 42 C142 42.66 142 43.32 142 44 C142.66 44 143.32 44 144 44 C144 44.66 144 45.32 144 46 C144.66 46 145.32 46 146 46 C146 46.66 146 47.32 146 48 C147.32 48 148.64 48 150 48 C150 48.66 150 49.32 150 50 C150.66 50 151.32 50 152 50 C152 50.66 152 51.32 152 52 C152.66 52 153.32 52 154 52 C154 52.66 154 53.32 154 54 C154.66 54 155.32 54 156 54 C156 54.66 156 55.32 156 56 C156.66 56 157.32 56 158 56 C158 56.66 158 57.32 158 58 C158.66 58 159.32 58 160 58 C160 59.32 160 60.64 160 62 C160.66 62 161.32 62 162 62 C162 62.66 162 63.32 162 64 C162.66 64 163.32 64 164 64 C164 64.66 164 65.32 164 66 C164.66 66 165.32 66 166 66 C166 66.66 166 67.32 166 68 C166.66 68 167.32 68 168 68 C168 68.66 168 69.32 168 70 C168.66 70 169.32 70 170 70 C170 71.32 170 72.64 170 74 C170.66 74 171.32 74 172 74 C172 74.66 172 75.32 172 76 C172.66 76 173.32 76 174 76 C174 76.66 174 77.32 174 78 C174.66 78 175.32 78 176 78 C176 79.32 176 80.64 176 82 C176.66 82 177.32 82 178 82 C178 82.66 178 83.32 178 84 C178.66 84 179.32 84 180 84 C180 85.32 180 86.64 180 88 C180.66 88 181.32 88 182 88 C182 89.32 182 90.64 182 92 C182.66 92 183.32 92 184 92 C184 92.66 184 93.32 184 94 C184.66 94 185.32 94 186 94 C186 95.32 186 96.64 186 98 C186.66 98 187.32 98 188 98 C188 99.32 188 100.64 188 102 C188.66 102 189.32 102 190 102 C190 103.32 190 104.64 190 106 C190.66 106 191.32 106 192 106 C192 107.98 192 109.96 192 112 C192.66 112 193.32 112 194 112 C194 113.32 194 114.64 194 116 C194.66 116 195.32 116 196 116 C196 117.32 196 118.64 196 120 C196.66 120 197.32 120 198 120 C198 121.98 198 123.96 198 126 C198.66 126 199.32 126 200 126 C200 127.98 200 129.96 200 132 C200.66 132 201.32 132 202 132 C202 134.64 202 137.28 202 140 C202.66 140 203.32 140 204 140 C204 143.96 204 147.92 204 152 C204.66 152 205.32 152 206 152 C206 154.64 206 157.28 206 160 C206.66 160 207.32 160 208 160 C208 175.18 208 190.36 208 206 C207.34 206 206.68 206 206 206 C206 209.96 206 213.92 206 218 C205.34 218 204.68 218 204 218 C204 221.3 204 224.6 204 228 C203.34 228 202.68 228 202 228 C202 230.64 202 233.28 202 236 C201.34 236 200.68 236 200 236 C200 237.32 200 238.64 200 240 C199.34 240 198.68 240 198 240 C198 241.98 198 243.96 198 246 C197.34 246 196.68 246 196 246 C196 247.32 196 248.64 196 250 C195.34 250 194.68 250 194 250 C194 251.98 194 253.96 194 256 C193.34 256 192.68 256 192 256 C192 257.98 192 259.96 192 262 C191.34 262 190.68 262 190 262 C190 263.32 190 264.64 190 266 C189.34 266 188.68 266 188 266 C188 267.32 188 268.64 188 270 C187.34 270 186.68 270 186 270 C186 271.32 186 272.64 186 274 C185.34 274 184.68 274 184 274 C184 274.66 184 275.32 184 276 C183.34 276 182.68 276 182 276 C182 277.32 182 278.64 182 280 C181.34 280 180.68 280 180 280 C180 281.32 180 282.64 180 284 C179.34 284 178.68 284 178 284 C178 284.66 178 285.32 178 286 C177.34 286 176.68 286 176 286 C176 286.66 176 287.32 176 288 C175.34 288 174.68 288 174 288 C174 289.32 174 290.64 174 292 C173.34 292 172.68 292 172 292 C172 292.66 172 293.32 172 294 C171.34 294 170.68 294 170 294 C170 295.32 170 296.64 170 298 C169.34 298 168.68 298 168 298 C168 298.66 168 299.32 168 300 C167.34 300 166.68 300 166 300 C166 300.66 166 301.32 166 302 C165.34 302 164.68 302 164 302 C164 302.66 164 303.32 164 304 C163.34 304 162.68 304 162 304 C162 304.66 162 305.32 162 306 C161.34 306 160.68 306 160 306 C160 307.32 160 308.64 160 310 C159.34 310 158.68 310 158 310 C158 310.66 158 311.32 158 312 C157.34 312 156.68 312 156 312 C156 312.66 156 313.32 156 314 C155.34 314 154.68 314 154 314 C154 314.66 154 315.32 154 316 C153.34 316 152.68 316 152 316 C152 316.66 152 317.32 152 318 C151.34 318 150.68 318 150 318 C150 318.66 150 319.32 150 320 C148.68 320 147.36 320 146 320 C146 320.66 146 321.32 146 322 C145.34 322 144.68 322 144 322 C144 322.66 144 323.32 144 324 C143.34 324 142.68 324 142 324 C142 324.66 142 325.32 142 326 C141.34 326 140.68 326 140 326 C140 326.66 140 327.32 140 328 C139.34 328 138.68 328 138 328 C138 328.66 138 329.32 138 330 C136.68 330 135.36 330 134 330 C134 330.66 134 331.32 134 332 C133.34 332 132.68 332 132 332 C132 332.66 132 333.32 132 334 C131.34 334 130.68 334 130 334 C130 334.66 130 335.32 130 336 C128.68 336 127.36 336 126 336 C126 336.66 126 337.32 126 338 C125.34 338 124.68 338 124 338 C124 338.66 124 339.32 124 340 C122.68 340 121.36 340 120 340 C120 340.66 120 341.32 120 342 C118.68 342 117.36 342 116 342 C116 342.66 116 343.32 116 344 C115.34 344 114.68 344 114 344 C114 344.66 114 345.32 114 346 C112.68 346 111.36 346 110 346 C110 346.66 110 347.32 110 348 C108.68 348 107.36 348 106 348 C106 348.66 106 349.32 106 350 C104.68 350 103.36 350 102 350 C102 350.66 102 351.32 102 352 C100.02 352 98.04 352 96 352 C96 352.66 96 353.32 96 354 C94.68 354 93.36 354 92 354 C92 354.66 92 355.32 92 356 C90.02 356 88.04 356 86 356 C86 356.66 86 357.32 86 358 C84.02 358 82.04 358 80 358 C80 358.66 80 359.32 80 360 C78.02 360 76.04 360 74 360 C74 360.66 74 361.32 74 362 C71.36 362 68.72 362 66 362 C66 362.66 66 363.32 66 364 C62.7 364 59.4 364 56 364 C56 364.66 56 365.32 56 366 C53.36 366 50.72 366 48 366 C48 366.66 48 367.32 48 368 C32.82 368 17.64 368 2 368 C2 367.34 2 366.68 2 366 C-2.62 366 -7.24 366 -12 366 C-12 365.34 -12 364.68 -12 364 C-14.64 364 -17.28 364 -20 364 C-20 363.34 -20 362.68 -20 362 C-22.64 362 -25.28 362 -28 362 C-28 361.34 -28 360.68 -28 360 C-29.98 360 -31.96 360 -34 360 C-34 359.34 -34 358.68 -34 358 C-35.98 358 -37.96 358 -40 358 C-40 357.34 -40 356.68 -40 356 C-41.32 356 -42.64 356 -44 356 C-44 355.34 -44 354.68 -44 354 C-45.32 354 -46.64 354 -48 354 C-48 353.34 -48 352.68 -48 352 C-49.98 352 -51.96 352 -54 352 C-54 351.34 -54 350.68 -54 350 C-55.32 350 -56.64 350 -58 350 C-58 349.34 -58 348.68 -58 348 C-59.32 348 -60.64 348 -62 348 C-62 347.34 -62 346.68 -62 346 C-63.32 346 -64.64 346 -66 346 C-66 345.34 -66 344.68 -66 344 C-66.66 344 -67.32 344 -68 344 C-68 343.34 -68 342.68 -68 342 C-69.32 342 -70.64 342 -72 342 C-72 341.34 -72 340.68 -72 340 C-73.32 340 -74.64 340 -76 340 C-76 339.34 -76 338.68 -76 338 C-76.66 338 -77.32 338 -78 338 C-78 337.34 -78 336.68 -78 336 C-79.32 336 -80.64 336 -82 336 C-82 335.34 -82 334.68 -82 334 C-82.66 334 -83.32 334 -84 334 C-84 333.34 -84 332.68 -84 332 C-84.66 332 -85.32 332 -86 332 C-86 331.34 -86 330.68 -86 330 C-87.32 330 -88.64 330 -90 330 C-90 329.34 -90 328.68 -90 328 C-90.66 328 -91.32 328 -92 328 C-92 327.34 -92 326.68 -92 326 C-92.66 326 -93.32 326 -94 326 C-94 325.34 -94 324.68 -94 324 C-94.66 324 -95.32 324 -96 324 C-96 323.34 -96 322.68 -96 322 C-96.66 322 -97.32 322 -98 322 C-98 321.34 -98 320.68 -98 320 C-98.66 320 -99.32 320 -100 320 C-100 319.34 -100 318.68 -100 318 C-100.66 318 -101.32 318 -102 318 C-102 317.34 -102 316.68 -102 316 C-102.66 316 -103.32 316 -104 316 C-104 315.34 -104 314.68 -104 314 C-104.66 314 -105.32 314 -106 314 C-106 313.34 -106 312.68 -106 312 C-106.66 312 -107.32 312 -108 312 C-108 311.34 -108 310.68 -108 310 C-108.66 310 -109.32 310 -110 310 C-110 309.34 -110 308.68 -110 308 C-110.66 308 -111.32 308 -112 308 C-112 307.34 -112 306.68 -112 306 C-112.66 306 -113.32 306 -114 306 C-114 305.34 -114 304.68 -114 304 C-114.66 304 -115.32 304 -116 304 C-116 303.34 -116 302.68 -116 302 C-116.66 302 -117.32 302 -118 302 C-118 301.34 -118 300.68 -118 300 C-118.66 300 -119.32 300 -120 300 C-120 298.68 -120 297.36 -120 296 C-120.66 296 -121.32 296 -122 296 C-122 295.34 -122 294.68 -122 294 C-122.66 294 -123.32 294 -124 294 C-124 293.34 -124 292.68 -124 292 C-124.66 292 -125.32 292 -126 292 C-126 290.68 -126 289.36 -126 288 C-126.66 288 -127.32 288 -128 288 C-128 287.34 -128 286.68 -128 286 C-128.66 286 -129.32 286 -130 286 C-130 284.68 -130 283.36 -130 282 C-130.66 282 -131.32 282 -132 282 C-132 281.34 -132 280.68 -132 280 C-132.66 280 -133.32 280 -134 280 C-134 278.68 -134 277.36 -134 276 C-134.66 276 -135.32 276 -136 276 C-136 274.68 -136 273.36 -136 272 C-136.66 272 -137.32 272 -138 272 C-138 270.68 -138 269.36 -138 268 C-138.66 268 -139.32 268 -140 268 C-140 266.68 -140 265.36 -140 264 C-140.66 264 -141.32 264 -142 264 C-142 262.68 -142 261.36 -142 260 C-142.66 260 -143.32 260 -144 260 C-144 258.68 -144 257.36 -144 256 C-144.66 256 -145.32 256 -146 256 C-146 254.02 -146 252.04 -146 250 C-146.66 250 -147.32 250 -148 250 C-148 248.68 -148 247.36 -148 246 C-148.66 246 -149.32 246 -150 246 C-150 244.02 -150 242.04 -150 240 C-150.66 240 -151.32 240 -152 240 C-152 237.36 -152 234.72 -152 232 C-152.66 232 -153.32 232 -154 232 C-154 230.02 -154 228.04 -154 226 C-154.66 226 -155.32 226 -156 226 C-156 221.38 -156 216.76 -156 212 C-156.66 212 -157.32 212 -158 212 C-158 209.36 -158 206.72 -158 204 C-158.66 204 -159.32 204 -160 204 C-160 191.46 -160 178.92 -160 166 C-159.34 166 -158.68 166 -158 166 C-158 161.38 -158 156.76 -158 152 C-157.34 152 -156.68 152 -156 152 C-156 148.7 -156 145.4 -156 142 C-155.34 142 -154.68 142 -154 142 C-154 139.36 -154 136.72 -154 134 C-153.34 134 -152.68 134 -152 134 C-152 132.68 -152 131.36 -152 130 C-151.34 130 -150.68 130 -150 130 C-150 128.02 -150 126.04 -150 124 C-149.34 124 -148.68 124 -148 124 C-148 121.36 -148 118.72 -148 116 C-147.34 116 -146.68 116 -146 116 C-146 114.68 -146 113.36 -146 112 C-145.34 112 -144.68 112 -144 112 C-144 110.68 -144 109.36 -144 108 C-143.34 108 -142.68 108 -142 108 C-142 106.02 -142 104.04 -142 102 C-141.34 102 -140.68 102 -140 102 C-140 101.34 -140 100.68 -140 100 C-139.34 100 -138.68 100 -138 100 C-138 98.68 -138 97.36 -138 96 C-137.34 96 -136.68 96 -136 96 C-136 94.68 -136 93.36 -136 92 C-135.34 92 -134.68 92 -134 92 C-134 90.68 -134 89.36 -134 88 C-133.34 88 -132.68 88 -132 88 C-132 87.34 -132 86.68 -132 86 C-131.34 86 -130.68 86 -130 86 C-130 84.68 -130 83.36 -130 82 C-129.34 82 -128.68 82 -128 82 C-128 81.34 -128 80.68 -128 80 C-127.34 80 -126.68 80 -126 80 C-126 78.68 -126 77.36 -126 76 C-125.34 76 -124.68 76 -124 76 C-124 75.34 -124 74.68 -124 74 C-123.34 74 -122.68 74 -122 74 C-122 73.34 -122 72.68 -122 72 C-121.34 72 -120.68 72 -120 72 C-120 70.68 -120 69.36 -120 68 C-119.34 68 -118.68 68 -118 68 C-118 67.34 -118 66.68 -118 66 C-117.34 66 -116.68 66 -116 66 C-116 65.34 -116 64.68 -116 64 C-115.34 64 -114.68 64 -114 64 C-114 63.34 -114 62.68 -114 62 C-113.34 62 -112.68 62 -112 62 C-112 61.34 -112 60.68 -112 60 C-111.34 60 -110.68 60 -110 60 C-110 59.34 -110 58.68 -110 58 C-109.34 58 -108.68 58 -108 58 C-108 57.34 -108 56.68 -108 56 C-107.34 56 -106.68 56 -106 56 C-106 55.34 -106 54.68 -106 54 C-105.34 54 -104.68 54 -104 54 C-104 53.34 -104 52.68 -104 52 C-103.34 52 -102.68 52 -102 52 C-102 51.34 -102 50.68 -102 50 C-101.34 50 -100.68 50 -100 50 C-100 49.34 -100 48.68 -100 48 C-99.34 48 -98.68 48 -98 48 C-98 47.34 -98 46.68 -98 46 C-97.34 46 -96.68 46 -96 46 C-96 45.34 -96 44.68 -96 44 C-95.34 44 -94.68 44 -94 44 C-94 43.34 -94 42.68 -94 42 C-93.34 42 -92.68 42 -92 42 C-92 41.34 -92 40.68 -92 40 C-91.34 40 -90.68 40 -90 40 C-90 39.34 -90 38.68 -90 38 C-88.68 38 -87.36 38 -86 38 C-86 37.34 -86 36.68 -86 36 C-85.34 36 -84.68 36 -84 36 C-84 35.34 -84 34.68 -84 34 C-83.34 34 -82.68 34 -82 34 C-82 33.34 -82 32.68 -82 32 C-80.68 32 -79.36 32 -78 32 C-78 31.34 -78 30.68 -78 30 C-77.34 30 -76.68 30 -76 30 C-76 29.34 -76 28.68 -76 28 C-74.68 28 -73.36 28 -72 28 C-72 27.34 -72 26.68 -72 26 C-70.68 26 -69.36 26 -68 26 C-68 25.34 -68 24.68 -68 24 C-66.68 24 -65.36 24 -64 24 C-64 23.34 -64 22.68 -64 22 C-63.34 22 -62.68 22 -62 22 C-62 21.34 -62 20.68 -62 20 C-60.68 20 -59.36 20 -58 20 C-58 19.34 -58 18.68 -58 18 C-56.68 18 -55.36 18 -54 18 C-54 17.34 -54 16.68 -54 16 C-52.02 16 -50.04 16 -48 16 C-48 15.34 -48 14.68 -48 14 C-46.68 14 -45.36 14 -44 14 C-44 13.34 -44 12.68 -44 12 C-42.68 12 -41.36 12 -40 12 C-40 11.34 -40 10.68 -40 10 C-38.02 10 -36.04 10 -34 10 C-34 9.34 -34 8.68 -34 8 C-32.02 8 -30.04 8 -28 8 C-28 7.34 -28 6.68 -28 6 C-24.7 6 -21.4 6 -18 6 C-18 5.34 -18 4.68 -18 4 C-16.02 4 -14.04 4 -12 4 C-12 3.34 -12 2.68 -12 2 C-8.04 2 -4.08 2 0 2 C0 1.34 0 0.68 0 0 Z " fill="#5BC77A" transform="translate(1126,792)"/>
</svg>
