<?xml version="1.0" encoding="UTF-8"?>
<svg version="1.1" xmlns="http://www.w3.org/2000/svg" width="928" height="1294">
<path d="M0 0 C306.24 0 612.48 0 928 0 C928 427.02 928 854.04 928 1294 C621.76 1294 315.52 1294 0 1294 C0 866.98 0 439.96 0 0 Z " fill="#FEFEFE" transform="translate(0,0)"/>
<path d="M0 0 C13.86 0 27.72 0 42 0 C42 0.66 42 1.32 42 2 C45.3 2 48.6 2 52 2 C52 2.66 52 3.32 52 4 C55.3 4 58.6 4 62 4 C62 4.66 62 5.32 62 6 C63.98 6 65.96 6 68 6 C68 6.66 68 7.32 68 8 C69.98 8 71.96 8 74 8 C74 8.66 74 9.32 74 10 C75.98 10 77.96 10 80 10 C80 10.66 80 11.32 80 12 C81.32 12 82.64 12 84 12 C84 12.66 84 13.32 84 14 C85.98 14 87.96 14 90 14 C90 14.66 90 15.32 90 16 C91.32 16 92.64 16 94 16 C94 16.66 94 17.32 94 18 C95.32 18 96.64 18 98 18 C98 18.66 98 19.32 98 20 C99.32 20 100.64 20 102 20 C102 20.66 102 21.32 102 22 C103.32 22 104.64 22 106 22 C106 22.66 106 23.32 106 24 C106.66 24 107.32 24 108 24 C108 24.66 108 25.32 108 26 C109.32 26 110.64 26 112 26 C112 26.66 112 27.32 112 28 C113.32 28 114.64 28 116 28 C116 28.66 116 29.32 116 30 C116.66 30 117.32 30 118 30 C118 30.66 118 31.32 118 32 C118.66 32 119.32 32 120 32 C120 32.66 120 33.32 120 34 C121.32 34 122.64 34 124 34 C124 34.66 124 35.32 124 36 C124.66 36 125.32 36 126 36 C126 36.66 126 37.32 126 38 C126.66 38 127.32 38 128 38 C128 38.66 128 39.32 128 40 C129.32 40 130.64 40 132 40 C132 40.66 132 41.32 132 42 C132.66 42 133.32 42 134 42 C134 42.66 134 43.32 134 44 C134.66 44 135.32 44 136 44 C136 44.66 136 45.32 136 46 C136.66 46 137.32 46 138 46 C138 46.66 138 47.32 138 48 C138.66 48 139.32 48 140 48 C140 48.66 140 49.32 140 50 C140.66 50 141.32 50 142 50 C142 50.66 142 51.32 142 52 C142.66 52 143.32 52 144 52 C144 52.66 144 53.32 144 54 C144.66 54 145.32 54 146 54 C146 54.66 146 55.32 146 56 C146.66 56 147.32 56 148 56 C148 56.66 148 57.32 148 58 C148.66 58 149.32 58 150 58 C150 58.66 150 59.32 150 60 C150.66 60 151.32 60 152 60 C152 60.66 152 61.32 152 62 C152.66 62 153.32 62 154 62 C154 63.32 154 64.64 154 66 C154.66 66 155.32 66 156 66 C156 66.66 156 67.32 156 68 C156.66 68 157.32 68 158 68 C158 68.66 158 69.32 158 70 C158.66 70 159.32 70 160 70 C160 70.66 160 71.32 160 72 C160.66 72 161.32 72 162 72 C162 73.32 162 74.64 162 76 C162.66 76 163.32 76 164 76 C164 76.66 164 77.32 164 78 C164.66 78 165.32 78 166 78 C166 79.32 166 80.64 166 82 C166.66 82 167.32 82 168 82 C168 82.66 168 83.32 168 84 C168.66 84 169.32 84 170 84 C170 85.32 170 86.64 170 88 C170.66 88 171.32 88 172 88 C172 89.32 172 90.64 172 92 C172.66 92 173.32 92 174 92 C174 93.32 174 94.64 174 96 C174.66 96 175.32 96 176 96 C176 97.32 176 98.64 176 100 C176.66 100 177.32 100 178 100 C178 101.32 178 102.64 178 104 C178.66 104 179.32 104 180 104 C180 105.32 180 106.64 180 108 C180.66 108 181.32 108 182 108 C182 109.32 182 110.64 182 112 C182.66 112 183.32 112 184 112 C184 113.98 184 115.96 184 118 C184.66 118 185.32 118 186 118 C186 119.98 186 121.96 186 124 C186.66 124 187.32 124 188 124 C188 126.64 188 129.28 188 132 C188.66 132 189.32 132 190 132 C190 133.32 190 134.64 190 136 C190.66 136 191.32 136 192 136 C192 138.64 192 141.28 192 144 C192.66 144 193.32 144 194 144 C194 147.3 194 150.6 194 154 C194.66 154 195.32 154 196 154 C196 171.82 196 189.64 196 208 C195.34 208 194.68 208 194 208 C194 213.28 194 218.56 194 224 C193.34 224 192.68 224 192 224 C192 225.98 192 227.96 192 230 C191.34 230 190.68 230 190 230 C190 232.64 190 235.28 190 238 C189.34 238 188.68 238 188 238 C188 239.98 188 241.96 188 244 C187.34 244 186.68 244 186 244 C186 245.98 186 247.96 186 250 C185.34 250 184.68 250 184 250 C184 251.98 184 253.96 184 256 C183.34 256 182.68 256 182 256 C182 257.32 182 258.64 182 260 C181.34 260 180.68 260 180 260 C180 261.98 180 263.96 180 266 C179.34 266 178.68 266 178 266 C178 267.32 178 268.64 178 270 C177.34 270 176.68 270 176 270 C176 271.32 176 272.64 176 274 C175.34 274 174.68 274 174 274 C174 274.66 174 275.32 174 276 C173.34 276 172.68 276 172 276 C172 277.32 172 278.64 172 280 C171.34 280 170.68 280 170 280 C170 281.32 170 282.64 170 284 C169.34 284 168.68 284 168 284 C168 284.66 168 285.32 168 286 C167.34 286 166.68 286 166 286 C166 287.32 166 288.64 166 290 C165.34 290 164.68 290 164 290 C164 290.66 164 291.32 164 292 C163.34 292 162.68 292 162 292 C162 293.32 162 294.64 162 296 C161.34 296 160.68 296 160 296 C160 296.66 160 297.32 160 298 C159.34 298 158.68 298 158 298 C158 298.66 158 299.32 158 300 C157.34 300 156.68 300 156 300 C156 300.66 156 301.32 156 302 C155.34 302 154.68 302 154 302 C154 303.32 154 304.64 154 306 C153.34 306 152.68 306 152 306 C152 306.66 152 307.32 152 308 C151.34 308 150.68 308 150 308 C150 308.66 150 309.32 150 310 C149.34 310 148.68 310 148 310 C148 310.66 148 311.32 148 312 C147.34 312 146.68 312 146 312 C146 312.66 146 313.32 146 314 C145.34 314 144.68 314 144 314 C144 315.32 144 316.64 144 318 C143.34 318 142.68 318 142 318 C142 318.66 142 319.32 142 320 C141.34 320 140.68 320 140 320 C140 320.66 140 321.32 140 322 C138.68 322 137.36 322 136 322 C136 322.66 136 323.32 136 324 C135.34 324 134.68 324 134 324 C134 324.66 134 325.32 134 326 C133.34 326 132.68 326 132 326 C132 326.66 132 327.32 132 328 C131.34 328 130.68 328 130 328 C130 328.66 130 329.32 130 330 C129.34 330 128.68 330 128 330 C128 330.66 128 331.32 128 332 C126.68 332 125.36 332 124 332 C124 332.66 124 333.32 124 334 C123.34 334 122.68 334 122 334 C122 334.66 122 335.32 122 336 C120.68 336 119.36 336 118 336 C118 336.66 118 337.32 118 338 C117.34 338 116.68 338 116 338 C116 338.66 116 339.32 116 340 C114.68 340 113.36 340 112 340 C112 340.66 112 341.32 112 342 C111.34 342 110.68 342 110 342 C110 342.66 110 343.32 110 344 C108.68 344 107.36 344 106 344 C106 344.66 106 345.32 106 346 C105.34 346 104.68 346 104 346 C104 346.66 104 347.32 104 348 C102.68 348 101.36 348 100 348 C100 348.66 100 349.32 100 350 C99.34 350 98.68 350 98 350 C98 350.66 98 351.32 98 352 C96.68 352 95.36 352 94 352 C94 352.66 94 353.32 94 354 C92.68 354 91.36 354 90 354 C90 354.66 90 355.32 90 356 C89.34 356 88.68 356 88 356 C88 356.66 88 357.32 88 358 C86.68 358 85.36 358 84 358 C84 358.66 84 359.32 84 360 C83.34 360 82.68 360 82 360 C82 360.66 82 361.32 82 362 C80.68 362 79.36 362 78 362 C78 362.66 78 363.32 78 364 C77.34 364 76.68 364 76 364 C76 364.66 76 365.32 76 366 C74.68 366 73.36 366 72 366 C72 366.66 72 367.32 72 368 C71.34 368 70.68 368 70 368 C70 368.66 70 369.32 70 370 C68.68 370 67.36 370 66 370 C66 370.66 66 371.32 66 372 C65.34 372 64.68 372 64 372 C64 372.66 64 373.32 64 374 C62.68 374 61.36 374 60 374 C60 374.66 60 375.32 60 376 C59.34 376 58.68 376 58 376 C58 376.66 58 377.32 58 378 C56.68 378 55.36 378 54 378 C54 378.66 54 379.32 54 380 C53.34 380 52.68 380 52 380 C52 380.66 52 381.32 52 382 C50.68 382 49.36 382 48 382 C48 382.66 48 383.32 48 384 C47.34 384 46.68 384 46 384 C46 384.66 46 385.32 46 386 C44.68 386 43.36 386 42 386 C42 386.66 42 387.32 42 388 C41.34 388 40.68 388 40 388 C40 388.66 40 389.32 40 390 C38.68 390 37.36 390 36 390 C36 390.66 36 391.32 36 392 C35.34 392 34.68 392 34 392 C34 392.66 34 393.32 34 394 C32.68 394 31.36 394 30 394 C30 394.66 30 395.32 30 396 C29.34 396 28.68 396 28 396 C28 396.66 28 397.32 28 398 C26.68 398 25.36 398 24 398 C24 398.66 24 399.32 24 400 C22.68 400 21.36 400 20 400 C20 400.66 20 401.32 20 402 C19.34 402 18.68 402 18 402 C18 402.66 18 403.32 18 404 C16.68 404 15.36 404 14 404 C14 404.66 14 405.32 14 406 C13.34 406 12.68 406 12 406 C12 406.66 12 407.32 12 408 C10.68 408 9.36 408 8 408 C8 408.66 8 409.32 8 410 C7.34 410 6.68 410 6 410 C6 410.66 6 411.32 6 412 C4.68 412 3.36 412 2 412 C2 412.66 2 413.32 2 414 C1.34 414 0.68 414 0 414 C0 414.66 0 415.32 0 416 C-1.32 416 -2.64 416 -4 416 C-4 416.66 -4 417.32 -4 418 C-4.66 418 -5.32 418 -6 418 C-6 418.66 -6 419.32 -6 420 C-7.32 420 -8.64 420 -10 420 C-10 420.66 -10 421.32 -10 422 C-10.66 422 -11.32 422 -12 422 C-12 422.66 -12 423.32 -12 424 C-13.32 424 -14.64 424 -16 424 C-16 424.66 -16 425.32 -16 426 C-16.66 426 -17.32 426 -18 426 C-18 426.66 -18 427.32 -18 428 C-19.32 428 -20.64 428 -22 428 C-22 428.66 -22 429.32 -22 430 C-22.66 430 -23.32 430 -24 430 C-24 430.66 -24 431.32 -24 432 C-25.32 432 -26.64 432 -28 432 C-28 432.66 -28 433.32 -28 434 C-28.66 434 -29.32 434 -30 434 C-30 434.66 -30 435.32 -30 436 C-31.32 436 -32.64 436 -34 436 C-34 436.66 -34 437.32 -34 438 C-35.32 438 -36.64 438 -38 438 C-38 438.66 -38 439.32 -38 440 C-38.66 440 -39.32 440 -40 440 C-40 440.66 -40 441.32 -40 442 C-41.32 442 -42.64 442 -44 442 C-44 442.66 -44 443.32 -44 444 C-44.66 444 -45.32 444 -46 444 C-46 444.66 -46 445.32 -46 446 C-47.32 446 -48.64 446 -50 446 C-50 446.66 -50 447.32 -50 448 C-50.66 448 -51.32 448 -52 448 C-52 448.66 -52 449.32 -52 450 C-53.32 450 -54.64 450 -56 450 C-56 450.66 -56 451.32 -56 452 C-56.66 452 -57.32 452 -58 452 C-58 452.66 -58 453.32 -58 454 C-59.32 454 -60.64 454 -62 454 C-62 454.66 -62 455.32 -62 456 C-62.66 456 -63.32 456 -64 456 C-64 456.66 -64 457.32 -64 458 C-65.32 458 -66.64 458 -68 458 C-68 458.66 -68 459.32 -68 460 C-68.66 460 -69.32 460 -70 460 C-70 460.66 -70 461.32 -70 462 C-71.32 462 -72.64 462 -74 462 C-74 462.66 -74 463.32 -74 464 C-74.66 464 -75.32 464 -76 464 C-76 464.66 -76 465.32 -76 466 C-77.32 466 -78.64 466 -80 466 C-80 466.66 -80 467.32 -80 468 C-81.32 468 -82.64 468 -84 468 C-84 468.66 -84 469.32 -84 470 C-84.66 470 -85.32 470 -86 470 C-86 470.66 -86 471.32 -86 472 C-86.66 472 -87.32 472 -88 472 C-88 472.66 -88 473.32 -88 474 C-89.32 474 -90.64 474 -92 474 C-92 474.66 -92 475.32 -92 476 C-92.66 476 -93.32 476 -94 476 C-94 476.66 -94 477.32 -94 478 C-95.32 478 -96.64 478 -98 478 C-98 478.66 -98 479.32 -98 480 C-98.66 480 -99.32 480 -100 480 C-100 480.66 -100 481.32 -100 482 C-101.32 482 -102.64 482 -104 482 C-104 482.66 -104 483.32 -104 484 C-105.32 484 -106.64 484 -108 484 C-108 484.66 -108 485.32 -108 486 C-108.66 486 -109.32 486 -110 486 C-110 486.66 -110 487.32 -110 488 C-111.32 488 -112.64 488 -114 488 C-114 488.66 -114 489.32 -114 490 C-114.66 490 -115.32 490 -116 490 C-116 490.66 -116 491.32 -116 492 C-117.32 492 -118.64 492 -120 492 C-120 492.66 -120 493.32 -120 494 C-120.66 494 -121.32 494 -122 494 C-122 494.66 -122 495.32 -122 496 C-123.32 496 -124.64 496 -126 496 C-126 496.66 -126 497.32 -126 498 C-126.66 498 -127.32 498 -128 498 C-128 498.66 -128 499.32 -128 500 C-129.32 500 -130.64 500 -132 500 C-132 500.66 -132 501.32 -132 502 C-132.66 502 -133.32 502 -134 502 C-134 502.66 -134 503.32 -134 504 C-135.32 504 -136.64 504 -138 504 C-138 504.66 -138 505.32 -138 506 C-138.66 506 -139.32 506 -140 506 C-140 506.66 -140 507.32 -140 508 C-141.32 508 -142.64 508 -144 508 C-144 508.66 -144 509.32 -144 510 C-144.66 510 -145.32 510 -146 510 C-146 510.66 -146 511.32 -146 512 C-147.32 512 -148.64 512 -150 512 C-150 512.66 -150 513.32 -150 514 C-150.66 514 -151.32 514 -152 514 C-152 514.66 -152 515.32 -152 516 C-153.32 516 -154.64 516 -156 516 C-156 516.66 -156 517.32 -156 518 C-157.32 518 -158.64 518 -160 518 C-160 518.66 -160 519.32 -160 520 C-160.66 520 -161.32 520 -162 520 C-162 520.66 -162 521.32 -162 522 C-163.32 522 -164.64 522 -166 522 C-166 522.66 -166 523.32 -166 524 C-166.66 524 -167.32 524 -168 524 C-168 524.66 -168 525.32 -168 526 C-168.66 526 -169.32 526 -170 526 C-170 526.66 -170 527.32 -170 528 C-171.32 528 -172.64 528 -174 528 C-174 528.66 -174 529.32 -174 530 C-175.32 530 -176.64 530 -178 530 C-178 530.66 -178 531.32 -178 532 C-178.66 532 -179.32 532 -180 532 C-180 532.66 -180 533.32 -180 534 C-181.32 534 -182.64 534 -184 534 C-184 534.66 -184 535.32 -184 536 C-184.66 536 -185.32 536 -186 536 C-186 536.66 -186 537.32 -186 538 C-187.32 538 -188.64 538 -190 538 C-190 538.66 -190 539.32 -190 540 C-190.66 540 -191.32 540 -192 540 C-192 540.66 -192 541.32 -192 542 C-193.32 542 -194.64 542 -196 542 C-196 542.66 -196 543.32 -196 544 C-196.66 544 -197.32 544 -198 544 C-198 544.66 -198 545.32 -198 546 C-199.32 546 -200.64 546 -202 546 C-202 546.66 -202 547.32 -202 548 C-202.66 548 -203.32 548 -204 548 C-204 548.66 -204 549.32 -204 550 C-205.32 550 -206.64 550 -208 550 C-208 550.66 -208 551.32 -208 552 C-208.66 552 -209.32 552 -210 552 C-210 552.66 -210 553.32 -210 554 C-211.32 554 -212.64 554 -214 554 C-214 554.66 -214 555.32 -214 556 C-214.66 556 -215.32 556 -216 556 C-216 556.66 -216 557.32 -216 558 C-217.32 558 -218.64 558 -220 558 C-220 558.66 -220 559.32 -220 560 C-220.66 560 -221.32 560 -222 560 C-222 560.66 -222 561.32 -222 562 C-223.32 562 -224.64 562 -226 562 C-226 562.66 -226 563.32 -226 564 C-226.66 564 -227.32 564 -228 564 C-228 564.66 -228 565.32 -228 566 C-229.32 566 -230.64 566 -232 566 C-232 566.66 -232 567.32 -232 568 C-233.32 568 -234.64 568 -236 568 C-236 568.66 -236 569.32 -236 570 C-236.66 570 -237.32 570 -238 570 C-238 570.66 -238 571.32 -238 572 C-239.32 572 -240.64 572 -242 572 C-242 572.66 -242 573.32 -242 574 C-242.66 574 -243.32 574 -244 574 C-244 574.66 -244 575.32 -244 576 C-245.32 576 -246.64 576 -248 576 C-248 576.66 -248 577.32 -248 578 C-248.66 578 -249.32 578 -250 578 C-250 578.66 -250 579.32 -250 580 C-251.32 580 -252.64 580 -254 580 C-254 580.66 -254 581.32 -254 582 C-254.66 582 -255.32 582 -256 582 C-256 582.66 -256 583.32 -256 584 C-257.32 584 -258.64 584 -260 584 C-260 584.66 -260 585.32 -260 586 C-260.66 586 -261.32 586 -262 586 C-262 586.66 -262 587.32 -262 588 C-263.32 588 -264.64 588 -266 588 C-266 588.66 -266 589.32 -266 590 C-266.66 590 -267.32 590 -268 590 C-268 590.66 -268 591.32 -268 592 C-269.32 592 -270.64 592 -272 592 C-272 592.66 -272 593.32 -272 594 C-272.66 594 -273.32 594 -274 594 C-274 594.66 -274 595.32 -274 596 C-275.32 596 -276.64 596 -278 596 C-278 596.66 -278 597.32 -278 598 C-278.66 598 -279.32 598 -280 598 C-280 598.66 -280 599.32 -280 600 C-281.32 600 -282.64 600 -284 600 C-284 600.66 -284 601.32 -284 602 C-285.32 602 -286.64 602 -288 602 C-288 602.66 -288 603.32 -288 604 C-288.66 604 -289.32 604 -290 604 C-290 604.66 -290 605.32 -290 606 C-290.66 606 -291.32 606 -292 606 C-292 606.66 -292 607.32 -292 608 C-293.32 608 -294.64 608 -296 608 C-296 608.66 -296 609.32 -296 610 C-296.66 610 -297.32 610 -298 610 C-298 610.66 -298 611.32 -298 612 C-299.32 612 -300.64 612 -302 612 C-302 612.66 -302 613.32 -302 614 C-303.32 614 -304.64 614 -306 614 C-306 614.66 -306 615.32 -306 616 C-306.66 616 -307.32 616 -308 616 C-308 616.66 -308 617.32 -308 618 C-309.32 618 -310.64 618 -312 618 C-312 618.66 -312 619.32 -312 620 C-312.66 620 -313.32 620 -314 620 C-314 620.66 -314 621.32 -314 622 C-315.32 622 -316.64 622 -318 622 C-318 622.66 -318 623.32 -318 624 C-318.66 624 -319.32 624 -320 624 C-320 624.66 -320 625.32 -320 626 C-321.32 626 -322.64 626 -324 626 C-324 626.66 -324 627.32 -324 628 C-324.66 628 -325.32 628 -326 628 C-326 628.66 -326 629.32 -326 630 C-327.32 630 -328.64 630 -330 630 C-330 630.66 -330 631.32 -330 632 C-330.66 632 -331.32 632 -332 632 C-332 632.66 -332 633.32 -332 634 C-333.32 634 -334.64 634 -336 634 C-336 634.66 -336 635.32 -336 636 C-336.66 636 -337.32 636 -338 636 C-338 636.66 -338 637.32 -338 638 C-339.32 638 -340.64 638 -342 638 C-342 638.66 -342 639.32 -342 640 C-342.66 640 -343.32 640 -344 640 C-344 640.66 -344 641.32 -344 642 C-345.32 642 -346.64 642 -348 642 C-348 642.66 -348 643.32 -348 644 C-348.66 644 -349.32 644 -350 644 C-350 644.66 -350 645.32 -350 646 C-351.32 646 -352.64 646 -354 646 C-354 646.66 -354 647.32 -354 648 C-355.32 648 -356.64 648 -358 648 C-358 648.66 -358 649.32 -358 650 C-358.66 650 -359.32 650 -360 650 C-360 650.66 -360 651.32 -360 652 C-361.32 652 -362.64 652 -364 652 C-364 652.66 -364 653.32 -364 654 C-364.66 654 -365.32 654 -366 654 C-366 654.66 -366 655.32 -366 656 C-367.32 656 -368.64 656 -370 656 C-370 656.66 -370 657.32 -370 658 C-370.66 658 -371.32 658 -372 658 C-372 658.66 -372 659.32 -372 660 C-373.32 660 -374.64 660 -376 660 C-376 660.66 -376 661.32 -376 662 C-376.66 662 -377.32 662 -378 662 C-378 662.66 -378 663.32 -378 664 C-379.32 664 -380.64 664 -382 664 C-382 664.66 -382 665.32 -382 666 C-382.66 666 -383.32 666 -384 666 C-384 666.66 -384 667.32 -384 668 C-385.32 668 -386.64 668 -388 668 C-388 668.66 -388 669.32 -388 670 C-388.66 670 -389.32 670 -390 670 C-390 670.66 -390 671.32 -390 672 C-391.32 672 -392.64 672 -394 672 C-394 672.66 -394 673.32 -394 674 C-394.66 674 -395.32 674 -396 674 C-396 674.66 -396 675.32 -396 676 C-397.32 676 -398.64 676 -400 676 C-400 676.66 -400 677.32 -400 678 C-401.32 678 -402.64 678 -404 678 C-404 678.66 -404 679.32 -404 680 C-404.66 680 -405.32 680 -406 680 C-406 680.66 -406 681.32 -406 682 C-407.32 682 -408.64 682 -410 682 C-410 682.66 -410 683.32 -410 684 C-411.32 684 -412.64 684 -414 684 C-414 684.66 -414 685.32 -414 686 C-415.32 686 -416.64 686 -418 686 C-418 686.66 -418 687.32 -418 688 C-419.32 688 -420.64 688 -422 688 C-422 688.66 -422 689.32 -422 690 C-423.98 690 -425.96 690 -428 690 C-428 690.66 -428 691.32 -428 692 C-429.98 692 -431.96 692 -434 692 C-434 692.66 -434 693.32 -434 694 C-435.98 694 -437.96 694 -440 694 C-440 694.66 -440 695.32 -440 696 C-441.32 696 -442.64 696 -444 696 C-444 696.66 -444 697.32 -444 698 C-447.96 698 -451.92 698 -456 698 C-456 698.66 -456 699.32 -456 700 C-459.3 700 -462.6 700 -466 700 C-466 700.66 -466 701.32 -466 702 C-482.5 702 -499 702 -516 702 C-516 701.34 -516 700.68 -516 700 C-519.96 700 -523.92 700 -528 700 C-528 699.34 -528 698.68 -528 698 C-530.64 698 -533.28 698 -536 698 C-536 697.34 -536 696.68 -536 696 C-537.98 696 -539.96 696 -542 696 C-542 695.34 -542 694.68 -542 694 C-543.98 694 -545.96 694 -548 694 C-548 693.34 -548 692.68 -548 692 C-549.32 692 -550.64 692 -552 692 C-552 691.34 -552 690.68 -552 690 C-553.98 690 -555.96 690 -558 690 C-558 689.34 -558 688.68 -558 688 C-559.32 688 -560.64 688 -562 688 C-562 687.34 -562 686.68 -562 686 C-563.32 686 -564.64 686 -566 686 C-566 685.34 -566 684.68 -566 684 C-567.32 684 -568.64 684 -570 684 C-570 683.34 -570 682.68 -570 682 C-570.66 682 -571.32 682 -572 682 C-572 681.34 -572 680.68 -572 680 C-573.32 680 -574.64 680 -576 680 C-576 679.34 -576 678.68 -576 678 C-577.32 678 -578.64 678 -580 678 C-580 677.34 -580 676.68 -580 676 C-580.66 676 -581.32 676 -582 676 C-582 675.34 -582 674.68 -582 674 C-583.32 674 -584.64 674 -586 674 C-586 673.34 -586 672.68 -586 672 C-586.66 672 -587.32 672 -588 672 C-588 671.34 -588 670.68 -588 670 C-589.32 670 -590.64 670 -592 670 C-592 669.34 -592 668.68 -592 668 C-592.66 668 -593.32 668 -594 668 C-594 667.34 -594 666.68 -594 666 C-594.66 666 -595.32 666 -596 666 C-596 665.34 -596 664.68 -596 664 C-597.32 664 -598.64 664 -600 664 C-600 663.34 -600 662.68 -600 662 C-600.66 662 -601.32 662 -602 662 C-602 661.34 -602 660.68 -602 660 C-602.66 660 -603.32 660 -604 660 C-604 659.34 -604 658.68 -604 658 C-604.66 658 -605.32 658 -606 658 C-606 657.34 -606 656.68 -606 656 C-606.66 656 -607.32 656 -608 656 C-608 655.34 -608 654.68 -608 654 C-608.66 654 -609.32 654 -610 654 C-610 653.34 -610 652.68 -610 652 C-610.66 652 -611.32 652 -612 652 C-612 651.34 -612 650.68 -612 650 C-612.66 650 -613.32 650 -614 650 C-614 649.34 -614 648.68 -614 648 C-614.66 648 -615.32 648 -616 648 C-616 647.34 -616 646.68 -616 646 C-616.66 646 -617.32 646 -618 646 C-618 645.34 -618 644.68 -618 644 C-618.66 644 -619.32 644 -620 644 C-620 643.34 -620 642.68 -620 642 C-620.66 642 -621.32 642 -622 642 C-622 641.34 -622 640.68 -622 640 C-622.66 640 -623.32 640 -624 640 C-624 638.68 -624 637.36 -624 636 C-624.66 636 -625.32 636 -626 636 C-626 635.34 -626 634.68 -626 634 C-626.66 634 -627.32 634 -628 634 C-628 633.34 -628 632.68 -628 632 C-628.66 632 -629.32 632 -630 632 C-630 630.68 -630 629.36 -630 628 C-630.66 628 -631.32 628 -632 628 C-632 627.34 -632 626.68 -632 626 C-632.66 626 -633.32 626 -634 626 C-634 624.68 -634 623.36 -634 622 C-634.66 622 -635.32 622 -636 622 C-636 621.34 -636 620.68 -636 620 C-636.66 620 -637.32 620 -638 620 C-638 618.68 -638 617.36 -638 616 C-638.66 616 -639.32 616 -640 616 C-640 614.68 -640 613.36 -640 612 C-640.66 612 -641.32 612 -642 612 C-642 611.34 -642 610.68 -642 610 C-642.66 610 -643.32 610 -644 610 C-644 608.68 -644 607.36 -644 606 C-644.66 606 -645.32 606 -646 606 C-646 604.68 -646 603.36 -646 602 C-646.66 602 -647.32 602 -648 602 C-648 600.02 -648 598.04 -648 596 C-648.66 596 -649.32 596 -650 596 C-650 594.68 -650 593.36 -650 592 C-650.66 592 -651.32 592 -652 592 C-652 590.68 -652 589.36 -652 588 C-652.66 588 -653.32 588 -654 588 C-654 586.02 -654 584.04 -654 582 C-654.66 582 -655.32 582 -656 582 C-656 580.02 -656 578.04 -656 576 C-656.66 576 -657.32 576 -658 576 C-658 574.68 -658 573.36 -658 572 C-658.66 572 -659.32 572 -660 572 C-660 568.7 -660 565.4 -660 562 C-660.66 562 -661.32 562 -662 562 C-662 558.7 -662 555.4 -662 552 C-662.66 552 -663.32 552 -664 552 C-664 547.38 -664 542.76 -664 538 C-664.66 538 -665.32 538 -666 538 C-666 523.48 -666 508.96 -666 494 C-665.34 494 -664.68 494 -664 494 C-664 490.04 -664 486.08 -664 482 C-663.34 482 -662.68 482 -662 482 C-662 479.36 -662 476.72 -662 474 C-661.34 474 -660.68 474 -660 474 C-660 471.36 -660 468.72 -660 466 C-659.34 466 -658.68 466 -658 466 C-658 464.02 -658 462.04 -658 460 C-657.34 460 -656.68 460 -656 460 C-656 458.02 -656 456.04 -656 454 C-655.34 454 -654.68 454 -654 454 C-654 452.02 -654 450.04 -654 448 C-653.34 448 -652.68 448 -652 448 C-652 446.68 -652 445.36 -652 444 C-651.34 444 -650.68 444 -650 444 C-650 442.68 -650 441.36 -650 440 C-649.34 440 -648.68 440 -648 440 C-648 438.68 -648 437.36 -648 436 C-647.34 436 -646.68 436 -646 436 C-646 434.68 -646 433.36 -646 432 C-645.34 432 -644.68 432 -644 432 C-644 430.68 -644 429.36 -644 428 C-643.34 428 -642.68 428 -642 428 C-642 426.68 -642 425.36 -642 424 C-641.34 424 -640.68 424 -640 424 C-640 422.68 -640 421.36 -640 420 C-639.34 420 -638.68 420 -638 420 C-638 418.68 -638 417.36 -638 416 C-637.34 416 -636.68 416 -636 416 C-636 415.34 -636 414.68 -636 414 C-635.34 414 -634.68 414 -634 414 C-634 412.68 -634 411.36 -634 410 C-633.34 410 -632.68 410 -632 410 C-632 409.34 -632 408.68 -632 408 C-631.34 408 -630.68 408 -630 408 C-630 407.34 -630 406.68 -630 406 C-629.34 406 -628.68 406 -628 406 C-628 404.68 -628 403.36 -628 402 C-627.34 402 -626.68 402 -626 402 C-626 401.34 -626 400.68 -626 400 C-625.34 400 -624.68 400 -624 400 C-624 399.34 -624 398.68 -624 398 C-623.34 398 -622.68 398 -622 398 C-622 397.34 -622 396.68 -622 396 C-621.34 396 -620.68 396 -620 396 C-620 394.68 -620 393.36 -620 392 C-619.34 392 -618.68 392 -618 392 C-618 391.34 -618 390.68 -618 390 C-617.34 390 -616.68 390 -616 390 C-616 389.34 -616 388.68 -616 388 C-615.34 388 -614.68 388 -614 388 C-614 387.34 -614 386.68 -614 386 C-613.34 386 -612.68 386 -612 386 C-612 385.34 -612 384.68 -612 384 C-611.34 384 -610.68 384 -610 384 C-610 383.34 -610 382.68 -610 382 C-609.34 382 -608.68 382 -608 382 C-608 381.34 -608 380.68 -608 380 C-607.34 380 -606.68 380 -606 380 C-606 379.34 -606 378.68 -606 378 C-604.68 378 -603.36 378 -602 378 C-602 377.34 -602 376.68 -602 376 C-601.34 376 -600.68 376 -600 376 C-600 375.34 -600 374.68 -600 374 C-599.34 374 -598.68 374 -598 374 C-598 373.34 -598 372.68 -598 372 C-597.34 372 -596.68 372 -596 372 C-596 371.34 -596 370.68 -596 370 C-595.34 370 -594.68 370 -594 370 C-594 369.34 -594 368.68 -594 368 C-593.34 368 -592.68 368 -592 368 C-592 367.34 -592 366.68 -592 366 C-590.68 366 -589.36 366 -588 366 C-588 365.34 -588 364.68 -588 364 C-587.34 364 -586.68 364 -586 364 C-586 363.34 -586 362.68 -586 362 C-584.68 362 -583.36 362 -582 362 C-582 361.34 -582 360.68 -582 360 C-581.34 360 -580.68 360 -580 360 C-580 359.34 -580 358.68 -580 358 C-578.68 358 -577.36 358 -576 358 C-576 357.34 -576 356.68 -576 356 C-575.34 356 -574.68 356 -574 356 C-574 355.34 -574 354.68 -574 354 C-572.68 354 -571.36 354 -570 354 C-570 353.34 -570 352.68 -570 352 C-568.68 352 -567.36 352 -566 352 C-566 351.34 -566 350.68 -566 350 C-565.34 350 -564.68 350 -564 350 C-564 349.34 -564 348.68 -564 348 C-562.68 348 -561.36 348 -560 348 C-560 347.34 -560 346.68 -560 346 C-559.34 346 -558.68 346 -558 346 C-558 345.34 -558 344.68 -558 344 C-556.68 344 -555.36 344 -554 344 C-554 343.34 -554 342.68 -554 342 C-553.34 342 -552.68 342 -552 342 C-552 341.34 -552 340.68 -552 340 C-550.68 340 -549.36 340 -548 340 C-548 339.34 -548 338.68 -548 338 C-547.34 338 -546.68 338 -546 338 C-546 337.34 -546 336.68 -546 336 C-544.68 336 -543.36 336 -542 336 C-542 335.34 -542 334.68 -542 334 C-541.34 334 -540.68 334 -540 334 C-540 333.34 -540 332.68 -540 332 C-538.68 332 -537.36 332 -536 332 C-536 331.34 -536 330.68 -536 330 C-535.34 330 -534.68 330 -534 330 C-534 329.34 -534 328.68 -534 328 C-532.68 328 -531.36 328 -530 328 C-530 327.34 -530 326.68 -530 326 C-529.34 326 -528.68 326 -528 326 C-528 325.34 -528 324.68 -528 324 C-526.68 324 -525.36 324 -524 324 C-524 323.34 -524 322.68 -524 322 C-523.34 322 -522.68 322 -522 322 C-522 321.34 -522 320.68 -522 320 C-520.68 320 -519.36 320 -518 320 C-518 319.34 -518 318.68 -518 318 C-517.34 318 -516.68 318 -516 318 C-516 317.34 -516 316.68 -516 316 C-514.68 316 -513.36 316 -512 316 C-512 315.34 -512 314.68 -512 314 C-510.68 314 -509.36 314 -508 314 C-508 313.34 -508 312.68 -508 312 C-507.34 312 -506.68 312 -506 312 C-506 311.34 -506 310.68 -506 310 C-504.68 310 -503.36 310 -502 310 C-502 309.34 -502 308.68 -502 308 C-501.34 308 -500.68 308 -500 308 C-500 307.34 -500 306.68 -500 306 C-498.68 306 -497.36 306 -496 306 C-496 305.34 -496 304.68 -496 304 C-495.34 304 -494.68 304 -494 304 C-494 303.34 -494 302.68 -494 302 C-492.68 302 -491.36 302 -490 302 C-490 301.34 -490 300.68 -490 300 C-489.34 300 -488.68 300 -488 300 C-488 299.34 -488 298.68 -488 298 C-486.68 298 -485.36 298 -484 298 C-484 297.34 -484 296.68 -484 296 C-482.68 296 -481.36 296 -480 296 C-480 295.34 -480 294.68 -480 294 C-479.34 294 -478.68 294 -478 294 C-478 293.34 -478 292.68 -478 292 C-476.68 292 -475.36 292 -474 292 C-474 291.34 -474 290.68 -474 290 C-473.34 290 -472.68 290 -472 290 C-472 289.34 -472 288.68 -472 288 C-471.34 288 -470.68 288 -470 288 C-470 287.34 -470 286.68 -470 286 C-468.68 286 -467.36 286 -466 286 C-466 285.34 -466 284.68 -466 284 C-465.34 284 -464.68 284 -464 284 C-464 283.34 -464 282.68 -464 282 C-462.68 282 -461.36 282 -460 282 C-460 281.34 -460 280.68 -460 280 C-458.68 280 -457.36 280 -456 280 C-456 279.34 -456 278.68 -456 278 C-455.34 278 -454.68 278 -454 278 C-454 277.34 -454 276.68 -454 276 C-452.68 276 -451.36 276 -450 276 C-450 275.34 -450 274.68 -450 274 C-449.34 274 -448.68 274 -448 274 C-448 273.34 -448 272.68 -448 272 C-446.68 272 -445.36 272 -444 272 C-444 271.34 -444 270.68 -444 270 C-443.34 270 -442.68 270 -442 270 C-442 269.34 -442 268.68 -442 268 C-440.68 268 -439.36 268 -438 268 C-438 267.34 -438 266.68 -438 266 C-436.68 266 -435.36 266 -434 266 C-434 265.34 -434 264.68 -434 264 C-433.34 264 -432.68 264 -432 264 C-432 263.34 -432 262.68 -432 262 C-430.68 262 -429.36 262 -428 262 C-428 261.34 -428 260.68 -428 260 C-427.34 260 -426.68 260 -426 260 C-426 259.34 -426 258.68 -426 258 C-424.68 258 -423.36 258 -422 258 C-422 257.34 -422 256.68 -422 256 C-421.34 256 -420.68 256 -420 256 C-420 255.34 -420 254.68 -420 254 C-418.68 254 -417.36 254 -416 254 C-416 253.34 -416 252.68 -416 252 C-415.34 252 -414.68 252 -414 252 C-414 251.34 -414 250.68 -414 250 C-413.34 250 -412.68 250 -412 250 C-412 249.34 -412 248.68 -412 248 C-410.68 248 -409.36 248 -408 248 C-408 247.34 -408 246.68 -408 246 C-406.68 246 -405.36 246 -404 246 C-404 245.34 -404 244.68 -404 244 C-403.34 244 -402.68 244 -402 244 C-402 243.34 -402 242.68 -402 242 C-400.68 242 -399.36 242 -398 242 C-398 241.34 -398 240.68 -398 240 C-397.34 240 -396.68 240 -396 240 C-396 239.34 -396 238.68 -396 238 C-394.68 238 -393.36 238 -392 238 C-392 237.34 -392 236.68 -392 236 C-391.34 236 -390.68 236 -390 236 C-390 235.34 -390 234.68 -390 234 C-388.68 234 -387.36 234 -386 234 C-386 233.34 -386 232.68 -386 232 C-384.68 232 -383.36 232 -382 232 C-382 231.34 -382 230.68 -382 230 C-381.34 230 -380.68 230 -380 230 C-380 229.34 -380 228.68 -380 228 C-378.68 228 -377.36 228 -376 228 C-376 227.34 -376 226.68 -376 226 C-375.34 226 -374.68 226 -374 226 C-374 225.34 -374 224.68 -374 224 C-372.68 224 -371.36 224 -370 224 C-370 223.34 -370 222.68 -370 222 C-369.34 222 -368.68 222 -368 222 C-368 221.34 -368 220.68 -368 220 C-366.68 220 -365.36 220 -364 220 C-364 219.34 -364 218.68 -364 218 C-363.34 218 -362.68 218 -362 218 C-362 217.34 -362 216.68 -362 216 C-360.68 216 -359.36 216 -358 216 C-358 215.34 -358 214.68 -358 214 C-357.34 214 -356.68 214 -356 214 C-356 213.34 -356 212.68 -356 212 C-354.68 212 -353.36 212 -352 212 C-352 211.34 -352 210.68 -352 210 C-351.34 210 -350.68 210 -350 210 C-350 209.34 -350 208.68 -350 208 C-348.68 208 -347.36 208 -346 208 C-346 207.34 -346 206.68 -346 206 C-345.34 206 -344.68 206 -344 206 C-344 205.34 -344 204.68 -344 204 C-342.68 204 -341.36 204 -340 204 C-340 203.34 -340 202.68 -340 202 C-339.34 202 -338.68 202 -338 202 C-338 201.34 -338 200.68 -338 200 C-336.68 200 -335.36 200 -334 200 C-334 199.34 -334 198.68 -334 198 C-332.68 198 -331.36 198 -330 198 C-330 197.34 -330 196.68 -330 196 C-329.34 196 -328.68 196 -328 196 C-328 195.34 -328 194.68 -328 194 C-326.68 194 -325.36 194 -324 194 C-324 193.34 -324 192.68 -324 192 C-323.34 192 -322.68 192 -322 192 C-322 191.34 -322 190.68 -322 190 C-320.68 190 -319.36 190 -318 190 C-318 189.34 -318 188.68 -318 188 C-317.34 188 -316.68 188 -316 188 C-316 187.34 -316 186.68 -316 186 C-314.68 186 -313.36 186 -312 186 C-312 185.34 -312 184.68 -312 184 C-311.34 184 -310.68 184 -310 184 C-310 183.34 -310 182.68 -310 182 C-308.68 182 -307.36 182 -306 182 C-306 181.34 -306 180.68 -306 180 C-305.34 180 -304.68 180 -304 180 C-304 179.34 -304 178.68 -304 178 C-302.68 178 -301.36 178 -300 178 C-300 177.34 -300 176.68 -300 176 C-299.34 176 -298.68 176 -298 176 C-298 175.34 -298 174.68 -298 174 C-296.68 174 -295.36 174 -294 174 C-294 173.34 -294 172.68 -294 172 C-293.34 172 -292.68 172 -292 172 C-292 171.34 -292 170.68 -292 170 C-290.68 170 -289.36 170 -288 170 C-288 169.34 -288 168.68 -288 168 C-286.68 168 -285.36 168 -284 168 C-284 167.34 -284 166.68 -284 166 C-283.34 166 -282.68 166 -282 166 C-282 165.34 -282 164.68 -282 164 C-280.68 164 -279.36 164 -278 164 C-278 163.34 -278 162.68 -278 162 C-277.34 162 -276.68 162 -276 162 C-276 161.34 -276 160.68 -276 160 C-274.68 160 -273.36 160 -272 160 C-272 159.34 -272 158.68 -272 158 C-271.34 158 -270.68 158 -270 158 C-270 157.34 -270 156.68 -270 156 C-268.68 156 -267.36 156 -266 156 C-266 155.34 -266 154.68 -266 154 C-265.34 154 -264.68 154 -264 154 C-264 153.34 -264 152.68 -264 152 C-262.68 152 -261.36 152 -260 152 C-260 151.34 -260 150.68 -260 150 C-259.34 150 -258.68 150 -258 150 C-258 149.34 -258 148.68 -258 148 C-256.68 148 -255.36 148 -254 148 C-254 147.34 -254 146.68 -254 146 C-253.34 146 -252.68 146 -252 146 C-252 145.34 -252 144.68 -252 144 C-250.68 144 -249.36 144 -248 144 C-248 143.34 -248 142.68 -248 142 C-247.34 142 -246.68 142 -246 142 C-246 141.34 -246 140.68 -246 140 C-244.68 140 -243.36 140 -242 140 C-242 139.34 -242 138.68 -242 138 C-241.34 138 -240.68 138 -240 138 C-240 137.34 -240 136.68 -240 136 C-238.68 136 -237.36 136 -236 136 C-236 135.34 -236 134.68 -236 134 C-234.68 134 -233.36 134 -232 134 C-232 133.34 -232 132.68 -232 132 C-231.34 132 -230.68 132 -230 132 C-230 131.34 -230 130.68 -230 130 C-228.68 130 -227.36 130 -226 130 C-226 129.34 -226 128.68 -226 128 C-225.34 128 -224.68 128 -224 128 C-224 127.34 -224 126.68 -224 126 C-222.68 126 -221.36 126 -220 126 C-220 125.34 -220 124.68 -220 124 C-219.34 124 -218.68 124 -218 124 C-218 123.34 -218 122.68 -218 122 C-216.68 122 -215.36 122 -214 122 C-214 121.34 -214 120.68 -214 120 C-213.34 120 -212.68 120 -212 120 C-212 119.34 -212 118.68 -212 118 C-210.68 118 -209.36 118 -208 118 C-208 117.34 -208 116.68 -208 116 C-207.34 116 -206.68 116 -206 116 C-206 115.34 -206 114.68 -206 114 C-204.68 114 -203.36 114 -202 114 C-202 113.34 -202 112.68 -202 112 C-201.34 112 -200.68 112 -200 112 C-200 111.34 -200 110.68 -200 110 C-198.68 110 -197.36 110 -196 110 C-196 109.34 -196 108.68 -196 108 C-195.34 108 -194.68 108 -194 108 C-194 107.34 -194 106.68 -194 106 C-192.68 106 -191.36 106 -190 106 C-190 105.34 -190 104.68 -190 104 C-189.34 104 -188.68 104 -188 104 C-188 103.34 -188 102.68 -188 102 C-186.68 102 -185.36 102 -184 102 C-184 101.34 -184 100.68 -184 100 C-183.34 100 -182.68 100 -182 100 C-182 99.34 -182 98.68 -182 98 C-180.68 98 -179.36 98 -178 98 C-178 97.34 -178 96.68 -178 96 C-176.68 96 -175.36 96 -174 96 C-174 95.34 -174 94.68 -174 94 C-173.34 94 -172.68 94 -172 94 C-172 93.34 -172 92.68 -172 92 C-170.68 92 -169.36 92 -168 92 C-168 91.34 -168 90.68 -168 90 C-167.34 90 -166.68 90 -166 90 C-166 89.34 -166 88.68 -166 88 C-164.68 88 -163.36 88 -162 88 C-162 87.34 -162 86.68 -162 86 C-161.34 86 -160.68 86 -160 86 C-160 85.34 -160 84.68 -160 84 C-158.68 84 -157.36 84 -156 84 C-156 83.34 -156 82.68 -156 82 C-155.34 82 -154.68 82 -154 82 C-154 81.34 -154 80.68 -154 80 C-152.68 80 -151.36 80 -150 80 C-150 79.34 -150 78.68 -150 78 C-149.34 78 -148.68 78 -148 78 C-148 77.34 -148 76.68 -148 76 C-146.68 76 -145.36 76 -144 76 C-144 75.34 -144 74.68 -144 74 C-143.34 74 -142.68 74 -142 74 C-142 73.34 -142 72.68 -142 72 C-140.68 72 -139.36 72 -138 72 C-138 71.34 -138 70.68 -138 70 C-137.34 70 -136.68 70 -136 70 C-136 69.34 -136 68.68 -136 68 C-134.68 68 -133.36 68 -132 68 C-132 67.34 -132 66.68 -132 66 C-131.34 66 -130.68 66 -130 66 C-130 65.34 -130 64.68 -130 64 C-128.68 64 -127.36 64 -126 64 C-126 63.34 -126 62.68 -126 62 C-124.68 62 -123.36 62 -122 62 C-122 61.34 -122 60.68 -122 60 C-121.34 60 -120.68 60 -120 60 C-120 59.34 -120 58.68 -120 58 C-118.68 58 -117.36 58 -116 58 C-116 57.34 -116 56.68 -116 56 C-115.34 56 -114.68 56 -114 56 C-114 55.34 -114 54.68 -114 54 C-112.68 54 -111.36 54 -110 54 C-110 53.34 -110 52.68 -110 52 C-109.34 52 -108.68 52 -108 52 C-108 51.34 -108 50.68 -108 50 C-106.68 50 -105.36 50 -104 50 C-104 49.34 -104 48.68 -104 48 C-103.34 48 -102.68 48 -102 48 C-102 47.34 -102 46.68 -102 46 C-100.68 46 -99.36 46 -98 46 C-98 45.34 -98 44.68 -98 44 C-97.34 44 -96.68 44 -96 44 C-96 43.34 -96 42.68 -96 42 C-94.68 42 -93.36 42 -92 42 C-92 41.34 -92 40.68 -92 40 C-91.34 40 -90.68 40 -90 40 C-90 39.34 -90 38.68 -90 38 C-88.68 38 -87.36 38 -86 38 C-86 37.34 -86 36.68 -86 36 C-85.34 36 -84.68 36 -84 36 C-84 35.34 -84 34.68 -84 34 C-82.68 34 -81.36 34 -80 34 C-80 33.34 -80 32.68 -80 32 C-79.34 32 -78.68 32 -78 32 C-78 31.34 -78 30.68 -78 30 C-76.68 30 -75.36 30 -74 30 C-74 29.34 -74 28.68 -74 28 C-73.34 28 -72.68 28 -72 28 C-72 27.34 -72 26.68 -72 26 C-70.68 26 -69.36 26 -68 26 C-68 25.34 -68 24.68 -68 24 C-66.68 24 -65.36 24 -64 24 C-64 23.34 -64 22.68 -64 22 C-63.34 22 -62.68 22 -62 22 C-62 21.34 -62 20.68 -62 20 C-60.68 20 -59.36 20 -58 20 C-58 19.34 -58 18.68 -58 18 C-56.68 18 -55.36 18 -54 18 C-54 17.34 -54 16.68 -54 16 C-52.68 16 -51.36 16 -50 16 C-50 15.34 -50 14.68 -50 14 C-48.68 14 -47.36 14 -46 14 C-46 13.34 -46 12.68 -46 12 C-44.02 12 -42.04 12 -40 12 C-40 11.34 -40 10.68 -40 10 C-38.02 10 -36.04 10 -34 10 C-34 9.34 -34 8.68 -34 8 C-32.02 8 -30.04 8 -28 8 C-28 7.34 -28 6.68 -28 6 C-26.02 6 -24.04 6 -22 6 C-22 5.34 -22 4.68 -22 4 C-19.36 4 -16.72 4 -14 4 C-14 3.34 -14 2.68 -14 2 C-9.38 2 -4.76 2 0 2 C0 1.34 0 0.68 0 0 Z " fill="#D54E63" transform="translate(688,12)"/>
<path d="M0 0 C17.16 0 34.32 0 52 0 C52 0.66 52 1.32 52 2 C56.62 2 61.24 2 66 2 C66 2.66 66 3.32 66 4 C68.64 4 71.28 4 74 4 C74 4.66 74 5.32 74 6 C76.64 6 79.28 6 82 6 C82 6.66 82 7.32 82 8 C83.32 8 84.64 8 86 8 C86 8.66 86 9.32 86 10 C87.98 10 89.96 10 92 10 C92 10.66 92 11.32 92 12 C92.66 12 93.32 12 94 12 C94 12.66 94 13.32 94 14 C95.98 14 97.96 14 100 14 C100 14.66 100 15.32 100 16 C101.32 16 102.64 16 104 16 C104 16.66 104 17.32 104 18 C105.32 18 106.64 18 108 18 C108 18.66 108 19.32 108 20 C109.32 20 110.64 20 112 20 C112 20.66 112 21.32 112 22 C113.32 22 114.64 22 116 22 C116 22.66 116 23.32 116 24 C116.66 24 117.32 24 118 24 C118 24.66 118 25.32 118 26 C119.32 26 120.64 26 122 26 C122 26.66 122 27.32 122 28 C122.66 28 123.32 28 124 28 C124 28.66 124 29.32 124 30 C125.32 30 126.64 30 128 30 C128 30.66 128 31.32 128 32 C128.66 32 129.32 32 130 32 C130 32.66 130 33.32 130 34 C131.32 34 132.64 34 134 34 C134 34.66 134 35.32 134 36 C134.66 36 135.32 36 136 36 C136 36.66 136 37.32 136 38 C136.66 38 137.32 38 138 38 C138 38.66 138 39.32 138 40 C138.66 40 139.32 40 140 40 C140 40.66 140 41.32 140 42 C140.66 42 141.32 42 142 42 C142 42.66 142 43.32 142 44 C142.66 44 143.32 44 144 44 C144 44.66 144 45.32 144 46 C145.32 46 146.64 46 148 46 C148 46.66 148 47.32 148 48 C148.66 48 149.32 48 150 48 C150 48.66 150 49.32 150 50 C150.66 50 151.32 50 152 50 C152 50.66 152 51.32 152 52 C152.66 52 153.32 52 154 52 C154 52.66 154 53.32 154 54 C154.66 54 155.32 54 156 54 C156 54.66 156 55.32 156 56 C156.66 56 157.32 56 158 56 C158 57.32 158 58.64 158 60 C158.66 60 159.32 60 160 60 C160 60.66 160 61.32 160 62 C160.66 62 161.32 62 162 62 C162 62.66 162 63.32 162 64 C162.66 64 163.32 64 164 64 C164 64.66 164 65.32 164 66 C164.66 66 165.32 66 166 66 C166 67.32 166 68.64 166 70 C166.66 70 167.32 70 168 70 C168 70.66 168 71.32 168 72 C168.66 72 169.32 72 170 72 C170 72.66 170 73.32 170 74 C170.66 74 171.32 74 172 74 C172 75.32 172 76.64 172 78 C172.66 78 173.32 78 174 78 C174 78.66 174 79.32 174 80 C174.66 80 175.32 80 176 80 C176 81.32 176 82.64 176 84 C176.66 84 177.32 84 178 84 C178 85.32 178 86.64 178 88 C178.66 88 179.32 88 180 88 C180 88.66 180 89.32 180 90 C180.66 90 181.32 90 182 90 C182 91.32 182 92.64 182 94 C182.66 94 183.32 94 184 94 C184 95.32 184 96.64 184 98 C184.66 98 185.32 98 186 98 C186 99.32 186 100.64 186 102 C186.66 102 187.32 102 188 102 C188 103.98 188 105.96 188 108 C188.66 108 189.32 108 190 108 C190 109.32 190 110.64 190 112 C190.66 112 191.32 112 192 112 C192 113.98 192 115.96 192 118 C192.66 118 193.32 118 194 118 C194 119.32 194 120.64 194 122 C194.66 122 195.32 122 196 122 C196 123.98 196 125.96 196 128 C196.66 128 197.32 128 198 128 C198 130.64 198 133.28 198 136 C198.66 136 199.32 136 200 136 C200 139.3 200 142.6 200 146 C200.66 146 201.32 146 202 146 C202 149.3 202 152.6 202 156 C202.66 156 203.32 156 204 156 C204 175.14 204 194.28 204 214 C203.34 214 202.68 214 202 214 C202 216.64 202 219.28 202 222 C201.34 222 200.68 222 200 222 C200 225.3 200 228.6 200 232 C199.34 232 198.68 232 198 232 C198 233.32 198 234.64 198 236 C197.34 236 196.68 236 196 236 C196 238.64 196 241.28 196 244 C195.34 244 194.68 244 194 244 C194 245.32 194 246.64 194 248 C193.34 248 192.68 248 192 248 C192 249.98 192 251.96 192 254 C191.34 254 190.68 254 190 254 C190 255.98 190 257.96 190 260 C189.34 260 188.68 260 188 260 C188 261.32 188 262.64 188 264 C187.34 264 186.68 264 186 264 C186 265.32 186 266.64 186 268 C185.34 268 184.68 268 184 268 C184 269.32 184 270.64 184 272 C183.34 272 182.68 272 182 272 C182 273.32 182 274.64 182 276 C181.34 276 180.68 276 180 276 C180 277.32 180 278.64 180 280 C179.34 280 178.68 280 178 280 C178 280.66 178 281.32 178 282 C177.34 282 176.68 282 176 282 C176 283.32 176 284.64 176 286 C175.34 286 174.68 286 174 286 C174 286.66 174 287.32 174 288 C173.34 288 172.68 288 172 288 C172 289.32 172 290.64 172 292 C171.34 292 170.68 292 170 292 C170 292.66 170 293.32 170 294 C169.34 294 168.68 294 168 294 C168 295.32 168 296.64 168 298 C167.34 298 166.68 298 166 298 C166 298.66 166 299.32 166 300 C165.34 300 164.68 300 164 300 C164 300.66 164 301.32 164 302 C163.34 302 162.68 302 162 302 C162 303.32 162 304.64 162 306 C161.34 306 160.68 306 160 306 C160 306.66 160 307.32 160 308 C159.34 308 158.68 308 158 308 C158 308.66 158 309.32 158 310 C157.34 310 156.68 310 156 310 C156 310.66 156 311.32 156 312 C155.34 312 154.68 312 154 312 C154 312.66 154 313.32 154 314 C153.34 314 152.68 314 152 314 C152 314.66 152 315.32 152 316 C151.34 316 150.68 316 150 316 C150 316.66 150 317.32 150 318 C149.34 318 148.68 318 148 318 C148 318.66 148 319.32 148 320 C147.34 320 146.68 320 146 320 C146 320.66 146 321.32 146 322 C145.34 322 144.68 322 144 322 C144 322.66 144 323.32 144 324 C143.34 324 142.68 324 142 324 C142 324.66 142 325.32 142 326 C141.34 326 140.68 326 140 326 C140 326.66 140 327.32 140 328 C138.68 328 137.36 328 136 328 C136 328.66 136 329.32 136 330 C135.34 330 134.68 330 134 330 C134 330.66 134 331.32 134 332 C133.34 332 132.68 332 132 332 C132 332.66 132 333.32 132 334 C130.68 334 129.36 334 128 334 C128 334.66 128 335.32 128 336 C127.34 336 126.68 336 126 336 C126 336.66 126 337.32 126 338 C125.34 338 124.68 338 124 338 C124 338.66 124 339.32 124 340 C122.68 340 121.36 340 120 340 C120 340.66 120 341.32 120 342 C118.68 342 117.36 342 116 342 C116 342.66 116 343.32 116 344 C115.34 344 114.68 344 114 344 C114 344.66 114 345.32 114 346 C112.68 346 111.36 346 110 346 C110 346.66 110 347.32 110 348 C109.34 348 108.68 348 108 348 C108 348.66 108 349.32 108 350 C106.68 350 105.36 350 104 350 C104 350.66 104 351.32 104 352 C103.34 352 102.68 352 102 352 C102 352.66 102 353.32 102 354 C100.68 354 99.36 354 98 354 C98 354.66 98 355.32 98 356 C97.34 356 96.68 356 96 356 C96 356.66 96 357.32 96 358 C94.68 358 93.36 358 92 358 C92 358.66 92 359.32 92 360 C91.34 360 90.68 360 90 360 C90 360.66 90 361.32 90 362 C88.68 362 87.36 362 86 362 C86 362.66 86 363.32 86 364 C84.68 364 83.36 364 82 364 C82 364.66 82 365.32 82 366 C81.34 366 80.68 366 80 366 C80 366.66 80 367.32 80 368 C78.68 368 77.36 368 76 368 C76 368.66 76 369.32 76 370 C75.34 370 74.68 370 74 370 C74 370.66 74 371.32 74 372 C72.68 372 71.36 372 70 372 C70 372.66 70 373.32 70 374 C69.34 374 68.68 374 68 374 C68 374.66 68 375.32 68 376 C66.68 376 65.36 376 64 376 C64 376.66 64 377.32 64 378 C63.34 378 62.68 378 62 378 C62 378.66 62 379.32 62 380 C60.68 380 59.36 380 58 380 C58 380.66 58 381.32 58 382 C57.34 382 56.68 382 56 382 C56 382.66 56 383.32 56 384 C54.68 384 53.36 384 52 384 C52 384.66 52 385.32 52 386 C51.34 386 50.68 386 50 386 C50 386.66 50 387.32 50 388 C48.68 388 47.36 388 46 388 C46 388.66 46 389.32 46 390 C45.34 390 44.68 390 44 390 C44 390.66 44 391.32 44 392 C42.68 392 41.36 392 40 392 C40 392.66 40 393.32 40 394 C38.68 394 37.36 394 36 394 C36 394.66 36 395.32 36 396 C35.34 396 34.68 396 34 396 C34 396.66 34 397.32 34 398 C32.68 398 31.36 398 30 398 C30 398.66 30 399.32 30 400 C29.34 400 28.68 400 28 400 C28 400.66 28 401.32 28 402 C26.68 402 25.36 402 24 402 C24 402.66 24 403.32 24 404 C23.34 404 22.68 404 22 404 C22 404.66 22 405.32 22 406 C20.68 406 19.36 406 18 406 C18 406.66 18 407.32 18 408 C17.34 408 16.68 408 16 408 C16 408.66 16 409.32 16 410 C14.68 410 13.36 410 12 410 C12 410.66 12 411.32 12 412 C11.34 412 10.68 412 10 412 C10 412.66 10 413.32 10 414 C8.68 414 7.36 414 6 414 C6 414.66 6 415.32 6 416 C5.34 416 4.68 416 4 416 C4 416.66 4 417.32 4 418 C2.68 418 1.36 418 0 418 C0 418.66 0 419.32 0 420 C-0.66 420 -1.32 420 -2 420 C-2 420.66 -2 421.32 -2 422 C-3.32 422 -4.64 422 -6 422 C-6 422.66 -6 423.32 -6 424 C-6.66 424 -7.32 424 -8 424 C-8 424.66 -8 425.32 -8 426 C-9.32 426 -10.64 426 -12 426 C-12 426.66 -12 427.32 -12 428 C-13.32 428 -14.64 428 -16 428 C-16 428.66 -16 429.32 -16 430 C-16.66 430 -17.32 430 -18 430 C-18 430.66 -18 431.32 -18 432 C-19.32 432 -20.64 432 -22 432 C-22 432.66 -22 433.32 -22 434 C-22.66 434 -23.32 434 -24 434 C-24 434.66 -24 435.32 -24 436 C-25.32 436 -26.64 436 -28 436 C-28 436.66 -28 437.32 -28 438 C-28.66 438 -29.32 438 -30 438 C-30 438.66 -30 439.32 -30 440 C-31.32 440 -32.64 440 -34 440 C-34 440.66 -34 441.32 -34 442 C-34.66 442 -35.32 442 -36 442 C-36 442.66 -36 443.32 -36 444 C-37.32 444 -38.64 444 -40 444 C-40 444.66 -40 445.32 -40 446 C-40.66 446 -41.32 446 -42 446 C-42 446.66 -42 447.32 -42 448 C-43.32 448 -44.64 448 -46 448 C-46 448.66 -46 449.32 -46 450 C-46.66 450 -47.32 450 -48 450 C-48 450.66 -48 451.32 -48 452 C-49.32 452 -50.64 452 -52 452 C-52 452.66 -52 453.32 -52 454 C-52.66 454 -53.32 454 -54 454 C-54 454.66 -54 455.32 -54 456 C-55.32 456 -56.64 456 -58 456 C-58 456.66 -58 457.32 -58 458 C-58.66 458 -59.32 458 -60 458 C-60 458.66 -60 459.32 -60 460 C-61.32 460 -62.64 460 -64 460 C-64 460.66 -64 461.32 -64 462 C-65.32 462 -66.64 462 -68 462 C-68 462.66 -68 463.32 -68 464 C-68.66 464 -69.32 464 -70 464 C-70 464.66 -70 465.32 -70 466 C-71.32 466 -72.64 466 -74 466 C-74 466.66 -74 467.32 -74 468 C-74.66 468 -75.32 468 -76 468 C-76 468.66 -76 469.32 -76 470 C-77.32 470 -78.64 470 -80 470 C-80 470.66 -80 471.32 -80 472 C-80.66 472 -81.32 472 -82 472 C-82 472.66 -82 473.32 -82 474 C-83.32 474 -84.64 474 -86 474 C-86 474.66 -86 475.32 -86 476 C-86.66 476 -87.32 476 -88 476 C-88 476.66 -88 477.32 -88 478 C-89.32 478 -90.64 478 -92 478 C-92 478.66 -92 479.32 -92 480 C-92.66 480 -93.32 480 -94 480 C-94 480.66 -94 481.32 -94 482 C-95.32 482 -96.64 482 -98 482 C-98 482.66 -98 483.32 -98 484 C-98.66 484 -99.32 484 -100 484 C-100 484.66 -100 485.32 -100 486 C-101.32 486 -102.64 486 -104 486 C-104 486.66 -104 487.32 -104 488 C-104.66 488 -105.32 488 -106 488 C-106 488.66 -106 489.32 -106 490 C-107.32 490 -108.64 490 -110 490 C-110 490.66 -110 491.32 -110 492 C-110.66 492 -111.32 492 -112 492 C-112 492.66 -112 493.32 -112 494 C-113.32 494 -114.64 494 -116 494 C-116 494.66 -116 495.32 -116 496 C-117.32 496 -118.64 496 -120 496 C-120 496.66 -120 497.32 -120 498 C-120.66 498 -121.32 498 -122 498 C-122 498.66 -122 499.32 -122 500 C-123.32 500 -124.64 500 -126 500 C-126 500.66 -126 501.32 -126 502 C-126.66 502 -127.32 502 -128 502 C-128 502.66 -128 503.32 -128 504 C-129.32 504 -130.64 504 -132 504 C-132 504.66 -132 505.32 -132 506 C-132.66 506 -133.32 506 -134 506 C-134 506.66 -134 507.32 -134 508 C-135.32 508 -136.64 508 -138 508 C-138 508.66 -138 509.32 -138 510 C-138.66 510 -139.32 510 -140 510 C-140 510.66 -140 511.32 -140 512 C-141.32 512 -142.64 512 -144 512 C-144 512.66 -144 513.32 -144 514 C-144.66 514 -145.32 514 -146 514 C-146 514.66 -146 515.32 -146 516 C-147.32 516 -148.64 516 -150 516 C-150 516.66 -150 517.32 -150 518 C-150.66 518 -151.32 518 -152 518 C-152 518.66 -152 519.32 -152 520 C-153.32 520 -154.64 520 -156 520 C-156 520.66 -156 521.32 -156 522 C-156.66 522 -157.32 522 -158 522 C-158 522.66 -158 523.32 -158 524 C-159.32 524 -160.64 524 -162 524 C-162 524.66 -162 525.32 -162 526 C-162.66 526 -163.32 526 -164 526 C-164 526.66 -164 527.32 -164 528 C-165.32 528 -166.64 528 -168 528 C-168 528.66 -168 529.32 -168 530 C-168.66 530 -169.32 530 -170 530 C-170 530.66 -170 531.32 -170 532 C-171.32 532 -172.64 532 -174 532 C-174 532.66 -174 533.32 -174 534 C-175.32 534 -176.64 534 -178 534 C-178 534.66 -178 535.32 -178 536 C-178.66 536 -179.32 536 -180 536 C-180 536.66 -180 537.32 -180 538 C-181.32 538 -182.64 538 -184 538 C-184 538.66 -184 539.32 -184 540 C-184.66 540 -185.32 540 -186 540 C-186 540.66 -186 541.32 -186 542 C-187.32 542 -188.64 542 -190 542 C-190 542.66 -190 543.32 -190 544 C-190.66 544 -191.32 544 -192 544 C-192 544.66 -192 545.32 -192 546 C-193.32 546 -194.64 546 -196 546 C-196 546.66 -196 547.32 -196 548 C-196.66 548 -197.32 548 -198 548 C-198 548.66 -198 549.32 -198 550 C-199.32 550 -200.64 550 -202 550 C-202 550.66 -202 551.32 -202 552 C-202.66 552 -203.32 552 -204 552 C-204 552.66 -204 553.32 -204 554 C-205.32 554 -206.64 554 -208 554 C-208 554.66 -208 555.32 -208 556 C-208.66 556 -209.32 556 -210 556 C-210 556.66 -210 557.32 -210 558 C-211.32 558 -212.64 558 -214 558 C-214 558.66 -214 559.32 -214 560 C-214.66 560 -215.32 560 -216 560 C-216 560.66 -216 561.32 -216 562 C-217.32 562 -218.64 562 -220 562 C-220 562.66 -220 563.32 -220 564 C-220.66 564 -221.32 564 -222 564 C-222 564.66 -222 565.32 -222 566 C-223.32 566 -224.64 566 -226 566 C-226 566.66 -226 567.32 -226 568 C-227.32 568 -228.64 568 -230 568 C-230 568.66 -230 569.32 -230 570 C-230.66 570 -231.32 570 -232 570 C-232 570.66 -232 571.32 -232 572 C-233.32 572 -234.64 572 -236 572 C-236 572.66 -236 573.32 -236 574 C-236.66 574 -237.32 574 -238 574 C-238 574.66 -238 575.32 -238 576 C-239.32 576 -240.64 576 -242 576 C-242 576.66 -242 577.32 -242 578 C-242.66 578 -243.32 578 -244 578 C-244 578.66 -244 579.32 -244 580 C-245.32 580 -246.64 580 -248 580 C-248 580.66 -248 581.32 -248 582 C-248.66 582 -249.32 582 -250 582 C-250 582.66 -250 583.32 -250 584 C-251.32 584 -252.64 584 -254 584 C-254 584.66 -254 585.32 -254 586 C-254.66 586 -255.32 586 -256 586 C-256 586.66 -256 587.32 -256 588 C-257.32 588 -258.64 588 -260 588 C-260 588.66 -260 589.32 -260 590 C-260.66 590 -261.32 590 -262 590 C-262 590.66 -262 591.32 -262 592 C-263.32 592 -264.64 592 -266 592 C-266 592.66 -266 593.32 -266 594 C-266.66 594 -267.32 594 -268 594 C-268 594.66 -268 595.32 -268 596 C-269.32 596 -270.64 596 -272 596 C-272 596.66 -272 597.32 -272 598 C-272.66 598 -273.32 598 -274 598 C-274 598.66 -274 599.32 -274 600 C-275.32 600 -276.64 600 -278 600 C-278 600.66 -278 601.32 -278 602 C-279.32 602 -280.64 602 -282 602 C-282 602.66 -282 603.32 -282 604 C-282.66 604 -283.32 604 -284 604 C-284 604.66 -284 605.32 -284 606 C-285.32 606 -286.64 606 -288 606 C-288 606.66 -288 607.32 -288 608 C-288.66 608 -289.32 608 -290 608 C-290 608.66 -290 609.32 -290 610 C-291.32 610 -292.64 610 -294 610 C-294 610.66 -294 611.32 -294 612 C-294.66 612 -295.32 612 -296 612 C-296 612.66 -296 613.32 -296 614 C-297.32 614 -298.64 614 -300 614 C-300 614.66 -300 615.32 -300 616 C-300.66 616 -301.32 616 -302 616 C-302 616.66 -302 617.32 -302 618 C-303.32 618 -304.64 618 -306 618 C-306 618.66 -306 619.32 -306 620 C-306.66 620 -307.32 620 -308 620 C-308 620.66 -308 621.32 -308 622 C-309.32 622 -310.64 622 -312 622 C-312 622.66 -312 623.32 -312 624 C-312.66 624 -313.32 624 -314 624 C-314 624.66 -314 625.32 -314 626 C-315.32 626 -316.64 626 -318 626 C-318 626.66 -318 627.32 -318 628 C-318.66 628 -319.32 628 -320 628 C-320 628.66 -320 629.32 -320 630 C-321.32 630 -322.64 630 -324 630 C-324 630.66 -324 631.32 -324 632 C-324.66 632 -325.32 632 -326 632 C-326 632.66 -326 633.32 -326 634 C-327.32 634 -328.64 634 -330 634 C-330 634.66 -330 635.32 -330 636 C-330.66 636 -331.32 636 -332 636 C-332 636.66 -332 637.32 -332 638 C-333.32 638 -334.64 638 -336 638 C-336 638.66 -336 639.32 -336 640 C-337.32 640 -338.64 640 -340 640 C-340 640.66 -340 641.32 -340 642 C-340.66 642 -341.32 642 -342 642 C-342 642.66 -342 643.32 -342 644 C-343.32 644 -344.64 644 -346 644 C-346 644.66 -346 645.32 -346 646 C-346.66 646 -347.32 646 -348 646 C-348 646.66 -348 647.32 -348 648 C-349.32 648 -350.64 648 -352 648 C-352 648.66 -352 649.32 -352 650 C-352.66 650 -353.32 650 -354 650 C-354 650.66 -354 651.32 -354 652 C-355.32 652 -356.64 652 -358 652 C-358 652.66 -358 653.32 -358 654 C-358.66 654 -359.32 654 -360 654 C-360 654.66 -360 655.32 -360 656 C-361.32 656 -362.64 656 -364 656 C-364 656.66 -364 657.32 -364 658 C-364.66 658 -365.32 658 -366 658 C-366 658.66 -366 659.32 -366 660 C-367.32 660 -368.64 660 -370 660 C-370 660.66 -370 661.32 -370 662 C-370.66 662 -371.32 662 -372 662 C-372 662.66 -372 663.32 -372 664 C-373.32 664 -374.64 664 -376 664 C-376 664.66 -376 665.32 -376 666 C-376.66 666 -377.32 666 -378 666 C-378 666.66 -378 667.32 -378 668 C-379.32 668 -380.64 668 -382 668 C-382 668.66 -382 669.32 -382 670 C-382.66 670 -383.32 670 -384 670 C-384 670.66 -384 671.32 -384 672 C-385.32 672 -386.64 672 -388 672 C-388 672.66 -388 673.32 -388 674 C-388.66 674 -389.32 674 -390 674 C-390 674.66 -390 675.32 -390 676 C-391.32 676 -392.64 676 -394 676 C-394 676.66 -394 677.32 -394 678 C-395.32 678 -396.64 678 -398 678 C-398 678.66 -398 679.32 -398 680 C-398.66 680 -399.32 680 -400 680 C-400 680.66 -400 681.32 -400 682 C-401.32 682 -402.64 682 -404 682 C-404 682.66 -404 683.32 -404 684 C-405.32 684 -406.64 684 -408 684 C-408 684.66 -408 685.32 -408 686 C-409.32 686 -410.64 686 -412 686 C-412 686.66 -412 687.32 -412 688 C-413.98 688 -415.96 688 -418 688 C-418 688.66 -418 689.32 -418 690 C-419.32 690 -420.64 690 -422 690 C-422 690.66 -422 691.32 -422 692 C-423.32 692 -424.64 692 -426 692 C-426 692.66 -426 693.32 -426 694 C-427.98 694 -429.96 694 -432 694 C-432 694.66 -432 695.32 -432 696 C-434.64 696 -437.28 696 -440 696 C-440 696.66 -440 697.32 -440 698 C-443.3 698 -446.6 698 -450 698 C-450 698.66 -450 699.32 -450 700 C-454.62 700 -459.24 700 -464 700 C-464 700.66 -464 701.32 -464 702 C-476.54 702 -489.08 702 -502 702 C-502 701.34 -502 700.68 -502 700 C-505.96 700 -509.92 700 -514 700 C-514 699.34 -514 698.68 -514 698 C-515.98 698 -517.96 698 -520 698 C-520 697.34 -520 696.68 -520 696 C-523.96 696 -527.92 696 -532 696 C-532 695.34 -532 694.68 -532 694 C-533.98 694 -535.96 694 -538 694 C-538 693.34 -538 692.68 -538 692 C-539.32 692 -540.64 692 -542 692 C-542 691.34 -542 690.68 -542 690 C-543.98 690 -545.96 690 -548 690 C-548 689.34 -548 688.68 -548 688 C-549.32 688 -550.64 688 -552 688 C-552 687.34 -552 686.68 -552 686 C-553.32 686 -554.64 686 -556 686 C-556 685.34 -556 684.68 -556 684 C-557.32 684 -558.64 684 -560 684 C-560 683.34 -560 682.68 -560 682 C-560.66 682 -561.32 682 -562 682 C-562 681.34 -562 680.68 -562 680 C-564.64 680 -567.28 680 -570 680 C-570 679.34 -570 678.68 -570 678 C-570.66 678 -571.32 678 -572 678 C-572 677.34 -572 676.68 -572 676 C-573.32 676 -574.64 676 -576 676 C-576 675.34 -576 674.68 -576 674 C-576.66 674 -577.32 674 -578 674 C-578 673.34 -578 672.68 -578 672 C-579.32 672 -580.64 672 -582 672 C-582 671.34 -582 670.68 -582 670 C-582.66 670 -583.32 670 -584 670 C-584 669.34 -584 668.68 -584 668 C-584.66 668 -585.32 668 -586 668 C-586 667.34 -586 666.68 -586 666 C-586.66 666 -587.32 666 -588 666 C-588 665.34 -588 664.68 -588 664 C-588.66 664 -589.32 664 -590 664 C-590 663.34 -590 662.68 -590 662 C-590.66 662 -591.32 662 -592 662 C-592 661.34 -592 660.68 -592 660 C-593.32 660 -594.64 660 -596 660 C-596 659.34 -596 658.68 -596 658 C-596.66 658 -597.32 658 -598 658 C-598 657.34 -598 656.68 -598 656 C-598.66 656 -599.32 656 -600 656 C-600 655.34 -600 654.68 -600 654 C-600.66 654 -601.32 654 -602 654 C-602 653.34 -602 652.68 -602 652 C-602.66 652 -603.32 652 -604 652 C-604 651.34 -604 650.68 -604 650 C-604.66 650 -605.32 650 -606 650 C-606 649.34 -606 648.68 -606 648 C-606.66 648 -607.32 648 -608 648 C-608 647.34 -608 646.68 -608 646 C-608.66 646 -609.32 646 -610 646 C-610 645.34 -610 644.68 -610 644 C-610.66 644 -611.32 644 -612 644 C-612 642.68 -612 641.36 -612 640 C-612.66 640 -613.32 640 -614 640 C-614 639.34 -614 638.68 -614 638 C-614.66 638 -615.32 638 -616 638 C-616 637.34 -616 636.68 -616 636 C-616.66 636 -617.32 636 -618 636 C-618 635.34 -618 634.68 -618 634 C-618.66 634 -619.32 634 -620 634 C-620 632.68 -620 631.36 -620 630 C-620.66 630 -621.32 630 -622 630 C-622 629.34 -622 628.68 -622 628 C-622.66 628 -623.32 628 -624 628 C-624 627.34 -624 626.68 -624 626 C-624.66 626 -625.32 626 -626 626 C-626 624.68 -626 623.36 -626 622 C-626.66 622 -627.32 622 -628 622 C-628 621.34 -628 620.68 -628 620 C-628.66 620 -629.32 620 -630 620 C-630 618.68 -630 617.36 -630 616 C-630.66 616 -631.32 616 -632 616 C-632 614.68 -632 613.36 -632 612 C-632.66 612 -633.32 612 -634 612 C-634 611.34 -634 610.68 -634 610 C-634.66 610 -635.32 610 -636 610 C-636 608.68 -636 607.36 -636 606 C-636.66 606 -637.32 606 -638 606 C-638 604.68 -638 603.36 -638 602 C-638.66 602 -639.32 602 -640 602 C-640 600.68 -640 599.36 -640 598 C-640.66 598 -641.32 598 -642 598 C-642 596.02 -642 594.04 -642 592 C-642.66 592 -643.32 592 -644 592 C-644 590.68 -644 589.36 -644 588 C-644.66 588 -645.32 588 -646 588 C-646 586.02 -646 584.04 -646 582 C-646.66 582 -647.32 582 -648 582 C-648 580.02 -648 578.04 -648 576 C-648.66 576 -649.32 576 -650 576 C-650 573.36 -650 570.72 -650 568 C-650.66 568 -651.32 568 -652 568 C-652 566.68 -652 565.36 -652 564 C-652.66 564 -653.32 564 -654 564 C-654 560.04 -654 556.08 -654 552 C-654.66 552 -655.32 552 -656 552 C-656 548.04 -656 544.08 -656 540 C-656.66 540 -657.32 540 -658 540 C-658 527.46 -658 514.92 -658 502 C-657.34 502 -656.68 502 -656 502 C-656 495.4 -656 488.8 -656 482 C-655.34 482 -654.68 482 -654 482 C-654 480.02 -654 478.04 -654 476 C-653.34 476 -652.68 476 -652 476 C-652 472.7 -652 469.4 -652 466 C-651.34 466 -650.68 466 -650 466 C-650 464.02 -650 462.04 -650 460 C-649.34 460 -648.68 460 -648 460 C-648 458.02 -648 456.04 -648 454 C-647.34 454 -646.68 454 -646 454 C-646 452.02 -646 450.04 -646 448 C-645.34 448 -644.68 448 -644 448 C-644 446.68 -644 445.36 -644 444 C-643.34 444 -642.68 444 -642 444 C-642 442.68 -642 441.36 -642 440 C-641.34 440 -640.68 440 -640 440 C-640 438.02 -640 436.04 -640 434 C-639.34 434 -638.68 434 -638 434 C-638 432.68 -638 431.36 -638 430 C-637.34 430 -636.68 430 -636 430 C-636 429.34 -636 428.68 -636 428 C-635.34 428 -634.68 428 -634 428 C-634 426.68 -634 425.36 -634 424 C-633.34 424 -632.68 424 -632 424 C-632 422.68 -632 421.36 -632 420 C-631.34 420 -630.68 420 -630 420 C-630 419.34 -630 418.68 -630 418 C-629.34 418 -628.68 418 -628 418 C-628 416.68 -628 415.36 -628 414 C-627.34 414 -626.68 414 -626 414 C-626 413.34 -626 412.68 -626 412 C-625.34 412 -624.68 412 -624 412 C-624 410.68 -624 409.36 -624 408 C-623.34 408 -622.68 408 -622 408 C-622 407.34 -622 406.68 -622 406 C-621.34 406 -620.68 406 -620 406 C-620 405.34 -620 404.68 -620 404 C-619.34 404 -618.68 404 -618 404 C-618 402.68 -618 401.36 -618 400 C-617.34 400 -616.68 400 -616 400 C-616 399.34 -616 398.68 -616 398 C-615.34 398 -614.68 398 -614 398 C-614 397.34 -614 396.68 -614 396 C-613.34 396 -612.68 396 -612 396 C-612 395.34 -612 394.68 -612 394 C-611.34 394 -610.68 394 -610 394 C-610 393.34 -610 392.68 -610 392 C-609.34 392 -608.68 392 -608 392 C-608 391.34 -608 390.68 -608 390 C-607.34 390 -606.68 390 -606 390 C-606 389.34 -606 388.68 -606 388 C-605.34 388 -604.68 388 -604 388 C-604 387.34 -604 386.68 -604 386 C-603.34 386 -602.68 386 -602 386 C-602 385.34 -602 384.68 -602 384 C-601.34 384 -600.68 384 -600 384 C-600 383.34 -600 382.68 -600 382 C-599.34 382 -598.68 382 -598 382 C-598 381.34 -598 380.68 -598 380 C-597.34 380 -596.68 380 -596 380 C-596 379.34 -596 378.68 -596 378 C-595.34 378 -594.68 378 -594 378 C-594 377.34 -594 376.68 -594 376 C-593.34 376 -592.68 376 -592 376 C-592 375.34 -592 374.68 -592 374 C-591.34 374 -590.68 374 -590 374 C-590 373.34 -590 372.68 -590 372 C-589.34 372 -588.68 372 -588 372 C-588 371.34 -588 370.68 -588 370 C-586.68 370 -585.36 370 -584 370 C-584 369.34 -584 368.68 -584 368 C-583.34 368 -582.68 368 -582 368 C-582 367.34 -582 366.68 -582 366 C-580.68 366 -579.36 366 -578 366 C-578 365.34 -578 364.68 -578 364 C-577.34 364 -576.68 364 -576 364 C-576 363.34 -576 362.68 -576 362 C-574.68 362 -573.36 362 -572 362 C-572 361.34 -572 360.68 -572 360 C-571.34 360 -570.68 360 -570 360 C-570 359.34 -570 358.68 -570 358 C-569.34 358 -568.68 358 -568 358 C-568 357.34 -568 356.68 -568 356 C-566.68 356 -565.36 356 -564 356 C-564 355.34 -564 354.68 -564 354 C-563.34 354 -562.68 354 -562 354 C-562 353.34 -562 352.68 -562 352 C-560.68 352 -559.36 352 -558 352 C-558 351.34 -558 350.68 -558 350 C-557.34 350 -556.68 350 -556 350 C-556 349.34 -556 348.68 -556 348 C-554.68 348 -553.36 348 -552 348 C-552 347.34 -552 346.68 -552 346 C-550.68 346 -549.36 346 -548 346 C-548 345.34 -548 344.68 -548 344 C-547.34 344 -546.68 344 -546 344 C-546 343.34 -546 342.68 -546 342 C-544.68 342 -543.36 342 -542 342 C-542 341.34 -542 340.68 -542 340 C-541.34 340 -540.68 340 -540 340 C-540 339.34 -540 338.68 -540 338 C-538.68 338 -537.36 338 -536 338 C-536 337.34 -536 336.68 -536 336 C-535.34 336 -534.68 336 -534 336 C-534 335.34 -534 334.68 -534 334 C-532.68 334 -531.36 334 -530 334 C-530 333.34 -530 332.68 -530 332 C-529.34 332 -528.68 332 -528 332 C-528 331.34 -528 330.68 -528 330 C-526.68 330 -525.36 330 -524 330 C-524 329.34 -524 328.68 -524 328 C-523.34 328 -522.68 328 -522 328 C-522 327.34 -522 326.68 -522 326 C-520.68 326 -519.36 326 -518 326 C-518 325.34 -518 324.68 -518 324 C-517.34 324 -516.68 324 -516 324 C-516 323.34 -516 322.68 -516 322 C-514.68 322 -513.36 322 -512 322 C-512 321.34 -512 320.68 -512 320 C-511.34 320 -510.68 320 -510 320 C-510 319.34 -510 318.68 -510 318 C-508.68 318 -507.36 318 -506 318 C-506 317.34 -506 316.68 -506 316 C-505.34 316 -504.68 316 -504 316 C-504 315.34 -504 314.68 -504 314 C-502.68 314 -501.36 314 -500 314 C-500 313.34 -500 312.68 -500 312 C-499.34 312 -498.68 312 -498 312 C-498 311.34 -498 310.68 -498 310 C-496.68 310 -495.36 310 -494 310 C-494 309.34 -494 308.68 -494 308 C-492.68 308 -491.36 308 -490 308 C-490 307.34 -490 306.68 -490 306 C-489.34 306 -488.68 306 -488 306 C-488 305.34 -488 304.68 -488 304 C-486.68 304 -485.36 304 -484 304 C-484 303.34 -484 302.68 -484 302 C-483.34 302 -482.68 302 -482 302 C-482 301.34 -482 300.68 -482 300 C-480.68 300 -479.36 300 -478 300 C-478 299.34 -478 298.68 -478 298 C-477.34 298 -476.68 298 -476 298 C-476 297.34 -476 296.68 -476 296 C-474.68 296 -473.36 296 -472 296 C-472 295.34 -472 294.68 -472 294 C-471.34 294 -470.68 294 -470 294 C-470 293.34 -470 292.68 -470 292 C-468.68 292 -467.36 292 -466 292 C-466 291.34 -466 290.68 -466 290 C-465.34 290 -464.68 290 -464 290 C-464 289.34 -464 288.68 -464 288 C-462.68 288 -461.36 288 -460 288 C-460 287.34 -460 286.68 -460 286 C-459.34 286 -458.68 286 -458 286 C-458 285.34 -458 284.68 -458 284 C-456.68 284 -455.36 284 -454 284 C-454 283.34 -454 282.68 -454 282 C-453.34 282 -452.68 282 -452 282 C-452 281.34 -452 280.68 -452 280 C-450.68 280 -449.36 280 -448 280 C-448 279.34 -448 278.68 -448 278 C-447.34 278 -446.68 278 -446 278 C-446 277.34 -446 276.68 -446 276 C-444.68 276 -443.36 276 -442 276 C-442 275.34 -442 274.68 -442 274 C-441.34 274 -440.68 274 -440 274 C-440 273.34 -440 272.68 -440 272 C-438.68 272 -437.36 272 -436 272 C-436 271.34 -436 270.68 -436 270 C-434.68 270 -433.36 270 -432 270 C-432 269.34 -432 268.68 -432 268 C-431.34 268 -430.68 268 -430 268 C-430 267.34 -430 266.68 -430 266 C-428.68 266 -427.36 266 -426 266 C-426 265.34 -426 264.68 -426 264 C-425.34 264 -424.68 264 -424 264 C-424 263.34 -424 262.68 -424 262 C-422.68 262 -421.36 262 -420 262 C-420 261.34 -420 260.68 -420 260 C-419.34 260 -418.68 260 -418 260 C-418 259.34 -418 258.68 -418 258 C-416.68 258 -415.36 258 -414 258 C-414 257.34 -414 256.68 -414 256 C-413.34 256 -412.68 256 -412 256 C-412 255.34 -412 254.68 -412 254 C-410.68 254 -409.36 254 -408 254 C-408 253.34 -408 252.68 -408 252 C-407.34 252 -406.68 252 -406 252 C-406 251.34 -406 250.68 -406 250 C-404.68 250 -403.36 250 -402 250 C-402 249.34 -402 248.68 -402 248 C-401.34 248 -400.68 248 -400 248 C-400 247.34 -400 246.68 -400 246 C-398.68 246 -397.36 246 -396 246 C-396 245.34 -396 244.68 -396 244 C-395.34 244 -394.68 244 -394 244 C-394 243.34 -394 242.68 -394 242 C-392.68 242 -391.36 242 -390 242 C-390 241.34 -390 240.68 -390 240 C-389.34 240 -388.68 240 -388 240 C-388 239.34 -388 238.68 -388 238 C-386.68 238 -385.36 238 -384 238 C-384 237.34 -384 236.68 -384 236 C-382.68 236 -381.36 236 -380 236 C-380 235.34 -380 234.68 -380 234 C-379.34 234 -378.68 234 -378 234 C-378 233.34 -378 232.68 -378 232 C-376.68 232 -375.36 232 -374 232 C-374 231.34 -374 230.68 -374 230 C-373.34 230 -372.68 230 -372 230 C-372 229.34 -372 228.68 -372 228 C-371.34 228 -370.68 228 -370 228 C-370 227.34 -370 226.68 -370 226 C-368.68 226 -367.36 226 -366 226 C-366 225.34 -366 224.68 -366 224 C-364.68 224 -363.36 224 -362 224 C-362 223.34 -362 222.68 -362 222 C-361.34 222 -360.68 222 -360 222 C-360 221.34 -360 220.68 -360 220 C-358.68 220 -357.36 220 -356 220 C-356 219.34 -356 218.68 -356 218 C-355.34 218 -354.68 218 -354 218 C-354 217.34 -354 216.68 -354 216 C-352.68 216 -351.36 216 -350 216 C-350 215.34 -350 214.68 -350 214 C-349.34 214 -348.68 214 -348 214 C-348 213.34 -348 212.68 -348 212 C-346.68 212 -345.36 212 -344 212 C-344 211.34 -344 210.68 -344 210 C-343.34 210 -342.68 210 -342 210 C-342 209.34 -342 208.68 -342 208 C-340.68 208 -339.36 208 -338 208 C-338 207.34 -338 206.68 -338 206 C-337.34 206 -336.68 206 -336 206 C-336 205.34 -336 204.68 -336 204 C-334.68 204 -333.36 204 -332 204 C-332 203.34 -332 202.68 -332 202 C-331.34 202 -330.68 202 -330 202 C-330 201.34 -330 200.68 -330 200 C-328.68 200 -327.36 200 -326 200 C-326 199.34 -326 198.68 -326 198 C-325.34 198 -324.68 198 -324 198 C-324 197.34 -324 196.68 -324 196 C-322.68 196 -321.36 196 -320 196 C-320 195.34 -320 194.68 -320 194 C-319.34 194 -318.68 194 -318 194 C-318 193.34 -318 192.68 -318 192 C-316.68 192 -315.36 192 -314 192 C-314 191.34 -314 190.68 -314 190 C-312.68 190 -311.36 190 -310 190 C-310 189.34 -310 188.68 -310 188 C-309.34 188 -308.68 188 -308 188 C-308 187.34 -308 186.68 -308 186 C-306.68 186 -305.36 186 -304 186 C-304 185.34 -304 184.68 -304 184 C-303.34 184 -302.68 184 -302 184 C-302 183.34 -302 182.68 -302 182 C-300.68 182 -299.36 182 -298 182 C-298 181.34 -298 180.68 -298 180 C-297.34 180 -296.68 180 -296 180 C-296 179.34 -296 178.68 -296 178 C-294.68 178 -293.36 178 -292 178 C-292 177.34 -292 176.68 -292 176 C-291.34 176 -290.68 176 -290 176 C-290 175.34 -290 174.68 -290 174 C-288.68 174 -287.36 174 -286 174 C-286 173.34 -286 172.68 -286 172 C-285.34 172 -284.68 172 -284 172 C-284 171.34 -284 170.68 -284 170 C-282.68 170 -281.36 170 -280 170 C-280 169.34 -280 168.68 -280 168 C-279.34 168 -278.68 168 -278 168 C-278 167.34 -278 166.68 -278 166 C-276.68 166 -275.36 166 -274 166 C-274 165.34 -274 164.68 -274 164 C-273.34 164 -272.68 164 -272 164 C-272 163.34 -272 162.68 -272 162 C-270.68 162 -269.36 162 -268 162 C-268 161.34 -268 160.68 -268 160 C-267.34 160 -266.68 160 -266 160 C-266 159.34 -266 158.68 -266 158 C-264.68 158 -263.36 158 -262 158 C-262 157.34 -262 156.68 -262 156 C-261.34 156 -260.68 156 -260 156 C-260 155.34 -260 154.68 -260 154 C-258.68 154 -257.36 154 -256 154 C-256 153.34 -256 152.68 -256 152 C-254.68 152 -253.36 152 -252 152 C-252 151.34 -252 150.68 -252 150 C-251.34 150 -250.68 150 -250 150 C-250 149.34 -250 148.68 -250 148 C-248.68 148 -247.36 148 -246 148 C-246 147.34 -246 146.68 -246 146 C-245.34 146 -244.68 146 -244 146 C-244 145.34 -244 144.68 -244 144 C-242.68 144 -241.36 144 -240 144 C-240 143.34 -240 142.68 -240 142 C-239.34 142 -238.68 142 -238 142 C-238 141.34 -238 140.68 -238 140 C-236.68 140 -235.36 140 -234 140 C-234 139.34 -234 138.68 -234 138 C-233.34 138 -232.68 138 -232 138 C-232 137.34 -232 136.68 -232 136 C-230.68 136 -229.36 136 -228 136 C-228 135.34 -228 134.68 -228 134 C-227.34 134 -226.68 134 -226 134 C-226 133.34 -226 132.68 -226 132 C-224.68 132 -223.36 132 -222 132 C-222 131.34 -222 130.68 -222 130 C-221.34 130 -220.68 130 -220 130 C-220 129.34 -220 128.68 -220 128 C-218.68 128 -217.36 128 -216 128 C-216 127.34 -216 126.68 -216 126 C-215.34 126 -214.68 126 -214 126 C-214 125.34 -214 124.68 -214 124 C-212.68 124 -211.36 124 -210 124 C-210 123.34 -210 122.68 -210 122 C-209.34 122 -208.68 122 -208 122 C-208 121.34 -208 120.68 -208 120 C-206.68 120 -205.36 120 -204 120 C-204 119.34 -204 118.68 -204 118 C-203.34 118 -202.68 118 -202 118 C-202 117.34 -202 116.68 -202 116 C-200.68 116 -199.36 116 -198 116 C-198 115.34 -198 114.68 -198 114 C-197.34 114 -196.68 114 -196 114 C-196 113.34 -196 112.68 -196 112 C-194.68 112 -193.36 112 -192 112 C-192 111.34 -192 110.68 -192 110 C-191.34 110 -190.68 110 -190 110 C-190 109.34 -190 108.68 -190 108 C-188.68 108 -187.36 108 -186 108 C-186 107.34 -186 106.68 -186 106 C-185.34 106 -184.68 106 -184 106 C-184 105.34 -184 104.68 -184 104 C-182.68 104 -181.36 104 -180 104 C-180 103.34 -180 102.68 -180 102 C-178.68 102 -177.36 102 -176 102 C-176 101.34 -176 100.68 -176 100 C-175.34 100 -174.68 100 -174 100 C-174 99.34 -174 98.68 -174 98 C-172.68 98 -171.36 98 -170 98 C-170 97.34 -170 96.68 -170 96 C-169.34 96 -168.68 96 -168 96 C-168 95.34 -168 94.68 -168 94 C-166.68 94 -165.36 94 -164 94 C-164 93.34 -164 92.68 -164 92 C-163.34 92 -162.68 92 -162 92 C-162 91.34 -162 90.68 -162 90 C-160.68 90 -159.36 90 -158 90 C-158 89.34 -158 88.68 -158 88 C-157.34 88 -156.68 88 -156 88 C-156 87.34 -156 86.68 -156 86 C-154.68 86 -153.36 86 -152 86 C-152 85.34 -152 84.68 -152 84 C-151.34 84 -150.68 84 -150 84 C-150 83.34 -150 82.68 -150 82 C-148.68 82 -147.36 82 -146 82 C-146 81.34 -146 80.68 -146 80 C-145.34 80 -144.68 80 -144 80 C-144 79.34 -144 78.68 -144 78 C-142.68 78 -141.36 78 -140 78 C-140 77.34 -140 76.68 -140 76 C-139.34 76 -138.68 76 -138 76 C-138 75.34 -138 74.68 -138 74 C-136.68 74 -135.36 74 -134 74 C-134 73.34 -134 72.68 -134 72 C-133.34 72 -132.68 72 -132 72 C-132 71.34 -132 70.68 -132 70 C-130.68 70 -129.36 70 -128 70 C-128 69.34 -128 68.68 -128 68 C-126.68 68 -125.36 68 -124 68 C-124 67.34 -124 66.68 -124 66 C-123.34 66 -122.68 66 -122 66 C-122 65.34 -122 64.68 -122 64 C-120.68 64 -119.36 64 -118 64 C-118 63.34 -118 62.68 -118 62 C-117.34 62 -116.68 62 -116 62 C-116 61.34 -116 60.68 -116 60 C-114.68 60 -113.36 60 -112 60 C-112 59.34 -112 58.68 -112 58 C-111.34 58 -110.68 58 -110 58 C-110 57.34 -110 56.68 -110 56 C-108.68 56 -107.36 56 -106 56 C-106 55.34 -106 54.68 -106 54 C-105.34 54 -104.68 54 -104 54 C-104 53.34 -104 52.68 -104 52 C-102.68 52 -101.36 52 -100 52 C-100 51.34 -100 50.68 -100 50 C-99.34 50 -98.68 50 -98 50 C-98 49.34 -98 48.68 -98 48 C-96.68 48 -95.36 48 -94 48 C-94 47.34 -94 46.68 -94 46 C-93.34 46 -92.68 46 -92 46 C-92 45.34 -92 44.68 -92 44 C-90.68 44 -89.36 44 -88 44 C-88 43.34 -88 42.68 -88 42 C-87.34 42 -86.68 42 -86 42 C-86 41.34 -86 40.68 -86 40 C-84.68 40 -83.36 40 -82 40 C-82 39.34 -82 38.68 -82 38 C-81.34 38 -80.68 38 -80 38 C-80 37.34 -80 36.68 -80 36 C-78.68 36 -77.36 36 -76 36 C-76 35.34 -76 34.68 -76 34 C-75.34 34 -74.68 34 -74 34 C-74 33.34 -74 32.68 -74 32 C-72.68 32 -71.36 32 -70 32 C-70 31.34 -70 30.68 -70 30 C-68.68 30 -67.36 30 -66 30 C-66 29.34 -66 28.68 -66 28 C-65.34 28 -64.68 28 -64 28 C-64 27.34 -64 26.68 -64 26 C-62.68 26 -61.36 26 -60 26 C-60 25.34 -60 24.68 -60 24 C-59.34 24 -58.68 24 -58 24 C-58 23.34 -58 22.68 -58 22 C-56.68 22 -55.36 22 -54 22 C-54 21.34 -54 20.68 -54 20 C-52.68 20 -51.36 20 -50 20 C-50 19.34 -50 18.68 -50 18 C-48.68 18 -47.36 18 -46 18 C-46 17.34 -46 16.68 -46 16 C-44.68 16 -43.36 16 -42 16 C-42 15.34 -42 14.68 -42 14 C-40.68 14 -39.36 14 -38 14 C-38 13.34 -38 12.68 -38 12 C-36.68 12 -35.36 12 -34 12 C-34 11.34 -34 10.68 -34 10 C-32.02 10 -30.04 10 -28 10 C-28 9.34 -28 8.68 -28 8 C-26.02 8 -24.04 8 -22 8 C-22 7.34 -22 6.68 -22 6 C-20.02 6 -18.04 6 -16 6 C-16 5.34 -16 4.68 -16 4 C-12.7 4 -9.4 4 -6 4 C-6 3.34 -6 2.68 -6 2 C-4.02 2 -2.04 2 0 2 C0 1.34 0 0.68 0 0 Z " fill="#F0CF60" transform="translate(680,578)"/>
<path d="M0 0 C17.16 0 34.32 0 52 0 C52 0.66 52 1.32 52 2 C51.38834488 2.01030746 50.77668976 2.02061493 50.14649963 2.03123474 C43.80417684 2.13906745 37.46200286 2.25368342 31.11987305 2.37231445 C28.75011292 2.4157381 26.38032 2.45740749 24.01049805 2.49731445 C20.61236667 2.55483768 17.21440157 2.61858303 13.81640625 2.68359375 C12.74975235 2.70030624 11.68309845 2.71701874 10.5841217 2.73423767 C9.60318039 2.75418289 8.62223907 2.77412811 7.61157227 2.79467773 C6.74331314 2.81022202 5.87505402 2.8257663 4.98048401 2.84178162 C2.99919221 2.78462425 2.99919221 2.78462425 2 4 C-0.67058851 4.14115161 -3.32432238 4.04247107 -6 4 C-6 3.34 -6 2.68 -6 2 C-4.02 2 -2.04 2 0 2 C0 1.34 0 0.68 0 0 Z " fill="#F3D979" transform="translate(680,578)"/>
<path d="M0 0 C3.3 0 6.6 0 10 0 C10 0.66 10 1.32 10 2 C7.36 2 4.72 2 2 2 C2 2.66 2 3.32 2 4 C-10.54 4 -23.08 4 -36 4 C-35.67 3.34 -35.34 2.68 -35 2 C-23.45 2 -11.9 2 0 2 C0 1.34 0 0.68 0 0 Z " fill="#FBF1CC" transform="translate(216,1278)"/>
<path d="M0 0 C1.32 0 2.64 0 4 0 C4 0.66 4 1.32 4 2 C3.34 2 2.68 2 2 2 C2 2.66 2 3.32 2 4 C1.34 4 0.68 4 0 4 C0 4.66 0 5.32 0 6 C-0.66 6 -1.32 6 -2 6 C-2 6.66 -2 7.32 -2 8 C-2.66 8 -3.32 8 -4 8 C-4 8.66 -4 9.32 -4 10 C-4.66 10 -5.32 10 -6 10 C-6 10.66 -6 11.32 -6 12 C-7.32 12 -8.64 12 -10 12 C-10 11.34 -10 10.68 -10 10 C-9.34 10 -8.68 10 -8 10 C-8 9.34 -8 8.68 -8 8 C-7.34 8 -6.68 8 -6 8 C-6 7.34 -6 6.68 -6 6 C-5.34 6 -4.68 6 -4 6 C-4 5.34 -4 4.68 -4 4 C-3.34 4 -2.68 4 -2 4 C-2 3.34 -2 2.68 -2 2 C-1.34 2 -0.68 2 0 2 C0 1.34 0 0.68 0 0 Z " fill="#DE7D90" transform="translate(82,390)"/>
<path d="M0 0 C1.32 0 2.64 0 4 0 C4 0.66 4 1.32 4 2 C6.64 2 9.28 2 12 2 C12 2.66 12 3.32 12 4 C13.32 4 14.64 4 16 4 C16 4.66 16 5.32 16 6 C13.36 6 10.72 6 8 6 C8 5.34 8 4.68 8 4 C6.02 4 4.04 4 2 4 C2 3.34 2 2.68 2 2 C1.34 2 0.68 2 0 2 C0 1.34 0 0.68 0 0 Z " fill="#F5E08F" transform="translate(750,582)"/>
<path d="M0 0 C2.64 0 5.28 0 8 0 C8 0.66 8 1.32 8 2 C9.98 2 11.96 2 14 2 C14 2.66 14 3.32 14 4 C10.7 4 7.4 4 4 4 C4 3.34 4 2.68 4 2 C2.68 2 1.36 2 0 2 C0 1.34 0 0.68 0 0 Z " fill="#F9ECB7" transform="translate(152,1274)"/>
<path d="M0 0 C2.64 0 5.28 0 8 0 C8 0.66 8 1.32 8 2 C3.07262981 3.97094808 -0.78020872 4.1799928 -6 4 C-6 3.34 -6 2.68 -6 2 C-4.02 2 -2.04 2 0 2 C0 1.34 0 0.68 0 0 Z " fill="#F6E49A" transform="translate(680,578)"/>
<path d="M0 0 C2.64 0 5.28 0 8 0 C8 0.66 8 1.32 8 2 C6.02 2 4.04 2 2 2 C2 2.66 2 3.32 2 4 C-0.64 4 -3.28 4 -6 4 C-6 3.34 -6 2.68 -6 2 C-4.02 2 -2.04 2 0 2 C0 1.34 0 0.68 0 0 Z " fill="#F4DE88" transform="translate(664,582)"/>
<path d="M0 0 C1.32 0 2.64 0 4 0 C4 0.66 4 1.32 4 2 C3.34 2 2.68 2 2 2 C2 2.66 2 3.32 2 4 C1.34 4 0.68 4 0 4 C0 4.66 0 5.32 0 6 C-0.66 6 -1.32 6 -2 6 C-2 6.66 -2 7.32 -2 8 C-3.32 8 -4.64 8 -6 8 C-6 7.34 -6 6.68 -6 6 C-5.34 6 -4.68 6 -4 6 C-4 5.34 -4 4.68 -4 4 C-3.34 4 -2.68 4 -2 4 C-2 3.34 -2 2.68 -2 2 C-1.34 2 -0.68 2 0 2 C0 1.34 0 0.68 0 0 Z " fill="#E0899A" transform="translate(96,378)"/>
<path d="M0 0 C1.32 0 2.64 0 4 0 C4 0.66 4 1.32 4 2 C3.34 2 2.68 2 2 2 C2 2.66 2 3.32 2 4 C-0.64 4 -3.28 4 -6 4 C-6 3.34 -6 2.68 -6 2 C-4.02 2 -2.04 2 0 2 C0 1.34 0 0.68 0 0 Z " fill="#FAF1CA" transform="translate(268,1264)"/>
<path d="M0 0 C1.32 0 2.64 0 4 0 C4 0.66 4 1.32 4 2 C3.34 2 2.68 2 2 2 C2 2.66 2 3.32 2 4 C-0.64 4 -3.28 4 -6 4 C-6 3.34 -6 2.68 -6 2 C-4.02 2 -2.04 2 0 2 C0 1.34 0 0.68 0 0 Z " fill="#F4DF89" transform="translate(652,586)"/>
</svg>
